<svg width="18" height="18" viewBox="0 0 18 18" fill="none" xmlns="http://www.w3.org/2000/svg">
<g clip-path="url(#clip0_63_25306)">
<path d="M15.7693 14.2051H17.2564V15.6923H0.897461V14.2051H2.38464V3.05127C2.38464 2.85406 2.46298 2.66492 2.60243 2.52547C2.74188 2.38602 2.93102 2.30768 3.12823 2.30768H10.5641C10.7613 2.30768 10.9505 2.38602 11.0899 2.52547C11.2294 2.66492 11.3077 2.85406 11.3077 3.05127V14.2051H12.7949V6.76922H15.0257C15.2229 6.76922 15.412 6.84756 15.5515 6.98701C15.6909 7.12646 15.7693 7.31559 15.7693 7.51281V14.2051ZM5.359 8.2564V9.74358H8.33336V8.2564H5.359ZM5.359 5.28204V6.76922H8.33336V5.28204H5.359Z" fill="#636363"/>
</g>
<defs>
<clipPath id="clip0_63_25306">
<rect width="17.8462" height="17.8462" fill="white" transform="translate(0.153809 0.0769043)"/>
</clipPath>
</defs>
</svg>
