<svg width="20" height="20" viewBox="0 0 20 20" fill="none" xmlns="http://www.w3.org/2000/svg">
<path d="M16.2498 3.33333H13.7498V2.08333C13.7498 1.97282 13.7059 1.86684 13.6278 1.7887C13.5497 1.71056 13.4437 1.66666 13.3332 1.66666C13.2227 1.66666 13.1167 1.71056 13.0385 1.7887C12.9604 1.86684 12.9165 1.97282 12.9165 2.08333V3.33333H7.08317V2.08333C7.08317 1.97282 7.03927 1.86684 6.96113 1.7887C6.88299 1.71056 6.77701 1.66666 6.6665 1.66666C6.556 1.66666 6.45002 1.71056 6.37187 1.7887C6.29374 1.86684 6.24984 1.97282 6.24984 2.08333V3.33333H3.74984C3.19751 3.33399 2.66799 3.5537 2.27743 3.94426C1.88687 4.33481 1.66717 4.86433 1.6665 5.41666V16.25C1.66717 16.8023 1.88687 17.3318 2.27743 17.7224C2.66799 18.113 3.19751 18.3327 3.74984 18.3333H16.2498C16.8022 18.3329 17.3319 18.1133 17.7225 17.7226C18.1131 17.332 18.3327 16.8024 18.3332 16.25V5.41666C18.3327 4.86426 18.1131 4.33462 17.7225 3.94401C17.3319 3.55341 16.8022 3.33377 16.2498 3.33333ZM17.4998 16.25C17.4998 16.5815 17.3681 16.8995 17.1337 17.1339C16.8993 17.3683 16.5814 17.5 16.2498 17.5H3.74984C3.41832 17.5 3.10037 17.3683 2.86595 17.1339C2.63153 16.8995 2.49984 16.5815 2.49984 16.25V9.16666H17.4998V16.25ZM17.4998 8.33333H2.49984V5.41666C2.49984 4.72666 3.05817 4.16666 3.74984 4.16666H6.24984V5.41666C6.24984 5.52717 6.29374 5.63315 6.37187 5.71129C6.45002 5.78943 6.556 5.83333 6.6665 5.83333C6.77701 5.83333 6.88299 5.78943 6.96113 5.71129C7.03927 5.63315 7.08317 5.52717 7.08317 5.41666V4.16666H12.9165V5.41666C12.9165 5.52717 12.9604 5.63315 13.0385 5.71129C13.1167 5.78943 13.2227 5.83333 13.3332 5.83333C13.4437 5.83333 13.5497 5.78943 13.6278 5.71129C13.7059 5.63315 13.7498 5.52717 13.7498 5.41666V4.16666H16.2498C16.5814 4.16666 16.8993 4.29836 17.1337 4.53278C17.3681 4.7672 17.4998 5.08514 17.4998 5.41666V8.33333Z" fill="#797979"/>
</svg>
