<svg width="20" height="20" viewBox="0 0 20 20" fill="none" xmlns="http://www.w3.org/2000/svg">
<path d="M6.92236 6.12228L7.44464 5.86162C7.58859 5.78968 7.74854 5.75572 7.9093 5.76297C8.07006 5.77021 8.22631 5.8184 8.36321 5.90299C8.50012 5.98757 8.61314 6.10573 8.69155 6.24626C8.76996 6.38679 8.81117 6.54502 8.81125 6.70595V12.7334C8.81125 13.2344 9.01026 13.7148 9.3645 14.069C9.71873 14.4233 10.1992 14.6223 10.7001 14.6223H11.1724C11.7986 14.6223 12.3991 14.3735 12.8419 13.9307C13.2847 13.4879 13.5335 12.8874 13.5335 12.2612V11.7889H12.589M6.92236 8.95562H13.5335" stroke="#797979" stroke-linecap="round" stroke-linejoin="round"/>
<path d="M2.2002 9.9C2.2002 11.0162 2.42005 12.1215 2.84722 13.1528C3.27438 14.1841 3.90049 15.1211 4.68979 15.9104C5.47909 16.6997 6.41612 17.3258 7.44739 17.753C8.47865 18.1801 9.58396 18.4 10.7002 18.4C11.8164 18.4 12.9217 18.1801 13.953 17.753C14.9843 17.3258 15.9213 16.6997 16.7106 15.9104C17.4999 15.1211 18.126 14.1841 18.5532 13.1528C18.9803 12.1215 19.2002 11.0162 19.2002 9.9C19.2002 7.64566 18.3047 5.48365 16.7106 3.88959C15.1165 2.29553 12.9545 1.4 10.7002 1.4C8.44585 1.4 6.28385 2.29553 4.68979 3.88959C3.09573 5.48365 2.2002 7.64566 2.2002 9.9Z" stroke="#797979" stroke-linecap="round" stroke-linejoin="round"/>
</svg>
