<svg width="150" height="150" viewBox="0 0 150 150" fill="none" xmlns="http://www.w3.org/2000/svg">
<g id="Frame 1000006201">
<g id="Group 61">
<g id="Layer_1">
<g id="Group">
<g id="Group_2">
<g id="Group_3">
<path id="Vector" d="M74.6547 132.002C109.527 132.002 137.796 130.655 137.796 128.994C137.796 127.332 109.527 125.985 74.6547 125.985C39.7829 125.985 11.5137 127.332 11.5137 128.994C11.5137 130.655 39.7829 132.002 74.6547 132.002Z" fill="#EAEAEA"/>
</g>
</g>
<g id="Group_4">
<g id="Group_5">
<path id="Vector_2" d="M32.9838 118.832C22.0265 115.435 7.19444 98.4411 13.2218 81.874C16.6509 72.4485 27.4176 71.7463 35.8808 70.1805C47.6412 68.0045 52.9348 61.0846 60.7243 52.5675C69.4278 43.051 89.1957 31.9339 106.68 46.7462C111.389 50.7352 112.139 58.449 118.214 63.8643C124.325 69.3101 132.292 69.3346 135.878 80.1167C138.672 88.5172 126.644 105.995 118.494 111.204C103.419 120.838 57.6922 126.492 32.9838 118.832Z" fill="#FAFAFA"/>
</g>
</g>
<g id="Group_6">
<g id="Group_7">
<g id="Group_8" opacity="0.5">
<g id="Group_9">
<g id="Group_10">
<g id="Group_11">
<g id="Group_12">
<g id="Group_13">
<path id="Vector_3" d="M142.671 84.1077C142.67 84.1701 142.668 84.2309 142.667 84.2933C142.492 91.9108 141.401 97.7986 139.839 102.349L135.792 104.581L139.041 104.251L139.134 104.242C137.12 109.227 134.53 112.381 132.136 114.371C130.646 115.612 129.231 116.402 128.078 116.901C128.002 116.934 127.927 116.966 127.853 116.997C127.667 117.074 127.488 117.143 127.317 117.205H125.156C125.131 117.103 125.109 117.003 125.087 116.901C125.072 116.837 125.058 116.773 125.046 116.709C125.026 116.626 125.01 116.54 124.993 116.457C122.959 106.506 126.58 98.8422 131.066 93.4795C131.079 93.4612 131.094 93.4445 131.11 93.4263C132.671 91.5657 134.337 89.9818 135.903 88.678L136.729 91.1548L137.044 87.7621C139.763 85.6519 141.994 84.4546 142.542 84.1731C142.627 84.1289 142.671 84.1077 142.671 84.1077Z" fill="url(#paint0_linear_951_6577)"/>
</g>
</g>
</g>
</g>
</g>
</g>
<g id="Group_14">
<g id="Group_15">
<g id="Group_16">
<g id="Group_17">
<g id="Group_18">
<g id="Group_19">
<g id="Group_20">
<path id="Vector_4" d="M142.746 84.1471L142.667 84.2933L137.754 93.3319L137.666 93.4916L136.327 95.9561L136.281 96.0383L132.011 103.895L132.005 103.905L125.046 116.709L124.941 116.901L124.775 117.205H124.586L124.751 116.901L124.993 116.457L131.86 103.822L131.988 103.587L142.542 84.1731L142.6 84.0665L142.746 84.1471Z" fill="white"/>
</g>
</g>
</g>
</g>
</g>
</g>
</g>
<g id="Group_21">
<g id="Group_22">
<g id="Group_23">
<g id="Group_24">
<g id="Group_25">
<g id="Group_26">
<path id="Vector_5" d="M141.937 92.5112L136.25 95.9994L136.326 96.123L142.013 92.6349L141.937 92.5112Z" fill="white"/>
</g>
</g>
</g>
</g>
</g>
</g>
<g id="Group_27">
<g id="Group_28">
<g id="Group_29">
<g id="Group_30">
<g id="Group_31">
<g id="Group_32">
<path id="Vector_6" d="M142.069 90.6795L137.611 93.4136L137.687 93.5373L142.145 90.8031L142.069 90.6795Z" fill="white"/>
</g>
</g>
</g>
</g>
</g>
</g>
<g id="Group_33">
<g id="Group_34">
<g id="Group_35">
<g id="Group_36">
<g id="Group_37">
<g id="Group_38">
<path id="Vector_7" d="M131.213 93.4169L131.069 93.428L131.874 103.915L132.019 103.904L131.213 93.4169Z" fill="white"/>
</g>
</g>
</g>
</g>
</g>
</g>
<g id="Group_39" opacity="0.5">
<g id="Group_40">
<g id="Group_41">
<g id="Group_42">
<g id="Group_43">
<g id="Group_44">
<path id="Vector_8" d="M124.201 118.844C124.201 118.844 129.184 121.526 136.681 117.572L134.383 116.33L138.223 116.685C141.164 114.849 144.437 111.986 147.908 107.603L147.031 107.129L148.195 107.236C148.781 106.487 149.372 105.693 149.969 104.853C149.969 104.853 147.844 104.551 144.773 104.745L143.095 106.784L143.643 104.837C137.352 105.458 128.096 108.252 124.201 118.844Z" fill="url(#paint1_linear_951_6577)"/>
</g>
</g>
</g>
</g>
</g>
</g>
<g id="Group_45">
<g id="Group_46">
<g id="Group_47">
<g id="Group_48">
<g id="Group_49">
<g id="Group_50">
<g id="Group_51">
<path id="Vector_9" d="M149.925 104.776L123.795 118.269L123.87 118.415L150 104.922L149.925 104.776Z" fill="white"/>
</g>
</g>
</g>
</g>
</g>
</g>
</g>
<g id="Group_52">
<g id="Group_53">
<g id="Group_54">
<g id="Group_55">
<g id="Group_56">
<g id="Group_57">
<path id="Vector_10" d="M143.175 108.354L143.152 108.504L146.762 109.068L146.786 108.918L143.175 108.354Z" fill="white"/>
</g>
</g>
</g>
</g>
</g>
</g>
<g id="Group_58">
<g id="Group_59">
<g id="Group_60">
<g id="Group_61">
<g id="Group_62">
<g id="Group_63">
<path id="Vector_11" d="M141.386 109.236L141.351 109.384L145.545 110.36L145.58 110.212L141.386 109.236Z" fill="white"/>
</g>
</g>
</g>
</g>
</g>
</g>
</g>
<g id="Group_64">
<g id="Group_65">
<g id="Group_66">
<g id="Group_67">
<path id="Vector_12" d="M129.289 61.5557V127.148C129.289 128.064 128.548 128.807 127.63 128.807H95.3889C94.473 128.807 93.73 128.064 93.73 127.148V61.5557C93.73 60.6379 94.473 59.8968 95.3889 59.8968H127.63C128.548 59.8968 129.289 60.6379 129.289 61.5557Z" fill="url(#paint2_linear_951_6577)"/>
</g>
</g>
</g>
</g>
<g id="Group_68">
<g id="Group_69">
<g id="Group_70">
<g id="Group_71">
<path id="Vector_13" d="M127.753 61.5557V127.148C127.753 128.064 127.012 128.807 126.094 128.807H93.8528C92.9369 128.807 92.1938 128.064 92.1938 127.148V61.5557C92.1938 60.6379 92.9369 59.8968 93.8528 59.8968H126.094C127.012 59.8968 127.753 60.6379 127.753 61.5557Z" fill="url(#paint3_linear_951_6577)"/>
</g>
</g>
</g>
</g>
<g id="Group_72">
<g id="Group_73">
<g id="Group_74">
<g id="Group_75">
<path id="Vector_14" d="M125.311 68.3571V120.347C125.311 121.406 124.508 122.264 123.517 122.264H96.4304C95.4395 122.264 94.6362 121.406 94.6362 120.347V68.3571C94.6362 67.2983 95.4395 66.4401 96.4304 66.4401H123.517C124.508 66.4401 125.311 67.2983 125.311 68.3571Z" fill="#FDFDFD"/>
</g>
</g>
</g>
</g>
<g id="Group_76">
<g id="Group_77">
<g id="Group_78">
<g id="Group_79">
<g id="Group_80">
<g id="Group_81">
<path id="Vector_15" d="M114.454 63.0587H105.494C105.406 63.0587 105.334 62.9871 105.334 62.8988C105.334 62.8105 105.406 62.7388 105.494 62.7388H114.454C114.542 62.7388 114.614 62.8105 114.614 62.8988C114.614 62.9871 114.542 63.0587 114.454 63.0587Z" fill="white"/>
</g>
</g>
</g>
</g>
</g>
</g>
<g id="Group_82">
<g id="Group_83">
<g id="Group_84">
<path id="Vector_16" d="M117.913 104.998H102.034C101.052 104.998 100.249 104.194 100.249 103.212V102.529C100.249 101.547 101.052 100.743 102.034 100.743H117.913C118.895 100.743 119.698 101.547 119.698 102.529V103.212C119.698 104.194 118.895 104.998 117.913 104.998Z" fill="url(#paint4_linear_951_6577)"/>
</g>
</g>
</g>
<g id="Group_85">
<g id="Group_86">
<g id="Group_87">
<g id="Group_88">
<path id="Vector_17" d="M123.863 122.648H96.084C94.8576 122.648 93.8599 121.616 93.8599 120.347V68.3571C93.8599 67.0883 94.8576 66.0562 96.084 66.0562H123.863C125.09 66.0562 126.088 67.0884 126.088 68.3571V120.347C126.088 121.616 125.09 122.648 123.863 122.648ZM96.084 66.8241C95.2811 66.8241 94.6278 67.5118 94.6278 68.3571V120.347C94.6278 121.192 95.2811 121.88 96.084 121.88H123.863C124.666 121.88 125.32 121.192 125.32 120.347V68.3571C125.32 67.5118 124.666 66.8241 123.863 66.8241H96.084Z" fill="white"/>
</g>
</g>
</g>
</g>
<g id="Group_89">
<g id="Group_90">
<g id="Group_91">
<g id="Group_92">
<path id="Vector_18" d="M97.1493 94.0046H122.822C123.35 94.0046 123.783 93.5722 123.783 93.0437V76.5214C123.783 75.9929 123.35 75.5605 122.822 75.5605H97.1493C96.6208 75.5605 96.1885 75.9929 96.1885 76.5214V93.0437C96.1883 93.5722 96.6208 94.0046 97.1493 94.0046Z" fill="url(#paint5_linear_951_6577)"/>
</g>
</g>
</g>
<g id="Group_93">
<g id="Group_94">
<g id="Group_95">
<g id="Group_96">
<g id="Group_97">
<g id="Group_98">
<path id="Vector_19" d="M103.133 88.2425H98.5112C98.3681 88.2425 98.251 88.1254 98.251 87.9823V87.094C98.251 86.9509 98.3681 86.8338 98.5112 86.8338H103.133C103.276 86.8338 103.393 86.9509 103.393 87.094V87.9823C103.393 88.1254 103.276 88.2425 103.133 88.2425Z" fill="white"/>
</g>
</g>
</g>
</g>
</g>
<g id="Group_99">
<g id="Group_100">
<g id="Group_101">
<g id="Group_102">
<g id="Group_103">
<path id="Vector_20" d="M109.242 88.2427H104.62C104.477 88.2427 104.36 88.1256 104.36 87.9825V87.0942C104.36 86.9511 104.477 86.834 104.62 86.834H109.242C109.385 86.834 109.502 86.9511 109.502 87.0942V87.9825C109.502 88.1256 109.385 88.2427 109.242 88.2427Z" fill="white"/>
</g>
</g>
</g>
</g>
</g>
<g id="Group_104">
<g id="Group_105">
<g id="Group_106">
<g id="Group_107">
<g id="Group_108">
<path id="Vector_21" d="M115.35 88.2427H110.728C110.585 88.2427 110.468 88.1256 110.468 87.9825V87.0942C110.468 86.9511 110.585 86.834 110.728 86.834H115.35C115.493 86.834 115.61 86.9511 115.61 87.0942V87.9825C115.611 88.1256 115.493 88.2427 115.35 88.2427Z" fill="white"/>
</g>
</g>
</g>
</g>
</g>
<g id="Group_109">
<g id="Group_110">
<g id="Group_111">
<g id="Group_112">
<g id="Group_113">
<path id="Vector_22" d="M121.46 88.2427H116.838C116.695 88.2427 116.578 88.1256 116.578 87.9825V87.0942C116.578 86.9511 116.695 86.834 116.838 86.834H121.46C121.603 86.834 121.72 86.9511 121.72 87.0942V87.9825C121.72 88.1256 121.603 88.2427 121.46 88.2427Z" fill="white"/>
</g>
</g>
</g>
</g>
</g>
</g>
<g id="Group_114">
<g id="Group_115">
<g id="Group_116">
<g id="Group_117">
<g id="Group_118">
<g id="Group_119">
<path id="Vector_23" d="M121.403 90.9982H115.323C115.149 90.9982 115.006 90.8557 115.006 90.6816V89.9063C115.006 89.732 115.149 89.5897 115.323 89.5897H121.403C121.577 89.5897 121.72 89.7322 121.72 89.9063V90.6816C121.72 90.8558 121.577 90.9982 121.403 90.9982Z" fill="white"/>
</g>
</g>
</g>
</g>
</g>
</g>
<g id="Group_120">
<g id="Group_121">
<g id="Group_122">
<g id="Group_123">
<g id="Group_124">
<g id="Group_125">
<path id="Vector_24" d="M99.4243 81.0035V79.1534C99.4243 78.749 99.7533 78.42 100.158 78.42H103.752C104.156 78.42 104.485 78.749 104.485 79.1534V81.0035C104.485 81.4078 104.156 81.7368 103.752 81.7368H100.158C99.7533 81.7367 99.4243 81.4077 99.4243 81.0035ZM100.158 78.6169C99.8618 78.6169 99.6211 78.8576 99.6211 79.1534V81.0035C99.6211 81.2993 99.8618 81.54 100.158 81.54H103.752C104.048 81.54 104.288 81.2993 104.288 81.0035V79.1534C104.288 78.8576 104.048 78.6169 103.752 78.6169H100.158Z" fill="white"/>
</g>
</g>
</g>
</g>
</g>
</g>
<g id="Group_126">
<g id="Group_127">
<g id="Group_128">
<g id="Group_129">
<g id="Group_130">
<path id="Vector_25" d="M120.867 79.8215C120.867 79.7988 120.876 79.7758 120.893 79.7585C121.702 78.9502 121.702 77.6351 120.893 76.8271C120.859 76.7923 120.859 76.7359 120.893 76.701C120.928 76.6661 120.984 76.6661 121.019 76.701C121.897 77.5787 121.897 79.0068 121.019 79.8845C120.984 79.9193 120.928 79.9193 120.893 79.8845C120.876 79.8672 120.867 79.8442 120.867 79.8215Z" fill="white"/>
</g>
</g>
</g>
</g>
<g id="Group_131">
<g id="Group_132">
<g id="Group_133">
<g id="Group_134">
<path id="Vector_26" d="M120.421 77.2735C120.421 77.2508 120.43 77.2279 120.448 77.2105C120.482 77.1758 120.539 77.1758 120.574 77.2105C121.17 77.8072 121.17 78.7781 120.574 79.3747C120.539 79.4094 120.482 79.4094 120.448 79.3747C120.413 79.3399 120.413 79.2835 120.448 79.2486C120.975 78.7213 120.975 77.8635 120.448 77.3364C120.43 77.3192 120.421 77.2965 120.421 77.2735Z" fill="white"/>
</g>
</g>
</g>
</g>
<g id="Group_135">
<g id="Group_136">
<g id="Group_137">
<g id="Group_138">
<path id="Vector_27" d="M119.994 78.8389C119.994 78.8161 120.002 78.7932 120.02 78.7758C120.286 78.5095 120.286 78.0761 120.02 77.8096C119.985 77.7749 119.985 77.7185 120.02 77.6835C120.055 77.6488 120.111 77.6488 120.146 77.6835C120.482 78.0193 120.482 78.5659 120.146 78.9019C120.111 78.9366 120.055 78.9366 120.02 78.9019C120.002 78.8845 119.994 78.8618 119.994 78.8389Z" fill="white"/>
</g>
</g>
</g>
</g>
</g>
</g>
<g id="Group_139">
<g id="Group_140">
<g id="Group_141">
<g id="Group_142">
<g id="Group_143">
<path id="Vector_28" d="M127.897 114.17H127.609V61.5557C127.609 60.7204 126.93 60.0408 126.094 60.0408H93.8525C93.0173 60.0408 92.3378 60.7204 92.3378 61.5557V106.621H92.0498V61.5557C92.0498 60.5616 92.8586 59.7528 93.8527 59.7528H126.094C127.088 59.7528 127.897 60.5616 127.897 61.5557V114.17Z" fill="white"/>
</g>
</g>
</g>
<g id="Group_144">
<g id="Group_145">
<g id="Group_146">
<path id="Vector_29" d="M97.5605 128.951H93.8527C92.8586 128.951 92.0498 128.142 92.0498 127.148V119.563H92.3378V127.148C92.3378 127.984 93.0173 128.663 93.8526 128.663H97.5603V128.951H97.5605Z" fill="white"/>
</g>
</g>
</g>
<g id="Group_147">
<g id="Group_148">
<g id="Group_149">
<path id="Vector_30" d="M112.272 128.664H108.84V128.951H112.272V128.664Z" fill="white"/>
</g>
</g>
</g>
</g>
</g>
<g id="Group_150">
<g id="Group_151">
<g id="Group_152">
<g id="Group_153">
<g id="Group_154">
<path id="Vector_31" d="M130.022 128.518C130.022 129.013 126.383 129.417 121.896 129.417C117.409 129.417 113.771 129.014 113.771 128.518C113.771 128.508 113.772 128.501 113.774 128.491V126.062H130.016V128.485C130.02 128.497 130.022 128.506 130.022 128.518Z" fill="#F49B51"/>
</g>
</g>
<g id="Group_155">
<g id="Group_156">
<path id="Vector_32" d="M121.896 126.983C126.383 126.983 130.021 126.581 130.021 126.084C130.021 125.588 126.383 125.186 121.896 125.186C117.408 125.186 113.771 125.588 113.771 126.084C113.771 126.581 117.408 126.983 121.896 126.983Z" fill="#FCC659"/>
</g>
</g>
</g>
<g id="Group_157">
<g id="Group_158">
<g id="Group_159">
<path id="Vector_33" d="M131.942 125.587C131.942 126.083 128.303 126.486 123.816 126.486C119.329 126.486 115.69 126.083 115.69 125.587C115.69 125.578 115.692 125.57 115.694 125.561V123.132H131.936V125.555C131.94 125.566 131.942 125.576 131.942 125.587Z" fill="#F49B51"/>
</g>
</g>
<g id="Group_160">
<g id="Group_161">
<path id="Vector_34" d="M123.816 124.052C128.303 124.052 131.941 123.65 131.941 123.154C131.941 122.658 128.303 122.255 123.816 122.255C119.328 122.255 115.69 122.658 115.69 123.154C115.69 123.65 119.328 124.052 123.816 124.052Z" fill="#FCC659"/>
</g>
</g>
</g>
<g id="Group_162">
<g id="Group_163">
<g id="Group_164">
<path id="Vector_35" d="M130.022 122.657C130.022 123.152 126.383 123.555 121.896 123.555C117.409 123.555 113.771 123.152 113.771 122.657C113.771 122.647 113.772 122.64 113.774 122.63V120.201H130.016V122.624C130.02 122.636 130.022 122.645 130.022 122.657Z" fill="#F49B51"/>
</g>
</g>
<g id="Group_165">
<g id="Group_166">
<path id="Vector_36" d="M121.896 121.122C126.383 121.122 130.021 120.72 130.021 120.223C130.021 119.727 126.383 119.325 121.896 119.325C117.408 119.325 113.771 119.727 113.771 120.223C113.771 120.72 117.408 121.122 121.896 121.122Z" fill="#FCC659"/>
</g>
</g>
</g>
<g id="Group_167">
<g id="Group_168">
<g id="Group_169">
<g id="Group_170">
<path id="Vector_37" d="M121.897 129.512C118.592 129.512 113.675 129.247 113.675 128.517H113.867C113.867 128.797 116.625 129.32 121.897 129.32C122.089 129.32 122.279 129.319 122.467 129.318L122.469 129.51C122.28 129.511 122.089 129.512 121.897 129.512Z" fill="white"/>
</g>
</g>
</g>
<g id="Group_171">
<g id="Group_172">
<g id="Group_173">
<path id="Vector_38" d="M125.118 129.438L125.109 129.247C125.932 129.207 126.686 129.153 127.352 129.086L127.371 129.277C126.702 129.345 125.945 129.399 125.118 129.438Z" fill="white"/>
</g>
</g>
</g>
</g>
<g id="Group_174">
<g id="Group_175">
<g id="Group_176">
<g id="Group_177">
<path id="Vector_39" d="M118.69 126.365C115.636 126.087 115.636 125.703 115.636 125.576H115.828C115.828 125.669 116.345 125.959 118.707 126.174L118.69 126.365Z" fill="white"/>
</g>
</g>
</g>
<g id="Group_178">
<g id="Group_179">
<g id="Group_180">
<path id="Vector_40" d="M123.858 126.57C122.944 126.57 122.047 126.554 121.191 126.521L121.199 126.329C122.727 126.388 124.417 126.395 125.992 126.347L125.998 126.539C125.301 126.56 124.581 126.57 123.858 126.57Z" fill="white"/>
</g>
</g>
</g>
<g id="Group_181">
<g id="Group_182">
<g id="Group_183">
<path id="Vector_41" d="M128.015 126.444L128.002 126.252C128.869 126.195 129.625 126.122 130.249 126.033L130.276 126.224C129.647 126.312 128.886 126.387 128.015 126.444Z" fill="white"/>
</g>
</g>
</g>
</g>
<g id="Group_184">
<g id="Group_185">
<g id="Group_186">
<g id="Group_187">
<path id="Vector_42" d="M116.433 120.989C113.725 120.713 113.725 120.364 113.725 120.233H113.917C113.917 120.236 113.986 120.546 116.452 120.798L116.433 120.989Z" fill="white"/>
</g>
</g>
</g>
<g id="Group_188">
<g id="Group_189">
<g id="Group_190">
<path id="Vector_43" d="M121.946 121.227C121.012 121.227 120.098 121.21 119.231 121.176L119.238 120.984C120.103 121.018 121.015 121.035 121.946 121.035C123.614 121.035 125.215 120.98 126.578 120.875L126.592 121.066C125.225 121.172 123.619 121.227 121.946 121.227Z" fill="white"/>
</g>
</g>
</g>
</g>
<g id="Group_191">
<g id="Group_192">
<g id="Group_193">
<path id="Vector_44" d="M132.902 119.726C132.902 120.222 129.264 120.625 124.776 120.625C120.289 120.625 116.651 120.222 116.651 119.726C116.651 119.717 116.653 119.709 116.655 119.699V117.271H132.896V119.694C132.9 119.705 132.902 119.715 132.902 119.726Z" fill="#F49B51"/>
</g>
</g>
<g id="Group_194">
<g id="Group_195">
<path id="Vector_45" d="M124.776 118.191C129.264 118.191 132.901 117.789 132.901 117.293C132.901 116.797 129.264 116.394 124.776 116.394C120.289 116.394 116.651 116.797 116.651 117.293C116.651 117.789 120.289 118.191 124.776 118.191Z" fill="#FCC659"/>
</g>
</g>
<g id="Group_196">
<g id="Group_197">
<path id="Vector_46" d="M131.394 117.293C131.394 117.627 128.431 117.897 124.776 117.897C121.121 117.897 118.158 117.627 118.158 117.293C118.158 116.959 121.121 116.689 124.776 116.689C128.431 116.689 131.394 116.959 131.394 117.293Z" fill="#F49B51"/>
</g>
</g>
</g>
</g>
<g id="Group_198">
<g id="Group_199">
<g id="Group_200">
<path id="Vector_47" d="M103.693 112.966C99.1623 112.842 95.3896 116.416 95.2658 120.948C95.1421 125.479 98.7155 129.253 103.248 129.375C107.779 129.499 111.553 125.926 111.675 121.393C111.799 116.862 108.225 113.09 103.693 112.966ZM110.075 121.35C110.027 123.114 109.294 124.753 108.012 125.967C106.732 127.18 105.056 127.823 103.291 127.775C99.6502 127.675 96.7677 124.633 96.8674 120.991C96.9156 119.227 97.6461 117.588 98.9283 116.374C100.164 115.204 101.769 114.564 103.466 114.564C103.528 114.564 103.588 114.566 103.65 114.568C107.232 114.664 110.076 117.61 110.076 121.17C110.077 121.23 110.077 121.29 110.075 121.35Z" fill="#FCC659"/>
</g>
</g>
<g id="Group_201">
<g id="Group_202">
<path id="Vector_48" d="M110.077 121.17C110.077 121.23 110.077 121.29 110.075 121.35C110.027 123.114 109.295 124.753 108.012 125.967C106.732 127.18 105.056 127.823 103.291 127.775C99.65 127.676 96.7675 124.633 96.8673 120.991C96.9154 119.227 97.646 117.588 98.9283 116.374C100.164 115.204 101.77 114.564 103.466 114.564C103.528 114.564 103.588 114.566 103.65 114.568C107.232 114.664 110.077 117.61 110.077 121.17Z" fill="#F49B51"/>
</g>
</g>
<g id="Group_203">
<g id="Group_204">
<path id="Vector_49" d="M109.805 119.517C109.792 119.463 109.776 119.41 109.761 119.357C109.237 117.545 107.96 116.055 106.255 115.256L106.331 115.094C108.083 115.914 109.395 117.446 109.93 119.296C109.949 119.362 109.965 119.417 109.979 119.473L109.805 119.517Z" fill="white"/>
</g>
</g>
<g id="Group_205">
<g id="Group_206">
<path id="Vector_50" d="M106.255 115.256C104.884 114.614 103.322 114.47 101.858 114.851L101.813 114.678C103.318 114.286 104.922 114.434 106.331 115.094L106.255 115.256Z" fill="white"/>
</g>
</g>
<g id="Group_207">
<g id="Group_208">
<path id="Vector_51" d="M109.27 124.548L109.116 124.458C109.555 123.71 109.838 122.902 109.956 122.056L110.133 122.081C110.012 122.951 109.722 123.781 109.27 124.548Z" fill="white"/>
</g>
</g>
<g id="Group_209">
<g id="Group_210">
<g id="Group_211">
<path id="Vector_52" d="M108.812 115.066C108.178 114.511 107.466 114.059 106.695 113.725L106.771 113.549C107.56 113.891 108.289 114.353 108.939 114.922L108.812 115.066Z" fill="white"/>
</g>
</g>
</g>
<g id="Group_212">
<g id="Group_213">
<g id="Group_214">
<path id="Vector_53" d="M108.103 128.063L107.996 127.904C110.168 126.441 111.508 124.006 111.579 121.391C111.623 119.766 111.187 118.186 110.317 116.82L110.479 116.717C111.369 118.115 111.816 119.733 111.771 121.397C111.698 124.074 110.327 126.566 108.103 128.063Z" fill="white"/>
</g>
</g>
</g>
</g>
</g>
<g id="Group_215">
<g id="Group_216">
<g id="Group_217">
<g id="Group_218">
<path id="Vector_54" d="M123.878 80.0752H123.686V76.4194C123.686 75.9425 123.298 75.5546 122.822 75.5546H106.47V75.3626H122.822C123.404 75.3626 123.878 75.8367 123.878 76.4194V80.0752Z" fill="white"/>
</g>
</g>
</g>
<g id="Group_219">
<g id="Group_220">
<g id="Group_221">
<path id="Vector_55" d="M123.879 81.9954H123.687V84.1097H123.879V81.9954Z" fill="white"/>
</g>
</g>
</g>
<g id="Group_222">
<g id="Group_223">
<g id="Group_224">
<path id="Vector_56" d="M104.359 75.3623H101.025V75.5543H104.359V75.3623Z" fill="white"/>
</g>
</g>
</g>
</g>
</g>
<g id="Group_225">
<g id="Group_226">
<path id="Vector_57" d="M44.7626 55.5784C46.091 54.5008 47.3138 53.2022 47.8889 51.5914C48.4639 49.9805 48.2662 48.0092 47.0543 46.8021C46.0661 45.818 44.5655 45.4858 43.1796 45.6423C41.7938 45.7988 40.4958 46.3868 39.2588 47.0308C36.8922 48.2631 23.1274 56.7974 27.9125 59.6081C32.5192 62.314 41.2032 58.4662 44.7626 55.5784Z" fill="#FAFAFA"/>
</g>
</g>
<g id="Group_227">
<g id="Group_228">
<g id="Group_229">
<g id="Group_230">
<path id="Vector_58" d="M13.1101 78.3419L12.9456 78.243C14.8871 75.0047 18.0146 72.8074 22.7878 71.3286L22.8445 71.512C18.1192 72.9761 15.0261 75.1463 13.1101 78.3419Z" fill="white"/>
</g>
</g>
</g>
<g id="Group_231">
<g id="Group_232">
<g id="Group_233">
<path id="Vector_59" d="M10.6239 79.6027L10.4436 79.5372C12.9496 72.6489 19.3823 70.4389 25.3441 69.1858L25.3837 69.3737C19.4733 70.616 13.0978 72.8029 10.6239 79.6027Z" fill="white"/>
</g>
</g>
</g>
<g id="Group_234">
<g id="Group_235">
<g id="Group_236">
<path id="Vector_60" d="M97.4106 39.4818C93.0058 37.2299 89.2762 36.6235 85.6734 37.5727L85.6245 37.3872C89.2755 36.4249 93.0484 37.0362 97.498 39.3108L97.4106 39.4818Z" fill="white"/>
</g>
</g>
</g>
<g id="Group_237">
<g id="Group_238">
<g id="Group_239">
<path id="Vector_61" d="M100.721 39.724C95.6235 36.486 89.533 33.5989 83.0135 36.7389L82.9302 36.5659C89.5342 33.3856 95.6816 36.2956 100.824 39.5621L100.721 39.724Z" fill="white"/>
</g>
</g>
</g>
</g>
<g id="Group_240">
<g id="Group_241" opacity="0.5">
<g id="Group_242">
<g id="Group_243">
<g id="Group_244">
<g id="Group_245">
<g id="Group_246">
<path id="Vector_62" d="M6.29712 91.8013C6.29837 91.8554 6.2998 91.9082 6.30106 91.9623C6.45293 98.5706 7.39925 103.678 8.75463 107.626L12.2654 109.562L9.44628 109.276L9.36569 109.268C11.1131 113.593 13.3595 116.329 15.4369 118.055C16.7291 119.132 17.9564 119.817 18.9568 120.25C19.0227 120.279 19.0875 120.307 19.1522 120.333C19.3132 120.4 19.469 120.46 19.6168 120.514H21.4922C21.5134 120.425 21.5332 120.338 21.5517 120.25C21.5649 120.194 21.5768 120.139 21.5873 120.084C21.6045 120.011 21.619 119.937 21.6335 119.865C23.3981 111.232 20.257 104.584 16.3648 99.9314C16.3542 99.9156 16.341 99.9011 16.3265 99.8851C14.9724 98.271 13.5271 96.8972 12.169 95.766L11.4523 97.9146L11.1792 94.9714C8.82071 93.1409 6.88454 92.1021 6.40941 91.8579C6.33527 91.8197 6.29712 91.8013 6.29712 91.8013Z" fill="url(#paint6_linear_951_6577)"/>
</g>
</g>
</g>
</g>
</g>
</g>
<g id="Group_247">
<g id="Group_248">
<g id="Group_249">
<g id="Group_250">
<g id="Group_251">
<g id="Group_252">
<g id="Group_253">
<path id="Vector_63" d="M6.23242 91.8355L6.30119 91.9623L10.5629 99.8034L10.6393 99.942L11.8008 102.08L11.8405 102.151L15.5452 108.967L15.5504 108.976L21.5873 120.084L21.6784 120.25L21.8222 120.514H21.9859L21.8434 120.25L21.6335 119.865L15.6758 108.904L15.5649 108.7L6.40937 91.8581L6.35922 91.7657L6.23242 91.8355Z" fill="white"/>
</g>
</g>
</g>
</g>
</g>
</g>
</g>
<g id="Group_254">
<g id="Group_255">
<g id="Group_256">
<g id="Group_257">
<g id="Group_258">
<g id="Group_259">
<path id="Vector_64" d="M6.92495 99.0881L6.85913 99.1954L11.7929 102.221L11.8587 102.114L6.92495 99.0881Z" fill="white"/>
</g>
</g>
</g>
</g>
</g>
</g>
<g id="Group_260">
<g id="Group_261">
<g id="Group_262">
<g id="Group_263">
<g id="Group_264">
<g id="Group_265">
<path id="Vector_65" d="M6.81069 97.4992L6.74487 97.6066L10.6122 99.9785L10.678 99.8712L6.81069 97.4992Z" fill="white"/>
</g>
</g>
</g>
</g>
</g>
</g>
<g id="Group_266">
<g id="Group_267">
<g id="Group_268">
<g id="Group_269">
<g id="Group_270">
<g id="Group_271">
<path id="Vector_66" d="M16.1345 109.538L16.8462 100.49L16.7073 100.48L15.9954 109.528L16.1345 109.538Z" fill="white"/>
</g>
</g>
</g>
</g>
</g>
</g>
<g id="Group_272" opacity="0.5">
<g id="Group_273">
<g id="Group_274">
<g id="Group_275">
<g id="Group_276">
<g id="Group_277">
<path id="Vector_67" d="M22.3897 122.318C22.3897 122.318 18.0662 124.645 11.5625 121.214L13.5568 120.137L10.2257 120.445C7.674 118.852 4.83485 116.369 1.82323 112.566L2.58437 112.155L1.57447 112.248C1.06639 111.598 0.553287 110.909 0.0358887 110.18C0.0358887 110.18 1.87929 109.919 4.54293 110.087L5.99824 111.856L5.52346 110.167C10.9808 110.705 19.0107 113.129 22.3897 122.318Z" fill="url(#paint7_linear_951_6577)"/>
</g>
</g>
</g>
</g>
</g>
</g>
<g id="Group_278">
<g id="Group_279">
<g id="Group_280">
<g id="Group_281">
<g id="Group_282">
<g id="Group_283">
<g id="Group_284">
<path id="Vector_68" d="M0.0651589 110.119L0 110.245L22.6681 121.95L22.7333 121.824L0.0651589 110.119Z" fill="white"/>
</g>
</g>
</g>
</g>
</g>
</g>
</g>
<g id="Group_285">
<g id="Group_286">
<g id="Group_287">
<g id="Group_288">
<g id="Group_289">
<g id="Group_290">
<path id="Vector_69" d="M5.93066 113.215L2.79858 113.704L2.81896 113.834L5.95104 113.345L5.93066 113.215Z" fill="white"/>
</g>
</g>
</g>
</g>
</g>
</g>
<g id="Group_291">
<g id="Group_292">
<g id="Group_293">
<g id="Group_294">
<g id="Group_295">
<g id="Group_296">
<path id="Vector_70" d="M7.47464 113.991L3.83643 114.838L3.86633 114.966L7.50455 114.12L7.47464 113.991Z" fill="white"/>
</g>
</g>
</g>
</g>
</g>
</g>
</g>
<g id="Group_297">
<g id="Group_298">
<g id="Group_299">
<path id="Vector_71" d="M59.9489 126.32H20.3763C19.4067 126.32 18.6208 125.533 18.6208 124.564V97.6241C18.6208 96.6544 19.4069 95.8686 20.3763 95.8686H59.9489C60.9186 95.8686 61.7044 96.6546 61.7044 97.6241V124.564C61.7044 125.533 60.9186 126.32 59.9489 126.32Z" fill="url(#paint8_linear_951_6577)"/>
</g>
</g>
</g>
<g id="Group_300">
<g id="Group_301">
<g id="Group_302">
<g id="Group_303">
<path id="Vector_72" d="M60.3981 99.0297V123.16C60.3981 124.181 59.5701 125.01 58.5486 125.01H55.7572V98.7432H20.9986C20.567 98.7432 20.217 98.3932 20.217 97.9618C20.217 97.5302 20.567 97.1804 20.9986 97.1804H58.5486C59.5699 97.1802 60.3981 98.0084 60.3981 99.0297Z" fill="white"/>
</g>
</g>
</g>
</g>
<g id="Group_304">
<g id="Group_305">
<g id="Group_306">
<path id="Vector_73" d="M49.8401 96.2648C49.8782 96.3114 49.9162 96.3579 49.9529 96.4056C51.0319 97.8014 51.5028 99.5343 51.2782 101.285C51.0549 103.036 50.1642 104.594 48.7671 105.674C45.8855 107.901 41.7283 107.37 39.5002 104.487C38.4211 103.091 37.9489 101.359 38.1736 99.6083C38.3896 97.9198 39.2278 96.4086 40.5412 95.335C40.5891 95.2957 40.6369 95.259 40.6858 95.2212C43.5199 93.0284 47.5869 93.5088 49.8401 96.2648Z" fill="#F49B51"/>
</g>
</g>
</g>
<g id="Group_307">
<g id="Group_308">
<g id="Group_309">
<path id="Vector_74" d="M46.8036 92.5067C42.4191 91.3584 37.9341 93.9828 36.7854 98.3691C35.637 102.754 38.2611 107.24 42.6478 108.387C47.0323 109.536 51.5189 106.912 52.666 102.525C53.8144 98.1404 51.1899 93.6552 46.8036 92.5067ZM51.1174 102.12C50.6706 103.827 49.5855 105.258 48.0614 106.149C46.5389 107.04 44.7611 107.286 43.0527 106.839C39.5298 105.916 37.4125 102.299 38.3359 98.7742C38.7828 97.0677 39.8663 95.6363 41.3904 94.7454C42.8595 93.8857 44.568 93.6271 46.2203 94.012C46.2805 94.0259 46.3387 94.0413 46.3987 94.0571C49.8654 94.9633 51.9676 98.4778 51.1602 101.945C51.1464 102.003 51.1326 102.062 51.1174 102.12Z" fill="#FCC659"/>
</g>
</g>
</g>
<g id="Group_310">
<path id="Vector_75" d="M32.6969 86.1104C28.1662 85.9867 24.3935 89.5601 24.2697 94.0926C24.146 98.6233 27.7194 102.398 32.2519 102.52C36.7827 102.644 40.5571 99.0701 40.6793 94.5376C40.8028 90.0069 37.2294 86.2342 32.6969 86.1104ZM39.0787 94.4946C39.0305 96.2582 38.2984 97.8979 37.0161 99.1113C35.7356 100.325 34.0598 100.968 32.2945 100.919C28.6541 100.82 25.7716 97.7774 25.8713 94.1354C25.9195 92.3718 26.65 90.7321 27.9322 89.5187C29.1679 88.3482 30.7733 87.7088 32.4698 87.7088C32.5316 87.7088 32.5918 87.7106 32.6538 87.7122C36.2358 87.8084 39.0803 90.7545 39.0803 94.3141C39.0805 94.3745 39.0805 94.4345 39.0787 94.4946Z" fill="#FCC659"/>
</g>
<g id="Group_311">
<g id="Group_312">
<g id="Group_313">
<path id="Vector_76" d="M37.5876 90.1317C37.6258 90.1783 37.6638 90.2249 37.7005 90.2725C38.7795 91.6684 39.2503 93.4013 39.0258 95.1524C38.8024 96.9025 37.9118 98.4608 36.5147 99.5409C33.6331 101.768 29.4758 101.237 27.2477 98.3541C26.1687 96.9582 25.6964 95.2264 25.9212 93.4752C26.1372 91.7867 26.9753 90.2756 28.2888 89.2019C28.3368 89.1627 28.3844 89.126 28.4333 89.0882C31.2675 86.8955 35.3345 87.3759 37.5876 90.1317Z" fill="#F49B51"/>
</g>
</g>
</g>
<g id="Group_314">
<path id="Vector_77" d="M37.8164 88.2652C37.1822 87.7095 36.4698 87.2582 35.699 86.9238L35.7753 86.7476C36.5643 87.0899 37.2936 87.5517 37.943 88.1209L37.8164 88.2652Z" fill="white"/>
</g>
<g id="Group_315">
<path id="Vector_78" d="M37.1068 101.262L36.9995 101.103C39.1724 99.6399 40.5119 97.2051 40.5828 94.59C40.627 92.9653 40.1906 91.3845 39.3211 90.0189L39.4832 89.9157C40.3733 91.3137 40.8199 92.932 40.7748 94.5952C40.7024 97.2723 39.3311 99.7645 37.1068 101.262Z" fill="white"/>
</g>
<g id="Group_316">
<path id="Vector_79" d="M38.7473 92.6306C38.7328 92.5749 38.7168 92.5194 38.7009 92.4639C38.1788 90.6586 36.9021 89.168 35.1968 88.3695L35.2727 88.2072C37.0248 89.0278 38.3366 90.5594 38.8718 92.4096C38.8897 92.4716 38.906 92.5284 38.9208 92.5858L38.7473 92.6306Z" fill="white"/>
</g>
<g id="Group_317">
<path id="Vector_80" d="M35.1967 88.3695C33.8254 87.7271 32.2643 87.5834 30.8 87.9644L30.7549 87.7912C32.2593 87.3993 33.8636 87.5475 35.2725 88.2071L35.1967 88.3695Z" fill="white"/>
</g>
<g id="Group_318">
<path id="Vector_81" d="M38.2125 97.6615L38.0581 97.5709C38.4972 96.8237 38.7799 96.0156 38.8979 95.1694L39.0752 95.1943C38.9539 96.064 38.6636 96.8941 38.2125 97.6615Z" fill="white"/>
</g>
<g id="Group_319">
<g id="Group_320">
<g id="Group_321">
<path id="Vector_82" d="M57.1959 128.84H20.3228C19.3829 128.84 18.6208 128.078 18.6208 127.138V100.476C18.6208 99.5357 19.3829 98.7737 20.3228 98.7737H57.1959C58.1358 98.7737 58.8979 99.5355 58.8979 100.476V127.138C58.8979 128.078 58.136 128.84 57.1959 128.84Z" fill="url(#paint9_linear_951_6577)"/>
</g>
</g>
</g>
<g id="Group_322">
<g id="Group_323">
<g id="Group_324">
<path id="Vector_83" d="M33.9984 127.658H21.8841C20.9723 127.658 20.2307 126.916 20.2307 126.004V123.673H20.4227V126.004C20.4227 126.81 21.0784 127.466 21.8841 127.466H33.9984V127.658Z" fill="white"/>
</g>
</g>
<g id="Group_325">
<g id="Group_326">
<path id="Vector_84" d="M40.6738 127.466H36.9399V127.658H40.6738V127.466Z" fill="white"/>
</g>
</g>
<g id="Group_327">
<g id="Group_328">
<path id="Vector_85" d="M57.2874 104.823H57.0954V101.609C57.0954 100.803 56.4398 100.148 55.634 100.148H39.8157V99.9559H55.634C56.5458 99.9559 57.2874 100.698 57.2874 101.609V104.823Z" fill="white"/>
</g>
</g>
<g id="Group_329">
<g id="Group_330">
<path id="Vector_86" d="M36.9724 99.9559H33.4043V100.148H36.9724V99.9559Z" fill="white"/>
</g>
</g>
<g id="Group_331">
<g id="Group_332">
<path id="Vector_87" d="M20.4225 116.586H20.2305V121.124H20.4225V116.586Z" fill="white"/>
</g>
</g>
</g>
<g id="Group_333">
<g id="Group_334">
<g id="Group_335">
<g id="Group_336">
<path id="Vector_88" d="M61.6555 107.633V116.129C61.6555 117.197 60.7915 118.061 59.724 118.061H52.374C50.024 118.061 48.1191 116.156 48.1191 113.806C48.1191 112.631 48.5953 111.567 49.3653 110.797C50.1352 110.027 51.1988 109.551 52.374 109.551H59.724C59.7777 109.551 59.8314 109.553 59.8853 109.559C60.8779 109.476 61.6555 108.645 61.6555 107.633Z" fill="url(#paint10_linear_951_6577)"/>
</g>
</g>
</g>
<g id="Group_337">
<g id="Group_338">
<g id="Group_339">
<g id="Group_340">
<g id="Group_341">
<path id="Vector_89" d="M53.3875 115.21C54.1628 114.435 54.1628 113.178 53.3875 112.403C52.6121 111.627 51.355 111.627 50.5797 112.403C49.8043 113.178 49.8043 114.435 50.5797 115.21C51.355 115.986 52.6121 115.986 53.3875 115.21Z" fill="white"/>
</g>
</g>
</g>
</g>
<g id="Group_342">
<g id="Group_343">
<g id="Group_344">
<g id="Group_345">
<path id="Vector_90" d="M51.9844 115.888V115.696C53.0263 115.696 53.8738 114.849 53.8738 113.807C53.8738 112.765 53.0262 111.917 51.9844 111.917V111.725C53.1322 111.725 54.0658 112.659 54.0658 113.807C54.0658 114.954 53.132 115.888 51.9844 115.888Z" fill="white"/>
</g>
</g>
</g>
<g id="Group_346">
<g id="Group_347">
<g id="Group_348">
<path id="Vector_91" d="M50.0948 113.807H49.9028C49.9028 113.251 50.1194 112.728 50.5125 112.335L50.6482 112.471C50.2913 112.828 50.0948 113.302 50.0948 113.807Z" fill="white"/>
</g>
</g>
</g>
</g>
</g>
</g>
<g id="Group_349">
<g id="Group_350">
<g id="Group_351">
<g id="Group_352">
<g id="Group_353">
<g id="Group_354">
<g id="Group_355">
<path id="Vector_92" d="M17.8365 115.436C16.8067 114.462 15.6354 113.606 14.3555 112.892L14.449 112.724C15.7429 113.446 16.9271 114.311 17.9685 115.297L17.8365 115.436Z" fill="white"/>
</g>
</g>
</g>
<g id="Group_356">
<g id="Group_357">
<g id="Group_358">
<path id="Vector_93" d="M12.2572 111.884C11.5591 111.598 10.8226 111.342 10.0681 111.124L10.1215 110.94C10.8826 111.16 11.6255 111.418 12.3299 111.706L12.2572 111.884Z" fill="white"/>
</g>
</g>
</g>
</g>
</g>
</g>
</g>
<g id="Group_359">
<g id="Group_360">
<path id="Vector_94" d="M60.02 58.6055C56.9079 57.7556 53.5877 57.6093 50.4224 58.2721C48.8398 58.595 47.2924 59.0966 45.8314 59.7859C44.3709 60.4729 42.9775 61.312 41.7173 62.3235C40.455 63.3304 39.3002 64.4757 38.3039 65.7483C37.3103 67.0225 36.4645 68.4118 35.7895 69.8798C35.6213 70.2467 35.4721 70.6225 35.3167 70.9952C35.1834 71.3761 35.0337 71.7518 34.9151 72.1376C34.671 72.907 34.4579 73.6864 34.3046 74.4796C34.2285 74.8761 34.1574 75.2737 34.1047 75.6741C34.091 75.7742 34.0757 75.874 34.0652 75.9745L34.0526 76.0821L34.0449 76.1486C34.0353 76.2372 34.0231 76.3257 34.0156 76.4145L32.5198 76.2632C33.1487 77.8573 33.9513 79.3038 34.8759 80.5714C35.5129 79.1351 36.3069 77.8487 37.2077 76.7372L35.7119 76.5859C35.7187 76.5044 35.7302 76.4233 35.739 76.342L35.7459 76.2811L35.7574 76.1824C35.7671 76.0903 35.7811 75.9987 35.7938 75.907C35.8418 75.5396 35.9075 75.1746 35.9772 74.8107C36.1174 74.0827 36.3142 73.3665 36.5381 72.6598C36.6466 72.3054 36.785 71.9612 36.9065 71.6111C37.0499 71.2697 37.186 70.9246 37.3404 70.5881C37.9597 69.2422 38.7348 67.9692 39.6453 66.8006C40.5587 65.634 41.6182 64.584 42.776 63.6599C43.9317 62.7313 45.2115 61.9623 46.5515 61.3313C47.892 60.6981 49.3118 60.2387 50.763 59.9425C53.6659 59.3339 56.7057 59.4693 59.5651 60.2485L60.02 58.6055Z" fill="url(#paint11_linear_951_6577)"/>
</g>
</g>
<g id="Group_361">
<g id="Group_362">
<path id="Vector_95" d="M44.2657 60.6223L44.1731 60.4689C44.6715 60.1683 45.1891 59.8873 45.7117 59.6336C47.0165 59.0033 48.4346 58.5171 49.9264 58.1883C51.309 57.8788 52.8027 57.7345 54.3626 57.7613C55.8173 57.7836 57.3022 57.99 58.7761 58.3749L58.7308 58.5483C57.2708 58.167 55.8001 57.9626 54.3597 57.9404C52.8129 57.9139 51.3345 58.0567 49.9653 58.3631C48.4867 58.689 47.0821 59.1706 45.7898 59.7948C45.2724 60.0462 44.7594 60.3245 44.2657 60.6223Z" fill="white"/>
</g>
<g id="Group_363">
<path id="Vector_96" d="M40.4438 63.6639L40.3132 63.5412C40.4764 63.3673 40.6506 63.2009 40.8193 63.0398C40.9164 62.947 41.0135 62.8544 41.1088 62.76C41.1933 62.686 41.2733 62.6155 41.3534 62.5449C41.5484 62.373 41.7501 62.195 41.9557 62.0273L42.0689 62.166C41.8661 62.3314 41.6657 62.5082 41.472 62.6791C41.3917 62.7498 41.3113 62.8207 41.2305 62.8909C41.1387 62.9821 41.0409 63.0756 40.9433 63.1691C40.776 63.3288 40.6035 63.4936 40.4438 63.6639Z" fill="white"/>
</g>
</g>
<g id="Group_364">
<g id="Group_365">
<path id="Vector_97" d="M34.896 80.7495L34.8038 80.625C33.9904 79.527 33.2846 78.3144 32.7056 77.0208L32.8691 76.9477C33.4209 78.1806 34.0891 79.3391 34.8563 80.3936C35.2754 79.4519 35.7718 78.554 36.3327 77.7225L36.4812 77.8227C35.8982 78.6869 35.3857 79.6237 34.958 80.6073L34.896 80.7495Z" fill="white"/>
</g>
</g>
<g id="Group_366">
<path id="Vector_98" d="M34.105 76.4206L33.9263 76.4086C33.9275 76.3903 34.0547 74.5657 34.5705 72.973L34.7408 73.0282C34.232 74.5992 34.1063 76.4025 34.105 76.4206Z" fill="white"/>
</g>
<g id="Group_367">
<g id="Group_368">
<g id="Group_369">
<path id="Vector_99" d="M21.6371 112.59C17.2504 113.73 14.619 118.211 15.7595 122.599C16.8994 126.986 21.3808 129.619 25.7688 128.477C30.1555 127.337 32.7885 122.856 31.6464 118.468C30.5063 114.081 26.0254 111.45 21.6371 112.59ZM30.0972 118.871C30.541 120.579 30.2932 122.357 29.3986 123.879C28.5057 125.4 27.0743 126.484 25.3653 126.928C21.8405 127.844 18.2263 125.722 17.31 122.196C16.8662 120.488 17.1125 118.71 18.0071 117.188C18.869 115.72 20.2335 114.66 21.8631 114.189C21.9226 114.171 21.9808 114.156 22.0408 114.141C25.5085 113.238 29.0596 115.278 30.0485 118.697C30.0654 118.755 30.0822 118.813 30.0972 118.871Z" fill="#FCC659"/>
</g>
</g>
<g id="Group_370">
<g id="Group_371">
<path id="Vector_100" d="M30.0488 118.697C30.0655 118.755 30.0823 118.813 30.0973 118.871C30.5411 120.578 30.2933 122.357 29.3987 123.879C28.5057 125.401 27.0744 126.484 25.3654 126.928C21.8405 127.844 18.2262 125.722 17.31 122.195C16.8662 120.488 17.1124 118.71 18.007 117.188C18.869 115.72 20.2335 114.66 21.8632 114.188C21.9227 114.171 21.9809 114.156 22.0409 114.141C25.5085 113.238 29.0597 115.277 30.0488 118.697Z" fill="#F49B51"/>
</g>
</g>
<g id="Group_372">
<g id="Group_373">
<g id="Group_374">
<path id="Vector_101" d="M29.4518 126.519L29.3276 126.39C31.4429 124.355 32.2981 121.328 31.5595 118.49C31.3011 117.496 30.8659 116.574 30.2659 115.751L30.4106 115.646C31.024 116.487 31.4689 117.429 31.7329 118.445C32.4877 121.345 31.6138 124.439 29.4518 126.519ZM28.3725 113.892C27.5974 113.348 26.7421 112.946 25.8303 112.698L25.8774 112.525C26.8092 112.779 27.6834 113.189 28.4753 113.746L28.3725 113.892Z" fill="white"/>
</g>
</g>
</g>
<g id="Group_375">
<g id="Group_376">
<path id="Vector_102" d="M17.853 115.945C18.4596 116.254 18.8767 116.727 19.162 117.319C19.4473 116.727 19.8662 116.251 20.4726 115.943C19.866 115.635 19.4471 115.162 19.162 114.57C18.8767 115.162 18.4596 115.637 17.853 115.945Z" fill="#FFE6A6"/>
</g>
<g id="Group_377">
<path id="Vector_103" d="M20.5356 118.079C20.8881 118.258 21.1306 118.533 21.2962 118.877C21.4621 118.533 21.7055 118.256 22.0579 118.077C21.7055 117.898 21.4621 117.624 21.2962 117.279C21.1304 117.623 20.8881 117.9 20.5356 118.079Z" fill="#FFE6A6"/>
</g>
</g>
<g id="Group_378">
<g id="Group_379">
<g id="Group_380">
<path id="Vector_104" d="M30.0106 118.894C29.9958 118.836 29.9793 118.779 29.9627 118.722C29.4419 116.921 28.1651 115.431 26.46 114.632L26.5359 114.47C28.288 115.29 29.5996 116.822 30.1348 118.672C30.1516 118.731 30.1686 118.79 30.1838 118.848L30.0106 118.894Z" fill="white"/>
</g>
</g>
<g id="Group_381">
<g id="Group_382">
<path id="Vector_105" d="M26.4602 114.632C25.0889 113.99 23.5275 113.847 22.0634 114.227L22.0183 114.054C23.5225 113.662 25.127 113.81 26.5361 114.47L26.4602 114.632Z" fill="white"/>
</g>
</g>
<g id="Group_383">
<g id="Group_384">
<path id="Vector_106" d="M17.2233 122.218C16.773 120.486 17.024 118.683 17.9296 117.142L18.084 117.233C17.2025 118.733 16.9582 120.487 17.3965 122.173L17.2233 122.218Z" fill="white"/>
</g>
</g>
<g id="Group_385">
<g id="Group_386">
<path id="Vector_107" d="M29.4759 123.925L29.3215 123.834C29.7607 123.087 30.0433 122.279 30.1613 121.432L30.3386 121.457C30.2172 122.327 29.927 123.157 29.4759 123.925Z" fill="white"/>
</g>
</g>
</g>
</g>
<g id="Group_387">
<g id="Group_388">
<path id="Vector_108" d="M26.5449 89.7258C27.1515 90.0338 27.5688 90.5068 27.8539 91.099C28.1392 90.5068 28.5581 90.0313 29.1645 89.7233C28.5579 89.4152 28.139 88.9422 27.8539 88.35C27.5686 88.9421 27.1513 89.4175 26.5449 89.7258Z" fill="#FFE6A6"/>
</g>
<g id="Group_389">
<path id="Vector_109" d="M35.3853 97.2547C35.7377 97.4338 35.9802 97.7086 36.1459 98.0528C36.3117 97.7086 36.5551 97.4324 36.9075 97.2533C36.5551 97.0742 36.3117 96.7995 36.1459 96.4553C35.9802 96.7995 35.7377 97.0756 35.3853 97.2547Z" fill="#FFE6A6"/>
</g>
</g>
<g id="Group_390">
<g id="Group_391">
<path id="Vector_110" d="M106.542 123.219C107.149 123.527 107.566 124 107.851 124.592C108.136 124 108.555 123.525 109.162 123.217C108.555 122.909 108.136 122.436 107.851 121.843C107.566 122.436 107.149 122.911 106.542 123.219Z" fill="#FFE6A6"/>
</g>
</g>
<g id="Group_392">
<path id="Vector_111" d="M105.656 127.33C106.009 127.51 106.251 127.784 106.417 128.129C106.583 127.784 106.826 127.508 107.179 127.329C106.826 127.15 106.583 126.875 106.417 126.531C106.251 126.875 106.009 127.151 105.656 127.33Z" fill="#FFE6A6"/>
</g>
</g>
</g>
<g id="Character">
<g id="Chartacter_1_">
<g id="Bottom_3_">
<g id="Group_393">
<path id="Vector_112" d="M81.0096 117.891L80.2588 111.701L87.3619 112.07C87.3619 112.07 87.3004 115.437 87.2271 117.343C87.1839 118.47 88.73 120.54 88.73 120.54C88.73 120.54 85.4206 122.372 83.6263 121.772C81.8319 121.171 80.8561 118.962 80.8744 118.477C80.8927 117.992 81.0096 117.891 81.0096 117.891Z" fill="#FFBDA7"/>
<path id="Vector_113" d="M98.2347 127.341C98.3467 127.338 98.5503 128.487 97.9568 128.996C97.2721 129.584 95.2395 130.578 92.5074 130.332C89.7752 130.087 88.2775 129.344 87.1624 128.525C86.0476 127.705 84.4848 126.549 83.2456 126.333C82.0949 126.133 80.8377 125.686 80.462 125.367C80.0859 125.047 80.0928 123.575 80.0928 123.575L98.2347 127.341Z" fill="#263238"/>
<path id="XMLID_309_" d="M81.0077 117.88C81.0077 117.88 80.6662 117.894 80.606 118.237C80.5345 118.645 80.4791 119.826 80.3191 120.497C80.0968 121.429 79.9862 123.33 80.1587 124.079C80.3312 124.828 82.212 125.294 83.4159 125.682C84.6462 126.078 86.0807 126.929 87.3451 127.844C88.6538 128.792 91.3756 129.735 93.1496 129.669C95.2484 129.589 97.5931 128.88 98.1074 127.953C98.7438 126.805 99.1928 125.481 96.0397 124.227C95.4427 123.99 93.3386 122.908 92.6207 122.514C90.6784 121.449 89.3047 120.459 88.3669 118.497C88.2573 118.267 88.1419 118.013 87.9013 117.902C87.7167 117.817 87.4979 117.837 87.2947 117.87C86.7782 117.954 84.7177 118.284 84.2514 118.51C83.8394 118.709 83.2531 118.944 83.277 119.444C83.2853 119.619 83.3444 119.787 83.4094 119.949C83.4498 120.05 83.483 120.186 83.3893 120.249C83.3008 120.309 83.1792 120.247 83.0958 120.182C82.7616 119.919 82.5124 119.576 82.2286 119.265C82.0765 119.099 81.9112 118.94 81.7218 118.811C81.5497 118.693 81.3329 118.639 81.1791 118.504C80.9849 118.335 81.0236 118.114 81.0077 117.88Z" fill="#455A64"/>
<path id="Vector_114" d="M87.3453 127.844C86.7899 127.442 86.2012 127.055 85.6118 126.71V126.708C85.6118 126.708 89.335 128.677 90.7858 127.686C91.7204 127.048 91.2452 126.322 91.2151 126.086C91.185 125.85 94.4993 124.078 95.4218 123.946C95.6839 124.072 95.903 124.173 96.0406 124.227C99.1938 125.481 98.7444 126.805 98.108 127.953C97.5937 128.88 95.9027 129.643 93.1895 129.727C91.4149 129.782 88.654 128.791 87.3453 127.844Z" fill="#37474F"/>
<path id="Vector_115" d="M90.9384 125.405C92.8956 126.069 92.0801 126.433 91.5402 126.522C91.0003 126.611 87.6891 124.932 85.658 123.522C83.5394 122.052 82.1823 120.415 81.3956 119.875C81.1025 119.674 80.7855 119.426 80.5034 119.193C80.5425 118.793 80.5729 118.429 80.6064 118.237C80.6666 117.894 81.0081 117.88 81.0081 117.88C81.0243 118.114 80.9853 118.335 81.1799 118.505C81.3337 118.64 81.5504 118.694 81.7226 118.812C81.912 118.941 82.0772 119.1 82.2293 119.266C82.5131 119.576 82.7623 119.919 83.0966 120.182C84.8474 122.137 88.9809 124.741 90.9384 125.405Z" fill="#37474F"/>
<g id="Group_394">
<g id="Group_395">
<path id="Vector_116" d="M91.3937 126.261C91.3509 126.262 91.3076 126.25 91.271 126.224C91.187 126.164 91.1715 126.052 91.2365 125.973C91.7643 125.33 94.3084 123.765 95.737 123.867C95.8428 123.874 95.9216 123.961 95.913 124.059C95.9047 124.158 95.8231 124.229 95.707 124.225C94.3734 124.132 91.9579 125.681 91.5399 126.191C91.5036 126.235 91.4494 126.259 91.3937 126.261Z" fill="#263238"/>
</g>
<g id="Group_396">
<path id="Vector_117" d="M89.676 125.341C89.6331 125.342 89.5899 125.33 89.5536 125.304C89.4696 125.244 89.4544 125.132 89.519 125.053C90.0462 124.411 92.5899 122.847 94.0196 122.948C94.1254 122.955 94.2042 123.041 94.1952 123.14C94.1869 123.238 94.0974 123.312 93.9892 123.305C92.6549 123.215 90.2401 124.761 89.8222 125.271C89.7862 125.315 89.7316 125.339 89.676 125.341Z" fill="#263238"/>
</g>
<g id="Group_397">
<path id="Vector_118" d="M87.9595 124.472C87.9166 124.473 87.8734 124.462 87.8371 124.435C87.7531 124.375 87.7383 124.263 87.8026 124.184C88.3304 123.541 90.8745 121.975 92.3031 122.079C92.4089 122.086 92.4877 122.172 92.4787 122.271C92.4704 122.369 92.3826 122.443 92.2727 122.436C90.9381 122.344 88.5236 123.892 88.1057 124.402C88.0698 124.446 88.0151 124.47 87.9595 124.472Z" fill="#263238"/>
</g>
<g id="Group_398">
<path id="Vector_119" d="M86.3633 123.469C86.3204 123.47 86.2772 123.458 86.2409 123.432C86.1569 123.372 86.1421 123.259 86.2064 123.181C86.7335 122.538 89.2838 120.973 90.7069 121.076C90.8127 121.083 90.8915 121.17 90.8829 121.268C90.8746 121.366 90.7861 121.44 90.6769 121.433C89.3443 121.342 86.9278 122.889 86.5099 123.398C86.4736 123.443 86.4189 123.467 86.3633 123.469Z" fill="#263238"/>
</g>
<g id="Group_399">
<path id="Vector_120" d="M84.7994 122.464C84.7579 122.465 84.7154 122.454 84.6795 122.429C84.5944 122.37 84.5775 122.257 84.6407 122.178C85.3653 121.268 88.0393 119.943 89.4673 120.045C89.573 120.052 89.6519 120.139 89.6432 120.237C89.6349 120.336 89.5457 120.407 89.4372 120.403C88.1517 120.312 85.5906 121.585 84.9477 122.392C84.9111 122.438 84.8554 122.462 84.7994 122.464Z" fill="#263238"/>
</g>
</g>
</g>
<g id="Group_400">
<path id="Vector_121" d="M67.0221 121.465L68.562 115.569L61.3224 114.55L61.0766 120.239C61.0766 120.239 60.3362 122.279 60.7873 123.021C61.2387 123.763 66.0518 124.543 66.4929 124.049C66.9343 123.555 67.0221 121.465 67.0221 121.465Z" fill="#FFBDA7"/>
<path id="Vector_122" d="M66.4568 134.284C66.2463 136.107 65.8644 137.286 65.0759 138.274C64.2874 139.262 62.8833 139.43 61.4934 138.942C60.1035 138.454 58.3451 137.39 58.0198 135.756C57.6949 134.121 57.8293 133.044 58.232 131.379L66.4568 134.284Z" fill="#263238"/>
<path id="XMLID_303_" d="M61.0765 120.239C60.4954 120.209 60.6441 122.707 60.1892 125.137C59.7014 127.741 58.7561 128.727 58.3295 130.859C57.8425 133.295 57.9351 134.422 58.8421 136.042C59.7488 137.662 63.1477 139.559 64.9639 137.62C66.4444 136.04 66.5971 134.105 66.5913 131.612C66.5854 129.035 66.5584 127.22 66.7717 125.291C66.9757 123.447 67.5125 121.806 67.0196 121.538C66.9674 121.806 66.9127 122.148 66.8585 122.411C66.817 122.612 66.7098 123.611 66.3849 123.581C66.3666 123.34 66.3832 123.12 66.4126 122.88C66.4385 122.672 66.4298 122.441 66.2833 122.262C66.1357 122.081 65.5819 121.856 65.3489 121.786C64.7841 121.617 63.7748 121.405 63.1979 121.288C62.911 121.229 62.622 121.182 62.3323 121.149C62.0973 121.123 61.82 121.106 61.594 121.152C61.4554 121.18 61.3247 121.251 61.268 121.366C61.2262 121.451 61.2286 121.55 61.2238 121.645C61.2155 121.817 61.1826 121.985 61.1263 122.145C61.1014 122.216 61.0402 122.299 60.9583 122.271C60.8916 122.248 60.8688 122.17 60.8712 122.109C60.8836 121.809 60.9372 121.597 60.97 121.251C60.9853 121.091 61.0253 120.875 61.0357 120.714C61.0471 120.555 61.0568 120.397 61.0765 120.239Z" fill="#455A64"/>
<path id="Vector_123" d="M58.4958 130.17C58.4218 130.521 57.9641 132.848 58.671 133.364C59.436 133.923 59.9597 132.113 59.9597 132.113C59.9597 132.113 61.8321 131.838 64.4703 133.211C64.3133 133.579 64.6659 134.897 65.417 134.72C66.163 134.544 66.5857 131.862 66.5909 131.827C66.5864 134.216 66.4012 136.086 64.9639 137.62C63.1477 139.559 59.7488 137.662 58.8421 136.042C57.9351 134.422 57.8425 133.295 58.3295 130.859C58.3786 130.615 58.4349 130.388 58.4958 130.17Z" fill="#37474F"/>
<path id="Vector_124" d="M60.1626 132.298C60.107 133.194 59.1232 132.768 59.1419 131.497C59.1605 130.225 60.09 127.316 60.1892 125.137C60.3576 122.145 60.4955 120.209 61.0766 120.239C61.0728 120.269 61.0721 120.3 61.069 120.33L60.931 121.576C60.9055 121.756 60.8802 121.916 60.8719 122.109C60.7679 123.936 60.744 127.487 60.4844 129.138C60.2252 130.789 60.2183 131.403 60.1626 132.298Z" fill="#37474F"/>
<path id="Vector_125" d="M64.1597 133.148C64.393 132.291 64.5821 131.715 64.8655 130.07C65.1469 128.436 66.1238 125.166 66.6077 123.407C66.7643 123.119 66.8293 122.557 66.8593 122.411C66.9098 122.166 66.961 121.854 67.0097 121.595C67.0146 121.577 67.0194 121.559 67.0232 121.541C67.3785 121.74 67.2562 123.157 67.0681 123.89C66.8801 124.623 66.6502 125.409 66.4152 126.461C65.8141 128.534 65.7567 131.646 65.3692 132.839C64.9817 134.032 63.9267 134.006 64.1597 133.148Z" fill="#37474F"/>
<g id="Group_401">
<g id="Group_402">
<path id="Vector_126" d="M64.523 133.291C64.4964 133.285 64.4705 133.275 64.4459 133.261C64.4259 133.248 62.3706 132.038 60.0055 132.304C59.889 132.317 59.7749 132.242 59.7497 132.137C59.7241 132.032 59.7978 131.936 59.9136 131.923C62.4438 131.638 64.5718 132.894 64.662 132.948C64.7643 133.009 64.7995 133.129 64.7397 133.216C64.6945 133.281 64.607 133.309 64.523 133.291Z" fill="#263238"/>
</g>
<g id="Group_403">
<path id="Vector_127" d="M65.102 131.404C65.0782 131.398 65.0547 131.39 65.0315 131.377C65.0087 131.365 62.6938 130.093 60.0595 130.308C59.943 130.316 59.831 130.24 59.8088 130.134C59.7871 130.029 59.8645 129.935 59.9813 129.925C62.7674 129.699 65.1338 131.001 65.2337 131.056C65.3385 131.115 65.3782 131.234 65.3226 131.323C65.279 131.392 65.1891 131.422 65.102 131.404Z" fill="#263238"/>
</g>
<g id="Group_404">
<path id="Vector_128" d="M60.2908 128.477C60.2102 128.46 60.1394 128.403 60.1148 128.326C60.0823 128.222 60.1473 128.121 60.261 128.101C62.8954 127.64 65.4028 129.124 65.5086 129.188C65.6116 129.249 65.6465 129.369 65.5864 129.455C65.5262 129.541 65.3935 129.559 65.2929 129.5C65.269 129.486 62.8328 128.046 60.3817 128.479C60.3516 128.484 60.3208 128.483 60.2908 128.477Z" fill="#263238"/>
</g>
<g id="Group_405">
<path id="Vector_129" d="M60.5256 126.752C60.4461 126.735 60.3767 126.679 60.3511 126.605C60.3158 126.5 60.3791 126.398 60.4921 126.377C63.3919 125.82 65.7476 127.395 65.8465 127.462C65.945 127.529 65.972 127.65 65.9056 127.733C65.8396 127.815 65.7034 127.827 65.6076 127.76C65.5858 127.745 63.319 126.235 60.6203 126.753C60.5885 126.759 60.5564 126.758 60.5256 126.752Z" fill="#263238"/>
</g>
<g id="Group_406">
<path id="Vector_130" d="M60.7969 124.814C60.7188 124.798 60.6497 124.744 60.6234 124.67C60.5868 124.566 60.648 124.464 60.761 124.44C63.4803 123.88 66.0435 125.512 66.151 125.583C66.2516 125.648 66.2806 125.769 66.217 125.853C66.1541 125.937 66.0213 125.953 65.9204 125.886C65.8955 125.87 63.4192 124.294 60.8944 124.815C60.8619 124.821 60.8287 124.821 60.7969 124.814Z" fill="#263238"/>
</g>
</g>
</g>
<g id="Group_407">
<path id="XMLID_300_" d="M65.0095 59.4491C63.8484 73.8723 63.1449 93.6275 63.1449 93.6275C63.0416 94.7226 62.2801 96.5972 61.745 102C61.1805 107.699 61.2721 115.749 61.2721 115.749C61.2721 115.749 65.0917 117.895 68.2432 116.832C68.2432 116.832 71.2176 104.184 72.8568 97.4714C74.4078 91.1187 76.5844 81.44 76.5844 81.44L78.4255 91.0105C78.4255 91.0105 78.1939 95.1222 78.3024 97.9999C78.4286 101.347 80.4777 114.159 80.4777 114.159C80.4777 114.159 84.2448 116.617 87.5234 114.062C87.5234 114.062 88.2507 95.2836 88.3568 91.2583C88.5656 83.3623 89.5248 68.0275 88.5424 57.8414L65.0095 59.4491Z" fill="#263238"/>
<path id="XMLID_272_" d="M76.585 81.4396L78.2421 71.1802C78.2421 71.1802 82.0596 70.6274 84.0216 68.8334C84.0216 68.8334 82.7516 71.2106 79.1498 72.128L77.5044 81.4662L78.426 91.0097L76.585 81.4396Z" fill="#1B2327"/>
</g>
<path id="Vector_131" d="M61.1855 115.908C61.9719 116.985 65.4742 118.071 68.2973 117.101L68.7933 114.883C66.6623 115.565 62.9671 114.9 61.2339 113.493L61.1855 115.908Z" fill="#455A64"/>
<path id="Vector_132" d="M80.4606 114.497C81.4164 115.417 84.9612 115.882 87.5775 114.426L87.6923 112.153C85.7085 113.203 82.0635 113.248 80.1201 112.17L80.4606 114.497Z" fill="#455A64"/>
</g>
<g id="Top_1_">
<g id="Arm_6_">
<path id="Vector_133" d="M84.3105 32.2647C87.2847 32.6833 87.8049 33.4351 92.2498 37.1891C95.8759 40.2513 97.8137 41.5479 97.8137 41.5479C97.8137 41.5479 101.594 46.0354 101.758 46.9154C101.923 47.7955 102.256 49.7872 100.52 50.9238C99.4131 51.648 98.1057 51.0171 97.4168 51.0932C95.9764 51.2522 95.0756 50.0883 94.4707 49.7378C90.377 47.3655 87.088 45.1961 87.088 45.1961L84.3105 32.2647Z" fill="url(#paint12_linear_951_6577)"/>
<g id="Group_408">
<g id="Group_409">
<path id="Vector_134" d="M111.054 29.3657C110.441 29.0121 110.338 29.5783 110.131 29.6564C110.131 29.6564 110.747 28.9253 109.69 28.3152C109.038 27.9388 108.736 28.8493 108.72 28.7293C108.713 28.6757 109.474 26.8164 110.091 25.2374C110.676 23.7382 110.146 23.321 109.902 23.2056C109.682 23.1015 109.413 23.1938 108.867 24.2865C108.329 25.3636 106.713 28.6477 106.348 29.3273C105.984 30.0066 105.719 30.3266 105.467 29.4525C105.232 28.6325 105.017 27.8565 104.535 27.3608C103.727 26.5319 103.111 26.909 103.245 27.5506C103.435 28.4559 103.437 29.5192 103.585 30.9993C103.662 31.7712 103.689 32.4957 103.785 33.0242C104.082 34.8798 103.013 35.7463 101.746 37.2244C100.71 38.4332 99.6394 39.4256 97.256 41.857C94.9953 44.1626 95.1581 49.5097 97.4357 50.4199C100.049 51.4641 101.066 50.076 102.91 47.1609C104.473 44.6894 106.613 40.1992 107.196 39.1574C107.778 38.1155 107.99 37.4812 108.811 36.9624C109.926 36.2569 110.42 35.5127 111.028 34.4124C111.319 33.8867 111.872 32.9191 112.23 32.1366C112.579 31.3719 112.62 30.7995 112.172 30.4725C111.563 30.0276 111.397 30.7024 111.334 30.6322C111.273 30.5617 111.927 29.8693 111.054 29.3657Z" fill="#FFBDA7"/>
</g>
<path id="Vector_135" d="M110.259 33.2781C110.05 32.9819 110.247 32.4364 110.247 32.4364C110.247 32.4364 110.071 32.7527 109.757 32.8626C109.443 32.9725 109.002 32.7676 108.893 32.4872C108.785 32.2072 109.006 31.7755 109.006 31.7755C109.006 31.7755 108.816 31.9777 108.485 32.0704C108.153 32.163 107.853 31.9559 107.724 31.5529C107.596 31.1498 108.055 30.1405 108.533 29.2183C108.533 29.2183 108.153 29.5933 107.806 30.2494C107.54 30.7534 107.366 31.1111 107.389 31.5035C107.129 31.1647 106.8 30.8889 106.414 30.7133C107.265 31.5304 107.891 33.7634 107.548 35.2474C108.136 34.3576 108.183 33.2373 107.831 32.3082C108.1 32.4547 108.428 32.4288 108.61 32.2418C108.605 32.4575 108.582 32.7731 109.077 33.0655C109.571 33.358 109.935 33.0714 109.935 33.0714C109.935 33.0714 109.835 33.407 110.276 33.63C110.717 33.8526 111.064 33.6051 111.303 33.1751C111.063 33.5298 110.469 33.5743 110.259 33.2781Z" fill="#F0997A"/>
</g>
</g>
<g id="Chest_1_">
<path id="Chest_4_" d="M71.4298 31.3271C67.6821 32.2252 66.5597 32.6078 64.7871 33.0479C64.7871 33.0479 61.7045 36.2691 64.1746 48.129C64.4913 49.6499 64.7253 54.1844 64.7346 57.9065C64.7412 60.554 64.6364 62.2954 64.5348 64.1399C64.5348 64.1399 69.612 67.6125 80.1109 66.3864C88.3543 65.4241 88.8673 62.3293 88.8673 62.3293C88.8673 62.3293 88.9302 52.2866 88.4674 46.1715C87.8594 38.1392 85.3011 33.3673 84.3557 32.2853C84.0587 32.1177 78.4455 31.3475 78.4455 31.3475L71.4298 31.3271Z" fill="url(#paint13_linear_951_6577)"/>
</g>
<g id="Head_1_">
<g id="XMLID_260_">
<g id="XMLID_270_">
<path id="Vector_136" d="M69.0708 15.3165C69.0708 15.3165 67.8658 15.499 67.1848 17.0922C66.8426 17.8928 66.6597 19.32 68.049 23.2586C68.9429 25.7933 69.8706 26.859 70.3006 27.5507C70.7303 28.2427 71.5174 28.3869 71.5174 28.3869L71.2101 25.3032L70.937 23.159C70.937 23.159 72.5492 21.4552 72.5841 19.8973C72.629 17.8921 71.7721 16.8219 71.7721 16.8219L69.0708 15.3165Z" fill="#263238"/>
<path id="Vector_137" d="M68.6589 15.4509C67.7298 12.5248 74.1035 8.93475 77.3231 11.2016C78.5682 9.71077 81.2602 10.578 81.4206 12.2079C82.4299 11.8038 83.7818 13.3375 83.2547 14.5093C84.0107 14.2919 85.1936 15.4913 84.3864 16.4855C83.8033 17.2034 83.9391 17.8384 84.8154 18.0123C84.6778 19.0545 82.8071 19.0811 82.5157 18.2871C82.4676 18.9 82.0321 18.5992 81.5751 18.192C78.3787 17.956 75.0576 18.2422 71.8214 18.1827C71.8214 18.1827 68.6659 15.4568 68.6589 15.4509Z" fill="#263238"/>
<path id="Vector_138" d="M67.973 25.9156C69.5727 26.6941 70.3 25.4234 70.3 25.4234L70.5558 32.3785C73.6295 36.4992 81.8135 34.8297 78.4515 31.7446L78.4363 29.785C78.4363 29.785 78.9721 29.7719 79.82 29.634C81.2345 29.4079 82.3973 28.4075 82.817 26.8679C83.4361 24.5903 83.4018 20.9342 82.5425 17.0586C82.3766 16.3102 82.0541 15.4938 81.3693 15.155C79.6697 14.314 78.1007 15.5314 75.736 16.4606C74.7567 16.8453 72.3806 17.0168 71.7532 16.7223C72.58 17.6366 72.1061 20.0082 71.888 20.7586C71.5728 21.8416 71.1189 22.3694 70.8942 22.4171C69.9257 22.6228 69.8116 21.7877 69.3761 21.331C68.9364 20.8782 67.3048 20.4717 66.6045 21.9754C65.8959 23.506 66.4908 25.1942 67.973 25.9156Z" fill="#FFBDA7"/>
<path id="Vector_139" d="M72.3901 27.954C72.7254 29.5265 74.8465 30.5597 78.4417 30.6416L78.4358 29.785C78.4358 29.785 77.3342 29.8002 75.7998 29.5483C74.1167 29.2724 72.3901 27.954 72.3901 27.954Z" fill="#F0997A"/>
</g>
<g id="XMLID_261_">
<path id="XMLID_269_" d="M75.7083 18.7704L74.3284 19.7722C74.0581 19.3722 74.1479 18.8233 74.5289 18.5468C74.9105 18.2702 75.4383 18.3705 75.7083 18.7704Z" fill="#263238"/>
<path id="XMLID_268_" d="M81.9476 18.7714L80.3721 18.0887C80.5449 17.641 81.0375 17.4312 81.4727 17.6196C81.9075 17.808 82.1204 18.3237 81.9476 18.7714Z" fill="#263238"/>
<path id="XMLID_266_" d="M76.3741 24.8752L78.78 25.2869C78.6911 25.9641 78.0803 26.4204 77.416 26.3066C76.7516 26.1929 76.2853 25.5521 76.3741 24.8752Z" fill="#F0997A"/>
<path id="Vector_140" d="M77.8804 26.2928C77.7425 25.7366 77.2409 25.3266 76.6457 25.3346C76.5634 25.3356 76.4832 25.346 76.4058 25.3622C76.5288 25.8361 76.9163 26.2209 77.4168 26.3063C77.5765 26.3339 77.7331 26.3267 77.8804 26.2928Z" fill="#F28F8F"/>
<path id="Vector_141" d="M75.3057 21.0849C75.3198 21.4697 75.642 21.7697 76.0246 21.7555C76.4076 21.7414 76.7063 21.4182 76.6921 21.0334C76.678 20.6487 76.3558 20.3487 75.9731 20.3628C75.5905 20.377 75.2915 20.7002 75.3057 21.0849Z" fill="#263238"/>
<path id="Vector_142" d="M80.2469 20.3201C80.261 20.7048 80.5828 21.0048 80.9658 20.9906C81.3488 20.9765 81.6475 20.6529 81.6333 20.2685C81.6191 19.8838 81.297 19.5838 80.9143 19.598C80.4743 19.6142 80.2306 19.8779 80.2469 20.3201Z" fill="#263238"/>
<path id="XMLID_264_" d="M78.1221 19.3055L78.8919 23.794L81.3001 22.841C80.5255 21.1286 79.147 20.0594 78.1221 19.3055Z" fill="#F0997A"/>
</g>
</g>
</g>
<g id="Group_410">
<g id="Arm_2_">
<g id="Group_411">
<path id="Vector_143" d="M60.7107 70.3263C59.4839 70.7297 57.8337 69.2499 57.3764 68.7307C56.9191 68.2111 57.4289 66.9128 57.6491 65.8257C57.8693 64.7386 57.5216 62.9293 58.8835 63.3853C60.2454 63.8412 63.1812 67.3245 60.7107 70.3263Z" fill="#F0997A"/>
<path id="Vector_144" d="M64.81 33.3577C61.7453 33.9266 60.1577 34.375 58.0581 38.4829C55.794 42.9122 51.8724 49.3679 51.3964 51.322C50.954 53.1398 49.9771 54.4637 52.0546 57.1181C53.9547 59.5461 59.8742 65.8718 60.7432 66.7999C61.5124 67.6208 61.204 70.0737 58.6609 69.813C58.6609 69.813 60.6534 71.4384 61.7028 71.2068C62.6081 71.0066 64.0108 70.1511 65.2151 67.3322C65.9749 65.5534 65.2255 64.2122 63.8843 62.32C62.2835 60.0614 58.7646 53.7223 58.7646 53.7223L64.9186 43.839C64.9182 43.8383 67.874 36.3086 64.81 33.3577Z" fill="#FFBDA7"/>
</g>
</g>
<path id="Vector_145" d="M64.7875 33.0478C61.5348 33.7771 60.3716 33.8764 57.57 38.865C54.7684 43.8533 51.8029 49.0107 51.0068 51.6004C50.2104 54.1901 50.1371 54.8984 51.5388 57.0004C52.1337 57.9092 52.5264 57.7021 52.5264 57.7021L52.0545 57.1179C52.0545 57.1179 53.3052 54.7477 56.0349 54.2347C58.7643 53.7218 59.43 54.9088 59.43 54.9088L59.6768 55.345C59.6768 55.345 59.8742 55.0674 59.4909 54.4072C59.1075 53.747 59.0519 53.6523 59.0519 53.6523C59.0519 53.6523 63.4612 47.1441 64.9524 45.0023C66.4436 42.8609 68.0378 35.147 64.7875 33.0478Z" fill="url(#paint14_linear_951_6577)"/>
</g>
</g>
</g>
</g>
</g>
</g>
<defs>
<linearGradient id="paint0_linear_951_6577" x1="124.413" y1="100.657" x2="142.671" y2="100.657" gradientUnits="userSpaceOnUse">
<stop stop-color="#00A7AA"/>
<stop offset="1" stop-color="#F2D025"/>
</linearGradient>
<linearGradient id="paint1_linear_951_6577" x1="124.201" y1="112.206" x2="149.969" y2="112.206" gradientUnits="userSpaceOnUse">
<stop stop-color="#00A7AA"/>
<stop offset="1" stop-color="#F2D025"/>
</linearGradient>
<linearGradient id="paint2_linear_951_6577" x1="93.73" y1="94.352" x2="129.289" y2="94.352" gradientUnits="userSpaceOnUse">
<stop stop-color="#00A7AA"/>
<stop offset="1" stop-color="#F2D025"/>
</linearGradient>
<linearGradient id="paint3_linear_951_6577" x1="92.1938" y1="94.352" x2="127.753" y2="94.352" gradientUnits="userSpaceOnUse">
<stop stop-color="#00A7AA"/>
<stop offset="1" stop-color="#F2D025"/>
</linearGradient>
<linearGradient id="paint4_linear_951_6577" x1="100.249" y1="102.87" x2="119.698" y2="102.87" gradientUnits="userSpaceOnUse">
<stop stop-color="#00A7AA"/>
<stop offset="1" stop-color="#F2D025"/>
</linearGradient>
<linearGradient id="paint5_linear_951_6577" x1="96.1885" y1="84.7826" x2="123.783" y2="84.7826" gradientUnits="userSpaceOnUse">
<stop stop-color="#00A7AA"/>
<stop offset="1" stop-color="#F2D025"/>
</linearGradient>
<linearGradient id="paint6_linear_951_6577" x1="6.29712" y1="106.158" x2="22.137" y2="106.158" gradientUnits="userSpaceOnUse">
<stop stop-color="#00A7AA"/>
<stop offset="1" stop-color="#F2D025"/>
</linearGradient>
<linearGradient id="paint7_linear_951_6577" x1="0.0358888" y1="116.56" x2="22.3897" y2="116.56" gradientUnits="userSpaceOnUse">
<stop stop-color="#00A7AA"/>
<stop offset="1" stop-color="#F2D025"/>
</linearGradient>
<linearGradient id="paint8_linear_951_6577" x1="18.6208" y1="111.094" x2="61.7044" y2="111.094" gradientUnits="userSpaceOnUse">
<stop stop-color="#00A7AA"/>
<stop offset="1" stop-color="#F2D025"/>
</linearGradient>
<linearGradient id="paint9_linear_951_6577" x1="18.6208" y1="113.807" x2="58.8979" y2="113.807" gradientUnits="userSpaceOnUse">
<stop stop-color="#00A7AA"/>
<stop offset="1" stop-color="#F2D025"/>
</linearGradient>
<linearGradient id="paint10_linear_951_6577" x1="48.1191" y1="112.847" x2="61.6555" y2="112.847" gradientUnits="userSpaceOnUse">
<stop stop-color="#00A7AA"/>
<stop offset="1" stop-color="#F2D025"/>
</linearGradient>
<linearGradient id="paint11_linear_951_6577" x1="32.5198" y1="69.2144" x2="60.02" y2="69.2144" gradientUnits="userSpaceOnUse">
<stop stop-color="#00A7AA"/>
<stop offset="1" stop-color="#F2D025"/>
</linearGradient>
<linearGradient id="paint12_linear_951_6577" x1="84.3105" y1="41.7701" x2="101.897" y2="41.7701" gradientUnits="userSpaceOnUse">
<stop stop-color="#00A7AA"/>
<stop offset="1" stop-color="#F2D025"/>
</linearGradient>
<linearGradient id="paint13_linear_951_6577" x1="63.2158" y1="48.9878" x2="88.8702" y2="48.9878" gradientUnits="userSpaceOnUse">
<stop stop-color="#00A7AA"/>
<stop offset="1" stop-color="#F2D025"/>
</linearGradient>
<linearGradient id="paint14_linear_951_6577" x1="50.4395" y1="45.3851" x2="66.6865" y2="45.3851" gradientUnits="userSpaceOnUse">
<stop stop-color="#00A7AA"/>
<stop offset="1" stop-color="#F2D025"/>
</linearGradient>
</defs>
</svg>
