<svg width="380" height="380" viewBox="0 0 380 380" fill="none" xmlns="http://www.w3.org/2000/svg">
<path d="M287.28 115.946C275.454 109.47 263.134 106.871 249.69 108.536C233.13 110.58 220.05 112.989 204.204 106.818C190.881 101.635 178.714 93.898 166.006 87.4836C140.014 74.2976 114.212 70.2164 94.726 96.2236C84.3596 110.063 76.486 125.955 71.052 142.72C62.2664 169.769 55.0464 199.72 59.006 227.97C64.0144 263.781 94.726 280.592 131.464 267.619C146.322 262.375 160.664 254.699 176.51 252.502C209.668 247.897 236.998 278.342 276.761 270.94C345.298 258.202 340.236 144.94 287.28 115.946Z" fill="url(#paint0_linear_64_27238)"/>
<path opacity="0.7" d="M287.28 115.946C275.454 109.47 263.134 106.871 249.69 108.536C233.13 110.58 220.05 112.989 204.204 106.818C190.881 101.635 178.714 93.898 166.006 87.4836C140.014 74.2976 114.212 70.2164 94.726 96.2236C84.3596 110.063 76.486 125.955 71.052 142.72C62.2664 169.769 55.0464 199.72 59.006 227.97C64.0144 263.781 94.726 280.592 131.464 267.619C146.322 262.375 160.664 254.699 176.51 252.502C209.668 247.897 236.998 278.342 276.761 270.94C345.298 258.202 340.236 144.94 287.28 115.946Z" fill="white"/>
<path d="M297.654 86.7692C292.828 84.132 290.639 86.3284 288.884 84.132C287.128 81.9356 293.71 76.2356 280.524 70.5356C280.524 70.5356 279.65 58.254 261.66 57.8132C243.671 57.3724 248.52 70.0948 243.694 73.1652C238.868 76.2356 237.553 71.44 232.727 74.48C227.901 77.52 230.098 83.6912 226.153 84.5652C222.209 85.4392 216.934 80.6208 212.108 83.6912C207.282 86.7616 207.282 89.3912 205.094 89.3912C202.905 89.3912 198.512 87.6356 195.882 89.3912C193.253 91.1468 190.175 93.3432 190.175 93.3432H301.135C301.135 93.3432 302.48 89.3988 297.654 86.7692Z" fill="url(#paint1_linear_64_27238)"/>
<path opacity="0.5" d="M297.654 86.7692C292.828 84.132 290.639 86.3284 288.884 84.132C287.128 81.9356 293.71 76.2356 280.524 70.5356C280.524 70.5356 279.65 58.254 261.66 57.8132C243.671 57.3724 248.52 70.0948 243.694 73.1652C238.868 76.2356 237.553 71.44 232.727 74.48C227.901 77.52 230.098 83.6912 226.153 84.5652C222.209 85.4392 216.934 80.6208 212.108 83.6912C207.282 86.7616 207.282 89.3912 205.094 89.3912C202.905 89.3912 198.512 87.6356 195.882 89.3912C193.253 91.1468 190.175 93.3432 190.175 93.3432H301.135C301.135 93.3432 302.48 89.3988 297.654 86.7692Z" fill="white"/>
<path d="M171.82 185.364C168.431 183.517 166.888 185.052 165.657 183.517C164.426 181.982 169.046 177.969 159.805 173.964C159.805 173.964 159.189 165.338 146.55 165.026C133.912 164.715 137.309 173.652 133.919 175.811C130.53 177.969 129.61 174.58 126.22 176.738C122.831 178.896 124.366 183.206 121.6 183.821C118.833 184.437 115.124 181.047 111.72 183.206C108.315 185.364 108.33 187.211 106.795 187.211C105.26 187.211 102.166 185.98 100.32 187.211C98.4729 188.442 96.3145 189.985 96.3145 189.985H174.283C174.283 189.985 175.21 187.211 171.82 185.364Z" fill="white"/>
<path opacity="0.5" d="M171.82 185.364C168.431 183.517 166.888 185.052 165.657 183.517C164.426 181.982 169.046 177.969 159.805 173.964C159.805 173.964 159.189 165.338 146.55 165.026C133.912 164.715 137.309 173.652 133.919 175.811C130.53 177.969 129.61 174.58 126.22 176.738C122.831 178.896 124.366 183.206 121.6 183.821C118.833 184.437 115.124 181.047 111.72 183.206C108.315 185.364 108.33 187.211 106.795 187.211C105.26 187.211 102.166 185.98 100.32 187.211C98.4729 188.442 96.3145 189.985 96.3145 189.985H174.283C174.283 189.985 175.21 187.211 171.82 185.364Z" fill="white"/>
<path d="M268.181 313.781H316.213C315.294 307.906 311.516 308.94 311.015 299.835C310.764 295.275 315.012 289.575 314.64 283.556C314.336 278.593 309.449 273.509 309.069 267.832C308.727 262.709 312.869 257.024 312.497 251.507C312.109 246.293 307.177 241.285 306.713 235.858C306.288 230.538 310.376 224.831 309.89 219.48C309.404 214.13 304.365 209.213 303.81 203.938C303.255 198.52 307.215 192.683 306.607 187.5C305.968 181.99 300.77 177.232 300.063 172.155C299.303 166.508 302.959 160.474 302.1 155.595C301.044 149.621 295.48 145.297 294.31 140.889C292.129 132.673 292.402 124.762 289.826 124.245C287.082 123.698 286.452 131.457 284.369 140.129C283.32 144.484 277.886 148.899 276.99 154.88C276.268 159.722 280.113 165.612 279.482 171.236C278.92 176.274 273.851 181.116 273.357 186.595C272.893 191.748 277.005 197.425 276.602 202.814C276.207 208.05 271.282 213.043 270.955 218.363C270.628 223.683 274.854 229.246 274.565 234.498C274.269 239.879 269.443 244.963 269.192 250.139C268.934 255.618 273.258 261.144 273.045 266.22C272.81 271.852 268.052 277.005 267.877 281.93C267.664 287.903 272.05 293.413 271.913 297.966C271.624 307.846 267.102 305.786 266.942 313.736L268.181 313.781Z" fill="url(#paint2_linear_64_27238)"/>
<path d="M288.8 140.03V311.562" stroke="black" stroke-miterlimit="10"/>
<path d="M296.301 158.012L288.48 164.768L282.081 156.233" stroke="black" stroke-miterlimit="10"/>
<path d="M296.301 187.872L288.48 194.621L282.081 186.094" stroke="black" stroke-miterlimit="10"/>
<path d="M296.301 215.946L288.48 222.703L282.081 214.168" stroke="black" stroke-miterlimit="10"/>
<path d="M296.301 249.364L288.48 256.112L282.081 247.585" stroke="black" stroke-miterlimit="10"/>
<path d="M296.301 283.13L288.48 289.879L282.081 281.352" stroke="black" stroke-miterlimit="10"/>
<path d="M235.463 313.781H272.544C271.829 309.221 268.918 310.042 268.531 303.02C268.333 299.478 271.609 295.1 271.328 290.449C271.092 286.649 267.322 282.69 267.026 278.289C266.76 274.337 269.982 269.929 269.671 265.688C269.374 261.66 265.552 257.8 265.21 253.612C264.868 249.424 268.037 245.092 267.664 240.966C267.292 236.839 263.393 233.039 262.983 228.973C262.557 224.785 265.612 220.286 265.141 216.273C264.647 212.025 260.634 208.354 260.095 204.44C259.487 200.078 262.329 195.419 261.66 191.657C260.847 187.044 256.553 183.7 255.656 180.302C253.969 173.964 254.182 167.846 252.191 167.451C250.07 167.025 249.584 173.014 247.98 179.717C247.175 183.076 242.972 186.489 242.28 191.117C241.726 194.856 244.69 199.401 244.203 203.741C243.77 207.632 239.864 211.341 239.476 215.597C239.119 219.572 242.296 223.957 241.984 228.114C241.68 232.157 237.888 236.01 237.622 240.114C237.356 244.218 240.662 248.52 240.411 252.571C240.16 256.622 236.459 260.65 236.269 264.647C236.064 268.873 239.4 273.136 239.24 277.058C239.058 281.405 235.387 285.418 235.25 289.218C235.083 293.824 238.473 298.087 238.366 301.591C238.138 309.191 234.65 307.633 234.528 313.751L235.463 313.781Z" fill="url(#paint3_linear_64_27238)"/>
<path d="M251.385 179.664V312.071" stroke="black" stroke-miterlimit="10"/>
<path d="M257.169 193.542L251.134 198.755L246.194 192.166" stroke="black" stroke-miterlimit="10"/>
<path d="M257.169 216.585L251.134 221.798L246.194 215.217" stroke="black" stroke-miterlimit="10"/>
<path d="M257.169 238.26L251.134 243.474L246.194 236.892" stroke="black" stroke-miterlimit="10"/>
<path d="M257.169 264.054L251.134 269.268L246.194 262.679" stroke="black" stroke-miterlimit="10"/>
<path d="M257.169 290.122L251.134 295.328L246.194 288.747" stroke="black" stroke-miterlimit="10"/>
<path d="M202.41 313.424V159.767H210.519V313.424" fill="#2E353A"/>
<path d="M202.41 313.424V159.767H210.519V313.424" stroke="#2E353A" stroke-linecap="round" stroke-linejoin="round"/>
<path d="M198.359 313.424V159.767H206.469V313.424" fill="url(#paint4_linear_64_27238)"/>
<path d="M198.359 313.424V159.767H206.469V313.424" stroke="#2E353A" stroke-linecap="round" stroke-linejoin="round"/>
<g style="mix-blend-mode:multiply" opacity="0.3">
<path d="M206.469 159.767H198.359V178.007H206.469V159.767Z" fill="#2E353A"/>
</g>
<path d="M232.963 99.7804H172.877L199.067 164.107H259.16V125.97C259.16 122.53 258.482 119.124 257.165 115.946C255.849 112.768 253.919 109.88 251.486 107.448C249.054 105.016 246.166 103.087 242.987 101.772C239.809 100.456 236.402 99.7794 232.963 99.7804Z" fill="url(#paint5_linear_64_27238)" stroke="#2E353A" stroke-linecap="round" stroke-linejoin="round"/>
<g style="mix-blend-mode:multiply" opacity="0.3">
<path d="M194.483 152.844L199.043 164.107H259.159V125.97C259.159 125.392 259.159 124.815 259.099 124.245H194.499L194.483 152.844Z" fill="black"/>
</g>
<path d="M232.521 124.245H226.198" stroke="#2E353A" stroke-linecap="round" stroke-linejoin="round"/>
<path d="M259.099 124.245H239.962" stroke="#2E353A" stroke-linecap="round" stroke-linejoin="round"/>
<path d="M172.877 99.7804C179.825 99.7804 186.488 102.54 191.401 107.453C196.314 112.366 199.074 119.03 199.074 125.978V164.114H146.68V125.97C146.682 119.023 149.443 112.362 154.355 107.451C159.268 102.539 165.93 99.7804 172.877 99.7804Z" fill="#2E353A" stroke="#2E353A" stroke-linecap="round" stroke-linejoin="round"/>
<path d="M199.067 159.767H153.923V164.107H199.067V159.767Z" fill="url(#paint6_linear_64_27238)" stroke="#2E353A" stroke-linecap="round" stroke-linejoin="round"/>
<path d="M199.066 159.767H105.64V164.107H199.066V159.767Z" fill="url(#paint7_linear_64_27238)" stroke="#2E353A" stroke-linecap="round" stroke-linejoin="round"/>
<path opacity="0.3" d="M199.067 159.767H153.923V164.107H199.067V159.767Z" fill="black"/>
<path d="M236.869 84.2764H218.12V97.4472H236.869V84.2764Z" fill="#2E353A" stroke="#2E353A" stroke-linecap="round" stroke-linejoin="round"/>
<path d="M219.64 84.2764H215.589V125.316H219.64V84.2764Z" fill="white" stroke="#2E353A" stroke-linecap="round" stroke-linejoin="round"/>
<path d="M217.611 130.887C220.129 130.887 222.171 128.846 222.171 126.327C222.171 123.809 220.129 121.767 217.611 121.767C215.092 121.767 213.051 123.809 213.051 126.327C213.051 128.846 215.092 130.887 217.611 130.887Z" fill="#2E353A" stroke="#2E353A" stroke-linecap="round" stroke-linejoin="round"/>
<path d="M150.738 110.314C161.317 115.687 179.709 124.298 196.673 128.63" stroke="white" stroke-linecap="round" stroke-linejoin="round" stroke-dasharray="2 4"/>
<path d="M141.861 105.64C141.861 105.64 145.251 107.555 150.738 110.344" stroke="#2E353A" stroke-linecap="round" stroke-linejoin="round" stroke-dasharray="2 4"/>
<path d="M138.054 105.359L145.662 87.286L90.4932 73.8264L138.054 105.359Z" fill="white" stroke="#2E353A" stroke-width="1.2629" stroke-linecap="round" stroke-linejoin="round"/>
<path d="M141.763 89.4748L138.054 105.359L90.4932 73.8264L141.763 89.4748Z" fill="url(#paint8_linear_64_27238)" stroke="#2E353A" stroke-width="1.2629" stroke-linecap="round" stroke-linejoin="round"/>
<path d="M141.763 89.4748L133.106 96.8924L90.4932 73.8264L141.763 89.4748Z" fill="white" stroke="#2E353A" stroke-width="1.2629" stroke-linecap="round" stroke-linejoin="round"/>
<path d="M145.662 87.286L153.368 84.1548L90.4932 73.8264L145.662 87.286Z" fill="white" stroke="#2E353A" stroke-width="1.2629" stroke-linecap="round" stroke-linejoin="round"/>
<path d="M127.338 102.547L129.124 103.641" stroke="#2E353A" stroke-linecap="round" stroke-linejoin="round"/>
<path d="M117.595 96.5732L123.576 100.236" stroke="#2E353A" stroke-linecap="round" stroke-linejoin="round"/>
<path d="M110.876 139.954V120.354L166.949 129.367L110.876 139.954Z" fill="white" stroke="#2E353A" stroke-width="1.2629" stroke-linecap="round" stroke-linejoin="round"/>
<path d="M113.62 123.88L110.876 139.954L166.949 129.367L113.62 123.88Z" fill="url(#paint9_linear_64_27238)" stroke="#2E353A" stroke-width="1.2629" stroke-linecap="round" stroke-linejoin="round"/>
<path d="M113.62 123.88L118.72 134.072L166.949 129.367L113.62 123.88Z" fill="white" stroke="#2E353A" stroke-width="1.2629" stroke-linecap="round" stroke-linejoin="round"/>
<path d="M110.877 120.354L104.994 114.471L166.949 129.367L110.877 120.354Z" fill="white" stroke="#2E353A" stroke-width="1.2629" stroke-linecap="round" stroke-linejoin="round"/>
<path d="M130.955 139.589L135.819 138.601" stroke="#2E353A" stroke-linecap="round" stroke-linejoin="round"/>
<path d="M113.87 143.062L126.099 140.577" stroke="#2E353A" stroke-linecap="round" stroke-linejoin="round"/>
<path d="M104.12 138.746C104.12 138.746 60.0398 146.346 51.6798 185.866C43.3198 225.386 87.3998 227.666 94.9998 208.666C102.6 189.666 69.1598 182.066 61.5598 200.306C53.9598 218.546 76.7598 249.706 107.92 251.226C133.813 252.487 206.408 222.262 251.56 214.624C251.56 214.624 285 205.367 336.68 207.396" stroke="#2E353A" stroke-linecap="round" stroke-linejoin="round" stroke-dasharray="2 4"/>
<path d="M321.73 262.626H334.4" stroke="#2E353A" stroke-linecap="round" stroke-linejoin="round"/>
<path d="M321.73 281.367H334.4" stroke="#2E353A" stroke-linecap="round" stroke-linejoin="round"/>
<path d="M54.9707 280.866H320.211V263.127H54.9707" fill="white"/>
<path d="M54.9707 280.866H320.211V263.127H54.9707" stroke="#2E353A" stroke-linecap="round" stroke-linejoin="round"/>
<path d="M73.4082 313.546V224.306C73.4083 224.088 73.4529 223.871 73.5391 223.67C73.6253 223.469 73.7514 223.287 73.9098 223.136L80.841 216.608C81.1531 216.316 81.568 216.159 81.9951 216.172C82.4222 216.185 82.8269 216.366 83.121 216.676L89.201 223.144C89.4768 223.445 89.6312 223.837 89.6342 224.246V313.546" fill="#2E353A"/>
<path d="M73.4082 313.546V224.306C73.4083 224.088 73.4529 223.871 73.5391 223.67C73.6253 223.469 73.7514 223.287 73.9098 223.136L80.841 216.608C81.1531 216.316 81.568 216.159 81.9951 216.172C82.4222 216.185 82.8269 216.366 83.121 216.676L89.201 223.144C89.4768 223.445 89.6312 223.837 89.6342 224.246V313.546" stroke="#2E353A" stroke-linecap="round" stroke-linejoin="round"/>
<path d="M71.4395 314.306V224.306C71.4392 224.087 71.4843 223.869 71.572 223.668C71.6596 223.467 71.7878 223.286 71.9487 223.136L78.8799 216.608C79.0339 216.462 79.2152 216.349 79.4133 216.273C79.6113 216.198 79.8223 216.163 80.034 216.169C80.2458 216.175 80.4543 216.223 80.6475 216.31C80.8406 216.397 81.0148 216.522 81.1599 216.676L87.2399 223.144C87.5189 223.443 87.6738 223.837 87.6731 224.246V314.306" fill="white"/>
<path d="M71.4395 314.306V224.306C71.4392 224.087 71.4843 223.869 71.572 223.668C71.6596 223.467 71.7878 223.286 71.9487 223.136L78.8799 216.608C79.0339 216.462 79.2152 216.349 79.4133 216.273C79.6113 216.198 79.8223 216.163 80.034 216.169C80.2458 216.175 80.4543 216.223 80.6475 216.31C80.8406 216.397 81.0148 216.522 81.1599 216.676L87.2399 223.144C87.5189 223.443 87.6738 223.837 87.6731 224.246V314.306" stroke="#2E353A" stroke-linecap="round" stroke-linejoin="round"/>
<path d="M131.853 313.546V224.306C131.853 224.088 131.897 223.871 131.983 223.67C132.07 223.469 132.196 223.287 132.354 223.136L139.293 216.608C139.447 216.462 139.628 216.349 139.826 216.273C140.024 216.198 140.235 216.163 140.447 216.169C140.659 216.175 140.867 216.223 141.061 216.31C141.254 216.397 141.428 216.522 141.573 216.676L147.653 223.144C147.932 223.443 148.087 223.837 148.086 224.246V313.546" fill="#2E353A"/>
<path d="M131.853 313.546V224.306C131.853 224.088 131.897 223.871 131.983 223.67C132.07 223.469 132.196 223.287 132.354 223.136L139.293 216.608C139.447 216.462 139.628 216.349 139.826 216.273C140.024 216.198 140.235 216.163 140.447 216.169C140.659 216.175 140.867 216.223 141.061 216.31C141.254 216.397 141.428 216.522 141.573 216.676L147.653 223.144C147.932 223.443 148.087 223.837 148.086 224.246V313.546" stroke="#2E353A" stroke-linecap="round" stroke-linejoin="round"/>
<path d="M130.211 314.306V224.306C130.211 224.087 130.256 223.869 130.343 223.668C130.431 223.467 130.559 223.286 130.72 223.136L137.651 216.608C137.963 216.316 138.378 216.159 138.805 216.172C139.233 216.185 139.637 216.366 139.931 216.676L146.011 223.144C146.292 223.442 146.45 223.836 146.452 224.246V314.306" fill="white"/>
<path d="M130.211 314.306V224.306C130.211 224.087 130.256 223.869 130.343 223.668C130.431 223.467 130.559 223.286 130.72 223.136L137.651 216.608C137.963 216.316 138.378 216.159 138.805 216.172C139.233 216.185 139.637 216.366 139.931 216.676L146.011 223.144C146.292 223.442 146.45 223.836 146.452 224.246V314.306" stroke="#2E353A" stroke-linecap="round" stroke-linejoin="round"/>
<path d="M190.623 313.546V224.306C190.623 224.087 190.668 223.869 190.756 223.668C190.843 223.467 190.971 223.286 191.132 223.136L198.063 216.608C198.376 216.316 198.79 216.159 199.218 216.172C199.645 216.185 200.049 216.366 200.343 216.676L206.423 223.144C206.705 223.442 206.862 223.836 206.864 224.246V314.306" fill="#2E353A"/>
<path d="M190.623 313.546V224.306C190.623 224.087 190.668 223.869 190.756 223.668C190.843 223.467 190.971 223.286 191.132 223.136L198.063 216.608C198.376 216.316 198.79 216.159 199.218 216.172C199.645 216.185 200.049 216.366 200.343 216.676L206.423 223.144C206.705 223.442 206.862 223.836 206.864 224.246V314.306" stroke="#2E353A" stroke-linecap="round" stroke-linejoin="round"/>
<path d="M188.989 314.306V224.306C188.989 224.088 189.034 223.871 189.12 223.67C189.206 223.469 189.332 223.287 189.491 223.136L196.43 216.608C196.584 216.462 196.765 216.349 196.963 216.273C197.161 216.198 197.372 216.163 197.584 216.169C197.796 216.175 198.004 216.223 198.197 216.31C198.39 216.397 198.565 216.522 198.71 216.676L204.79 223.144C205.069 223.443 205.224 223.837 205.223 224.246V314.306" fill="white"/>
<path d="M188.989 314.306V224.306C188.989 224.088 189.034 223.871 189.12 223.67C189.206 223.469 189.332 223.287 189.491 223.136L196.43 216.608C196.584 216.462 196.765 216.349 196.963 216.273C197.161 216.198 197.372 216.163 197.584 216.169C197.796 216.175 198.004 216.223 198.197 216.31C198.39 216.397 198.565 216.522 198.71 216.676L204.79 223.144C205.069 223.443 205.224 223.837 205.223 224.246V314.306" stroke="#2E353A" stroke-linecap="round" stroke-linejoin="round"/>
<path d="M249.401 313.546V224.306C249.402 224.088 249.446 223.871 249.532 223.67C249.618 223.469 249.745 223.287 249.903 223.136L256.834 216.608C257.146 216.316 257.561 216.159 257.988 216.172C258.415 216.185 258.82 216.366 259.114 216.676L265.194 223.144C265.47 223.445 265.624 223.837 265.627 224.246V313.546" fill="#2E353A"/>
<path d="M249.401 313.546V224.306C249.402 224.088 249.446 223.871 249.532 223.67C249.618 223.469 249.745 223.287 249.903 223.136L256.834 216.608C257.146 216.316 257.561 216.159 257.988 216.172C258.415 216.185 258.82 216.366 259.114 216.676L265.194 223.144C265.47 223.445 265.624 223.837 265.627 224.246V313.546" stroke="#2E353A" stroke-linecap="round" stroke-linejoin="round"/>
<path d="M247.76 314.306V224.306C247.76 224.087 247.805 223.869 247.892 223.668C247.98 223.467 248.108 223.286 248.269 223.136L255.2 216.608C255.354 216.462 255.536 216.349 255.734 216.273C255.932 216.198 256.143 216.163 256.354 216.169C256.566 216.175 256.775 216.223 256.968 216.31C257.161 216.397 257.335 216.522 257.48 216.676L263.56 223.144C263.839 223.443 263.994 223.837 263.993 224.246V314.306" fill="white"/>
<path d="M247.76 314.306V224.306C247.76 224.087 247.805 223.869 247.892 223.668C247.98 223.467 248.108 223.286 248.269 223.136L255.2 216.608C255.354 216.462 255.536 216.349 255.734 216.273C255.932 216.198 256.143 216.163 256.354 216.169C256.566 216.175 256.775 216.223 256.968 216.31C257.161 216.397 257.335 216.522 257.48 216.676L263.56 223.144C263.839 223.443 263.994 223.837 263.993 224.246V314.306" stroke="#2E353A" stroke-linecap="round" stroke-linejoin="round"/>
<path d="M308.172 313.546V224.306C308.172 224.088 308.217 223.871 308.303 223.67C308.389 223.469 308.515 223.287 308.673 223.136L315.612 216.608C315.766 216.462 315.948 216.349 316.146 216.273C316.344 216.198 316.555 216.163 316.766 216.169C316.978 216.175 317.187 216.223 317.38 216.31C317.573 216.397 317.747 216.522 317.892 216.676L323.972 223.144C324.251 223.443 324.406 223.837 324.405 224.246V313.546" fill="#2E353A"/>
<path d="M308.172 313.546V224.306C308.172 224.088 308.217 223.871 308.303 223.67C308.389 223.469 308.515 223.287 308.673 223.136L315.612 216.608C315.766 216.462 315.948 216.349 316.146 216.273C316.344 216.198 316.555 216.163 316.766 216.169C316.978 216.175 317.187 216.223 317.38 216.31C317.573 216.397 317.747 216.522 317.892 216.676L323.972 223.144C324.251 223.443 324.406 223.837 324.405 224.246V313.546" stroke="#2E353A" stroke-linecap="round" stroke-linejoin="round"/>
<path d="M306.53 314.306V224.306C306.53 224.087 306.575 223.869 306.663 223.668C306.75 223.467 306.879 223.286 307.039 223.136L313.971 216.608C314.283 216.316 314.698 216.159 315.125 216.172C315.552 216.185 315.957 216.366 316.251 216.676L322.331 223.144C322.612 223.442 322.769 223.836 322.771 224.246V314.306" fill="white"/>
<path d="M306.53 314.306V224.306C306.53 224.087 306.575 223.869 306.663 223.668C306.75 223.467 306.879 223.286 307.039 223.136L313.971 216.608C314.283 216.316 314.698 216.159 315.125 216.172C315.552 216.185 315.957 216.366 316.251 216.676L322.331 223.144C322.612 223.442 322.769 223.836 322.771 224.246V314.306" stroke="#2E353A" stroke-linecap="round" stroke-linejoin="round"/>
<path d="M81.1523 216.676V223.182" stroke="#2E353A" stroke-linecap="round" stroke-linejoin="round"/>
<path d="M83.7598 220.035V235.433" stroke="#2E353A" stroke-linecap="round" stroke-linejoin="round"/>
<path d="M133.41 221.297V240.776" stroke="#2E353A" stroke-linecap="round" stroke-linejoin="round"/>
<path d="M135.926 218.781V227.263" stroke="#2E353A" stroke-linecap="round" stroke-linejoin="round"/>
<path d="M196.43 216.608V235.752" stroke="#2E353A" stroke-linecap="round" stroke-linejoin="round"/>
<path d="M200.039 218.15V246.438" stroke="#2E353A" stroke-linecap="round" stroke-linejoin="round"/>
<path d="M250.633 221.297V242.66" stroke="#2E353A" stroke-linecap="round" stroke-linejoin="round"/>
<path d="M258.803 218.781V224.124" stroke="#2E353A" stroke-linecap="round" stroke-linejoin="round"/>
<path d="M311.911 218.462V229.778" stroke="#2E353A" stroke-linecap="round" stroke-linejoin="round"/>
<path d="M318.827 219.724V252.404" stroke="#2E353A" stroke-linecap="round" stroke-linejoin="round"/>
<path d="M306.257 267.49H299.341" stroke="#2E353A" stroke-linecap="round" stroke-linejoin="round"/>
<path d="M306.257 272.832H282.059" stroke="#2E353A" stroke-linecap="round" stroke-linejoin="round"/>
<path d="M216.061 272.832H205.063" stroke="#2E353A" stroke-linecap="round" stroke-linejoin="round"/>
<path d="M158.239 272.832H147.242" stroke="#2E353A" stroke-linecap="round" stroke-linejoin="round"/>
<path d="M71.1896 270.005H60.1924" stroke="#2E353A" stroke-linecap="round" stroke-linejoin="round"/>
<path d="M71.1895 275.029H66.7891" stroke="#2E353A" stroke-linecap="round" stroke-linejoin="round"/>
<path d="M210.406 270.005H205.063" stroke="#2E353A" stroke-linecap="round" stroke-linejoin="round"/>
<path d="M151.954 275.971H146.611" stroke="#2E353A" stroke-linecap="round" stroke-linejoin="round"/>
<path d="M129.641 275.971H124.298" stroke="#2E353A" stroke-linecap="round" stroke-linejoin="round"/>
<path d="M327.62 272.832H322.908" stroke="#2E353A" stroke-linecap="round" stroke-linejoin="round"/>
<path d="M333.906 272.832H331.079" stroke="#2E353A" stroke-linecap="round" stroke-linejoin="round"/>
<path d="M87.3996 240.16C87.3996 240.16 85.4996 256.492 83.2196 273.205C80.9396 289.917 85.1196 307.017 86.2596 308.537" stroke="#2E353A" stroke-linecap="round" stroke-linejoin="round"/>
<path d="M79.8838 273.22C80.2486 269.96 80.5526 267.9 80.5526 267.9" stroke="#2E353A" stroke-linecap="round" stroke-linejoin="round"/>
<path d="M85.4923 306.637C85.4923 306.637 78.6523 305.117 78.6523 292.957C78.6523 287.964 78.9715 282.849 79.3515 278.517" stroke="#2E353A" stroke-linecap="round" stroke-linejoin="round"/>
<path d="M142.88 220.78C142.88 220.78 144.4 221.92 141.74 234.84C139.08 247.76 139.46 266.76 142.88 277.4" stroke="#2E353A" stroke-linecap="round" stroke-linejoin="round"/>
<path d="M146.68 244.72C146.68 244.72 142.88 256.12 145.54 272.08" stroke="#2E353A" stroke-linecap="round" stroke-linejoin="round"/>
<path d="M190 251.932C190 251.932 191.9 262.952 193.8 274.345C195.7 285.737 194.18 301.705 192.66 305.877C191.14 310.05 189.62 313.477 189.62 313.477" stroke="#2E353A" stroke-linecap="round" stroke-linejoin="round"/>
<path d="M197.159 307.891C195.465 313.09 193.359 307.017 193.359 307.017" stroke="#2E353A" stroke-linecap="round" stroke-linejoin="round"/>
<path d="M197.091 269.04C197.091 269.04 200.67 287.516 198.649 301.424" stroke="#2E353A" stroke-linecap="round" stroke-linejoin="round"/>
<path d="M189.24 275.12C189.24 275.12 193.04 283.1 189.62 290.7" stroke="#2E353A" stroke-linecap="round" stroke-linejoin="round"/>
<path d="M260.147 276.245C260.656 278.568 261.324 280.853 262.146 283.085" stroke="#2E353A" stroke-linecap="round" stroke-linejoin="round"/>
<path d="M263.287 236.74C260.875 244.394 259.345 252.299 258.727 260.3C258.5 264.348 258.727 268.409 259.403 272.407" stroke="#2E353A" stroke-linecap="round" stroke-linejoin="round"/>
<path d="M256.066 271.685C256.066 271.685 259.486 284.605 261.386 289.165C263.286 293.725 262.526 304.737 260.246 310.057" stroke="#2E353A" stroke-linecap="round" stroke-linejoin="round"/>
<path d="M307.352 242.44C307.352 242.44 314.952 256.12 307.732 278.532" stroke="#2E353A" stroke-linecap="round" stroke-linejoin="round"/>
<path d="M314.336 265.802C314.382 270.074 314.002 275.485 312.292 280.045C308.872 289.165 307.352 292.205 307.352 292.205" stroke="#2E353A" stroke-linecap="round" stroke-linejoin="round"/>
<path d="M313.812 258.4C313.812 258.4 314.062 260.034 314.214 262.55" stroke="#2E353A" stroke-linecap="round" stroke-linejoin="round"/>
<defs>
<linearGradient id="paint0_linear_64_27238" x1="57.8936" y1="174.605" x2="327.604" y2="174.605" gradientUnits="userSpaceOnUse">
<stop stop-color="#00A7AA"/>
<stop offset="1" stop-color="#F2D025"/>
</linearGradient>
<linearGradient id="paint1_linear_64_27238" x1="190.175" y1="75.5726" x2="301.307" y2="75.5726" gradientUnits="userSpaceOnUse">
<stop stop-color="#00A7AA"/>
<stop offset="1" stop-color="#F2D025"/>
</linearGradient>
<linearGradient id="paint2_linear_64_27238" x1="266.942" y1="218.999" x2="316.213" y2="218.999" gradientUnits="userSpaceOnUse">
<stop stop-color="#00A7AA"/>
<stop offset="1" stop-color="#F2D025"/>
</linearGradient>
<linearGradient id="paint3_linear_64_27238" x1="234.528" y1="240.605" x2="272.544" y2="240.605" gradientUnits="userSpaceOnUse">
<stop stop-color="#00A7AA"/>
<stop offset="1" stop-color="#F2D025"/>
</linearGradient>
<linearGradient id="paint4_linear_64_27238" x1="198.359" y1="236.596" x2="206.469" y2="236.596" gradientUnits="userSpaceOnUse">
<stop stop-color="#00A7AA"/>
<stop offset="1" stop-color="#F2D025"/>
</linearGradient>
<linearGradient id="paint5_linear_64_27238" x1="172.877" y1="131.944" x2="259.16" y2="131.944" gradientUnits="userSpaceOnUse">
<stop stop-color="#00A7AA"/>
<stop offset="1" stop-color="#F2D025"/>
</linearGradient>
<linearGradient id="paint6_linear_64_27238" x1="153.923" y1="161.937" x2="199.067" y2="161.937" gradientUnits="userSpaceOnUse">
<stop stop-color="#00A7AA"/>
<stop offset="1" stop-color="#F2D025"/>
</linearGradient>
<linearGradient id="paint7_linear_64_27238" x1="105.64" y1="161.937" x2="199.066" y2="161.937" gradientUnits="userSpaceOnUse">
<stop stop-color="#00A7AA"/>
<stop offset="1" stop-color="#F2D025"/>
</linearGradient>
<linearGradient id="paint8_linear_64_27238" x1="90.4932" y1="89.5926" x2="141.763" y2="89.5926" gradientUnits="userSpaceOnUse">
<stop stop-color="#00A7AA"/>
<stop offset="1" stop-color="#F2D025"/>
</linearGradient>
<linearGradient id="paint9_linear_64_27238" x1="110.876" y1="131.917" x2="166.949" y2="131.917" gradientUnits="userSpaceOnUse">
<stop stop-color="#00A7AA"/>
<stop offset="1" stop-color="#F2D025"/>
</linearGradient>
</defs>
</svg>
