<svg width="150" height="150" viewBox="0 0 150 150" fill="none" xmlns="http://www.w3.org/2000/svg">
<g id="Payment Information-pana 1">
<g id="freepik--background-complete--inject-14">
<path id="Vector" d="M87.6238 111.571C82.3044 107.879 81.0795 100.994 81.2705 94.8075C81.3012 93.7839 81.1852 92.6852 81.6732 91.7776C82.1611 90.87 83.3075 90.2456 84.2322 90.679C84.9999 91.0372 85.3377 91.9278 85.771 92.6648C86.3466 93.6486 87.1889 94.4494 88.2004 94.9747C88.8589 95.3159 89.6744 95.5172 90.3227 95.159C91.2098 94.6642 91.3122 93.4325 91.3019 92.4055L91.2508 86.6596C91.1838 85.6265 91.2852 84.5893 91.551 83.5887C91.8684 82.6129 92.5746 81.7053 93.5471 81.4289C94.5195 81.1525 95.7342 81.7121 95.9355 82.7187C95.976 83.1439 95.9874 83.5714 95.9696 83.9982C96.0003 84.4247 96.1982 84.8955 96.6043 85.0218C97.0103 85.148 97.4266 84.8478 97.7337 84.5475C98.788 83.5068 99.5045 82.1591 100.173 80.8386C100.842 79.5182 101.49 78.1431 102.449 77.0103C103.408 75.8775 104.739 74.9631 106.202 74.8846C107.666 74.8061 109.242 75.7001 109.614 77.1434C109.986 78.5867 109.15 80.0641 108.233 81.2378C106.874 82.9808 105.271 84.5184 103.473 85.8031C103.123 85.9984 102.843 86.2993 102.674 86.663C102.456 87.3454 103.104 88.0278 103.783 88.253C104.551 88.5055 105.38 88.4236 106.172 88.5157C106.963 88.6079 107.844 88.9559 108.147 89.7133C108.57 90.7608 107.697 91.8664 106.834 92.5897C105.108 94.0393 103.146 95.1808 101.033 95.9642C100.279 96.244 99.484 96.4863 98.8767 97.0219C98.2693 97.5576 97.9008 98.4789 98.2728 99.1988C98.6447 99.9188 99.5898 100.154 100.381 100.004C101.173 99.8539 101.879 99.4206 102.633 99.134C104.043 98.5983 105.868 98.6904 106.776 99.9085C107.05 100.329 107.224 100.807 107.283 101.305C107.342 101.803 107.285 102.309 107.117 102.781C106.776 103.725 106.249 104.59 105.568 105.327C103.336 108.021 100.431 110.075 97.1468 111.281C93.8746 112.427 90.8413 112.741 87.5931 111.561" fill="#F5F5F5"/>
<path id="Vector_2" d="M89.2104 107.688C90.2275 104.313 91.4373 100.999 92.834 97.7624L93.9191 95.2102C94.2773 94.3742 94.6322 93.5451 95.028 92.7535C95.7908 91.2378 96.636 89.765 97.5597 88.3417C98.4366 86.9769 99.3169 85.7178 100.149 84.5441C100.982 83.3704 101.784 82.2922 102.555 81.3402C103.763 79.831 105.089 78.4197 106.52 77.1195C107.025 76.6623 107.431 76.3177 107.707 76.0959L108.021 75.8366L108.134 75.7547C108.103 75.7892 108.07 75.8211 108.035 75.8502L107.731 76.1232C107.461 76.362 107.066 76.7169 106.571 77.1843C105.168 78.4978 103.867 79.9156 102.678 81.4255C101.917 82.3775 101.125 83.4727 100.289 84.6362C99.4534 85.7997 98.5833 87.0758 97.7167 88.4372C96.7977 89.8581 95.956 91.3274 95.1952 92.8388C94.8028 93.6235 94.4514 94.4493 94.0931 95.2852L93.0115 97.8374C91.6177 101.065 90.4056 104.369 89.3811 107.732" fill="#E0E0E0"/>
<path id="Vector_3" d="M95.0823 92.7466C95.0321 92.6053 94.9978 92.4588 94.9799 92.3099C94.9253 92.0233 94.8605 91.6104 94.7854 91.0986C94.6353 90.075 94.4818 88.659 94.3146 87.0929C94.1474 85.5268 93.9734 84.1142 93.8062 83.0974C93.7277 82.589 93.6561 82.1761 93.6049 81.8929C93.5697 81.7464 93.5502 81.5966 93.5469 81.446C93.6063 81.5839 93.6498 81.7281 93.6765 81.8759C93.7516 82.1557 93.8403 82.5583 93.9393 83.0735C94.1372 84.0971 94.3351 85.5029 94.5023 87.0724C94.6694 88.642 94.8059 90.0136 94.9185 91.0816C94.9697 91.5661 95.0175 91.9721 95.0516 92.2963C95.0779 92.4449 95.0882 92.5959 95.0823 92.7466Z" fill="#E0E0E0"/>
<path id="Vector_4" d="M108.284 90.2388C108.111 90.2739 107.935 90.2956 107.758 90.3036C107.417 90.3343 106.929 90.3753 106.325 90.4469C105.114 90.5834 103.449 90.8256 101.627 91.1771C99.8048 91.5285 98.1636 91.9175 96.9864 92.2348C96.3996 92.3884 95.9253 92.5248 95.5977 92.617C95.4307 92.677 95.2581 92.7204 95.0825 92.7466C95.2392 92.6642 95.4038 92.5979 95.5739 92.5487C95.898 92.4327 96.3654 92.2758 96.9387 92.1052C98.109 91.764 99.7468 91.3409 101.576 90.986C103.137 90.6786 104.713 90.4509 106.298 90.3036C106.905 90.249 107.4 90.2251 107.741 90.2183C107.922 90.2065 108.104 90.2134 108.284 90.2388Z" fill="#E0E0E0"/>
<path id="Vector_5" d="M89.3707 107.442C89.3707 107.442 89.3332 107.391 89.282 107.282L89.0534 106.804C88.8589 106.391 88.5893 105.781 88.2686 105.027C87.6271 103.515 86.8083 101.4 85.9314 99.0521C85.0545 96.7046 84.256 94.5823 83.6487 93.0606C83.3484 92.3201 83.1028 91.7128 82.9219 91.259L82.724 90.7677C82.6975 90.7114 82.6792 90.6517 82.6694 90.5902C82.7067 90.6409 82.7376 90.6959 82.7616 90.754L82.9868 91.2283C83.1847 91.6446 83.4508 92.2519 83.7715 93.0094C84.413 94.5209 85.2353 96.6364 86.1088 98.9839C86.9823 101.331 87.7841 103.45 88.3914 104.975L89.1216 106.777C89.1967 106.97 89.2615 107.134 89.3161 107.268C89.3418 107.324 89.3601 107.382 89.3707 107.442Z" fill="#E0E0E0"/>
<path id="Vector_6" d="M106.909 101.734C106.854 101.766 106.796 101.79 106.735 101.806L106.226 101.976L104.346 102.594C102.763 103.112 100.593 103.856 98.1703 104.679C95.7477 105.501 93.5708 106.228 91.974 106.726C91.1756 106.971 90.5273 107.163 90.0769 107.285L89.5549 107.422C89.4957 107.443 89.4335 107.455 89.3706 107.456C89.4261 107.426 89.4844 107.402 89.5446 107.384L90.053 107.214L91.9331 106.596C93.5197 106.077 95.6863 105.337 98.1088 104.511C100.531 103.686 102.712 102.962 104.309 102.464C105.107 102.218 105.755 102.027 106.206 101.908L106.724 101.768C106.783 101.747 106.846 101.735 106.909 101.734Z" fill="#E0E0E0"/>
<path id="Vector_7" d="M8.18114 23.9632C8.18114 23.9632 5.025 24.8264 7.74098 31.6335C10.457 38.4405 12.453 41.8696 12.453 41.8696C12.453 41.8696 12.9 43.4323 11.6102 43.5483C10.3205 43.6643 7.56015 42.9614 6.85044 44.4627C6.11344 46.0186 7.14388 47.6496 9.39583 49.2055C11.6478 50.7614 16.4519 54.344 16.9023 54.6648C17.3527 54.9855 17.7144 55.7293 16.8477 55.9477C15.9811 56.1661 9.62784 56.2411 9.8428 59.254C10.0578 62.2668 17.0388 65.5663 17.7963 65.9416C18.5538 66.3169 18.7073 66.6683 18.6049 67.0914C18.5026 67.5145 16.3632 67.3405 14.5582 67.4326C12.7533 67.5248 10.6753 67.9547 10.9449 69.6846C11.2144 71.4145 15.1656 75.3554 25.4631 77.3344L30.2946 77.9417L33.3109 74.093C39.2649 65.4605 39.3195 59.8784 38.2993 58.4556C37.2791 57.0327 35.5014 58.1894 34.1468 59.387C32.7922 60.5847 31.3933 62.2088 31.0214 61.9802C30.6495 61.7516 30.5164 61.3899 30.7928 60.5915C31.0691 59.7931 33.7339 52.5459 31.7754 50.2462C29.8169 47.9465 25.2345 52.348 24.4634 52.8018C23.6923 53.2556 23.4398 52.4606 23.5217 51.9215C23.6036 51.3824 24.518 45.4591 25.0332 42.7738C25.5484 40.0885 25.139 38.2016 23.5217 37.6079C21.9624 37.0347 20.4918 39.4709 19.4887 40.2932C18.4855 41.1155 17.6939 39.7098 17.6939 39.7098C17.6939 39.7098 16.7147 35.861 13.8758 29.1051C11.037 22.3493 8.11972 23.9871 8.11972 23.9871" fill="#EBEBEB"/>
<path id="Vector_8" d="M30.4207 79.1155C28.3734 74.1441 24.8386 65.2489 21.778 57.6196C18.7174 49.9903 15.9365 43.1218 13.8995 38.1266L11.4804 32.2306L10.8219 30.6269L10.6547 30.2106C10.6352 30.1626 10.6181 30.1137 10.6035 30.0639C10.6035 30.0639 10.6274 30.1117 10.6683 30.2038C10.7093 30.2959 10.7741 30.4392 10.8492 30.6167C11.0095 30.9852 11.2382 31.5209 11.5316 32.2101C12.1219 33.5749 12.9646 35.6017 13.9951 38.089C16.0594 43.057 18.8538 49.9493 21.9144 57.5684C24.9751 65.1875 28.4792 74.0929 30.5162 79.0643" fill="#E0E0E0"/>
<path id="Vector_9" d="M10.665 45.6092C10.7835 45.6354 10.8982 45.6767 11.0062 45.7321C11.2144 45.8208 11.5112 45.9607 11.8763 46.1313C12.6065 46.4725 13.6028 46.9877 14.6947 47.5643L17.4789 49.0554C17.8201 49.2328 18.0999 49.3966 18.3251 49.5024C18.4337 49.5485 18.5368 49.6069 18.6322 49.6764C18.5137 49.6502 18.399 49.6089 18.291 49.5536C18.0828 49.4648 17.786 49.3284 17.4209 49.1509C16.6941 48.8097 15.7149 48.2774 14.6128 47.6974L11.8183 46.2302L10.9687 45.7867C10.8624 45.7366 10.7608 45.6773 10.665 45.6092Z" fill="#E0E0E0"/>
<path id="Vector_10" d="M18.9801 49.3966C18.9425 49.3966 19.8945 47.2777 21.1092 44.705C22.3239 42.1324 23.3338 40.0578 23.3714 40.0749C23.4089 40.092 22.457 42.1938 21.2457 44.7699C20.0344 47.346 19.0176 49.4171 18.9801 49.3966Z" fill="#E0E0E0"/>
<path id="Vector_11" d="M23.1533 61.3149C23.2177 61.2124 23.2932 61.1174 23.3785 61.0317L24.0268 60.3015C24.5693 59.6805 25.32 58.8241 26.1116 57.8448C26.9032 56.8656 27.5958 55.9614 28.0871 55.3028L28.674 54.5181C28.739 54.4172 28.8157 54.3244 28.9026 54.2417C28.854 54.3516 28.7934 54.4557 28.7218 54.5522C28.5989 54.7467 28.4113 55.0265 28.1759 55.3643C27.705 56.0467 27.026 56.9645 26.231 57.9404C25.436 58.9162 24.6717 59.7692 24.1053 60.3731C23.8187 60.6734 23.5867 60.9122 23.4229 61.0726C23.3419 61.1627 23.2515 61.2439 23.1533 61.3149Z" fill="#E0E0E0"/>
<path id="Vector_12" d="M14.8789 59.5406C14.9938 59.539 15.1084 59.5516 15.2201 59.5781L16.1107 59.7317C16.8613 59.8682 17.8952 60.0729 19.0348 60.2981C20.1744 60.5233 21.2082 60.7416 21.9555 60.9054L22.8358 61.1067C22.9451 61.1256 23.0516 61.1577 23.1531 61.2023C23.0383 61.2037 22.9237 61.1911 22.8119 61.1647L21.9214 61.0112C21.1707 60.8747 20.1369 60.67 18.9972 60.4448C17.8576 60.2196 16.8238 60.0012 16.0799 59.8375L15.1962 59.6361C15.087 59.6173 14.9804 59.5852 14.8789 59.5406Z" fill="#E0E0E0"/>
<path id="Vector_13" d="M17.2266 70.5274C17.3688 70.5323 17.5103 70.5495 17.6497 70.5786L18.7927 70.7731C19.7549 70.9437 21.0822 71.1859 22.5459 71.4555C24.0097 71.725 25.337 71.998 26.2992 72.1959L27.432 72.4347C27.5715 72.4584 27.7086 72.495 27.8414 72.5439C27.7002 72.5409 27.5596 72.5238 27.4218 72.4927L26.2787 72.3017C25.3165 72.1311 23.9892 71.8854 22.5255 71.6193C21.0617 71.3531 19.7344 71.0767 18.7722 70.8823L17.6394 70.64C17.4983 70.6168 17.3599 70.5791 17.2266 70.5274Z" fill="#E0E0E0"/>
<path id="Vector_14" d="M27.6128 72.4347C27.6949 72.3068 27.7873 72.1859 27.8892 72.0731L28.6739 71.1143C29.3563 70.3056 30.2503 69.1831 31.2227 67.9172C32.1952 66.6513 33.0482 65.481 33.6589 64.6314L34.3823 63.6248C34.4644 63.4961 34.5581 63.375 34.6621 63.2632C34.5953 63.401 34.5178 63.5334 34.4301 63.659C34.2731 63.9046 34.0411 64.2595 33.7476 64.6826C33.1608 65.5492 32.3214 66.7298 31.3592 67.9991C30.397 69.2684 29.4587 70.3875 28.7729 71.1723C28.4317 71.5681 28.1485 71.8854 27.9506 72.1003C27.8482 72.2217 27.7352 72.3336 27.6128 72.4347Z" fill="#E0E0E0"/>
<path id="Vector_15" d="M133.229 40.5321H107.355V67.5009H133.229V40.5321Z" fill="#E0E0E0"/>
<path id="Vector_16" d="M131.479 40.5321H105.605V67.5009H131.479V40.5321Z" fill="#FAFAFA"/>
<path id="Vector_17" d="M131.486 67.5077H105.595V40.5219H131.486V67.5077ZM105.612 67.5077H131.469V40.5526H105.612V67.5077Z" fill="#E0E0E0"/>
<path id="Vector_18" d="M127.998 44.1557H109.082V63.8739H127.998V44.1557Z" fill="#FAFAFA"/>
<path id="Vector_19" d="M109.082 64.007C108.948 64.2054 108.791 64.3875 108.614 64.5495C108.314 64.8668 107.888 65.3001 107.413 65.7676C106.939 66.235 106.499 66.6547 106.175 66.9515C106.013 67.1252 105.829 67.2777 105.629 67.4054C105.763 67.2087 105.918 67.0278 106.093 66.8662C106.397 66.5489 106.823 66.1156 107.297 65.6447C107.772 65.1739 108.215 64.7576 108.536 64.4608C108.699 64.288 108.882 64.1357 109.082 64.007Z" fill="#E0E0E0"/>
<path id="Vector_20" d="M127.999 63.9592C128.198 64.0919 128.38 64.2489 128.541 64.4266C128.858 64.7269 129.292 65.15 129.759 65.6277C130.227 66.1054 130.646 66.5421 130.943 66.8628C131.115 67.0267 131.267 67.2099 131.397 67.4088C131.2 67.2753 131.019 67.1196 130.858 66.9447C130.541 66.6445 130.107 66.218 129.636 65.7403C129.165 65.2626 128.749 64.8259 128.452 64.5017C128.28 64.3394 128.128 64.1573 127.999 63.9592Z" fill="#E0E0E0"/>
<path id="Vector_21" d="M127.947 44.2103C128.079 44.01 128.236 43.8276 128.415 43.6677C128.715 43.347 129.141 42.9171 129.616 42.4462C130.09 41.9754 130.53 41.5625 130.851 41.2657C131.015 41.0936 131.199 40.9402 131.397 40.8084C131.265 41.0077 131.109 41.1899 130.933 41.351C130.633 41.6683 130.206 42.1016 129.728 42.5725C129.251 43.0433 128.814 43.4596 128.49 43.7564C128.327 43.9285 128.145 44.0809 127.947 44.2103Z" fill="#E0E0E0"/>
<path id="Vector_22" d="M109.031 44.258C108.829 44.1299 108.643 43.9775 108.478 43.8042C108.158 43.5006 107.728 43.0775 107.257 42.6032C106.786 42.1289 106.373 41.6888 106.076 41.3646C105.902 41.2019 105.749 41.0185 105.619 40.8187C105.817 40.9518 105.999 41.1075 106.162 41.2827C106.479 41.5864 106.912 42.0129 107.383 42.4872C107.854 42.9615 108.27 43.405 108.567 43.7258C108.743 43.8839 108.898 44.0626 109.031 44.258Z" fill="#E0E0E0"/>
<path id="Vector_23" d="M127.948 63.8739C127.944 63.8422 127.944 63.8101 127.948 63.7784C127.948 63.7136 127.948 63.6215 127.948 63.5054C127.948 63.2564 127.948 62.9015 127.948 62.4409C127.948 61.506 127.948 60.148 127.927 58.4215C127.927 54.9685 127.907 50.0483 127.89 44.1557L127.965 44.2308H109.099L109.161 44.1455C109.161 51.3824 109.161 58.1554 109.161 63.8637L109.089 63.7921L122.737 63.8296L126.576 63.8501H127.6H127.941C127.912 63.8532 127.884 63.8532 127.855 63.8501H127.603H126.6L122.782 63.8705L109.076 63.9081H109.004V63.833C109.004 58.1246 109.004 51.3517 109.004 44.1148V44.0329H109.089H127.954H128.026V44.1455C128.026 50.0552 127.999 54.9924 127.989 58.459C127.989 60.165 127.989 61.5299 127.971 62.4614C127.971 62.9152 127.971 63.2666 127.971 63.5089C127.971 63.6249 127.971 63.7136 127.971 63.7784C127.966 63.8108 127.958 63.8427 127.948 63.8739Z" fill="#E0E0E0"/>
<path id="Vector_24" d="M121.697 50.8604H115.384V57.1727H121.697V50.8604Z" fill="#EBEBEB"/>
<path id="Vector_25" d="M129.318 9.86307L126.722 9.87712L126.792 22.7915L129.388 22.7775L129.318 9.86307Z" fill="#E0E0E0"/>
<path id="Vector_26" d="M110.962 9.89424L104.241 9.9306L104.279 17.0617L111.001 17.0253L110.962 9.89424Z" fill="#EBEBEB"/>
<path id="Vector_27" d="M117.649 9.85467L110.928 9.89104L110.966 17.0221L117.688 16.9857L117.649 9.85467Z" fill="#F5F5F5"/>
<path id="Vector_28" d="M104.247 11.905C108.714 11.9425 113.194 11.905 117.66 11.8436C117.679 11.8436 117.697 11.836 117.711 11.8226C117.724 11.8092 117.732 11.7909 117.732 11.7719C117.732 11.7529 117.724 11.7347 117.711 11.7213C117.697 11.7078 117.679 11.7003 117.66 11.7003C113.195 11.6775 108.725 11.7048 104.251 11.7822C104.235 11.7822 104.219 11.7886 104.207 11.8002C104.196 11.8117 104.189 11.8273 104.189 11.8436C104.189 11.8599 104.196 11.8755 104.207 11.887C104.219 11.8985 104.235 11.905 104.251 11.905H104.247Z" fill="#E0E0E0"/>
<path id="Vector_29" d="M112.259 16.9057L100.048 16.9718L100.079 22.7824L112.291 22.7163L112.259 16.9057Z" fill="#EBEBEB"/>
<path id="Vector_30" d="M124.412 16.84L112.201 16.9061L112.232 22.7167L124.444 22.6506L124.412 16.84Z" fill="#F5F5F5"/>
<path id="Vector_31" d="M100.054 18.5926C108.167 18.6847 116.309 18.5926 124.419 18.4732C124.438 18.4732 124.456 18.4657 124.47 18.4522C124.483 18.4388 124.491 18.4206 124.491 18.4016C124.491 18.3825 124.483 18.3643 124.47 18.3509C124.456 18.3374 124.438 18.3299 124.419 18.3299C116.305 18.2855 108.164 18.2924 100.054 18.4698C100.037 18.4698 100.022 18.4763 100.01 18.4878C99.9987 18.4993 99.9922 18.5149 99.9922 18.5312C99.9922 18.5475 99.9987 18.5631 100.01 18.5746C100.022 18.5862 100.037 18.5926 100.054 18.5926Z" fill="#E0E0E0"/>
<path id="Vector_32" d="M142.8 22.7861H95.4888V24.8674H142.8V22.7861Z" fill="#E0E0E0"/>
<path id="Vector_33" d="M105.155 23.7892H103.234V30.8931H105.155V23.7892Z" fill="#E0E0E0"/>
<path id="Vector_34" d="M133.826 23.7892H131.905V30.8931H133.826V23.7892Z" fill="#E0E0E0"/>
<path id="Vector_35" d="M131.851 5.04181L129.255 5.05586L129.351 22.8187L131.948 22.8047L131.851 5.04181Z" fill="#EBEBEB"/>
<path id="Vector_36" d="M135.906 8.34996L131.873 8.37178L131.95 22.767L135.983 22.7452L135.906 8.34996Z" fill="#F5F5F5"/>
<path id="Vector_37" d="M135.88 11.1305C134.538 11.226 133.19 11.226 131.847 11.1305C133.19 11.0395 134.537 11.0395 135.88 11.1305Z" fill="#E0E0E0"/>
<path id="Vector_38" d="M135.88 10.5265C135.21 10.5945 134.537 10.6173 133.864 10.5948C133.191 10.6174 132.517 10.5946 131.847 10.5265C133.19 10.431 134.538 10.431 135.88 10.5265Z" fill="#E0E0E0"/>
<path id="Vector_39" d="M135.88 20.6023C134.538 20.6979 133.19 20.6979 131.847 20.6023C133.19 20.5114 134.537 20.5114 135.88 20.6023Z" fill="#E0E0E0"/>
<path id="Vector_40" d="M135.88 19.9813C134.538 20.0769 133.19 20.0769 131.847 19.9813C133.19 19.8903 134.537 19.8903 135.88 19.9813Z" fill="#E0E0E0"/>
<path id="Vector_41" d="M133.929 18.6609C133.891 18.6609 133.857 17.2108 133.857 15.4194C133.857 13.6281 133.891 12.1746 133.929 12.1746C133.966 12.1746 133.997 13.6281 133.997 15.4194C133.997 17.2108 133.966 18.6609 133.929 18.6609Z" fill="#E0E0E0"/>
<path id="Vector_42" d="M140.316 11.8914H135.925V22.7553H140.316V11.8914Z" fill="#EBEBEB"/>
<path id="Vector_43" d="M131.261 8.08358C131.261 8.23152 131.217 8.37612 131.134 8.49908C131.052 8.62203 130.935 8.7178 130.799 8.77426C130.662 8.83071 130.511 8.84531 130.366 8.8162C130.221 8.78709 130.088 8.71558 129.984 8.61074C129.879 8.50589 129.809 8.37243 129.78 8.22726C129.752 8.08208 129.767 7.93173 129.824 7.79525C129.881 7.65877 129.977 7.54231 130.101 7.46061C130.224 7.37892 130.369 7.33567 130.517 7.33634C130.714 7.33724 130.904 7.41637 131.043 7.55641C131.182 7.69644 131.261 7.88599 131.261 8.08358Z" fill="#E0E0E0"/>
<path id="Vector_44" d="M130.745 10.1342H130.285V20.7013H130.745V10.1342Z" fill="#E0E0E0"/>
</g>
<g id="freepik--Device--inject-5">
<path id="Vector_45" d="M74.367 125.619L33 125.604C30.6131 125.604 28.3239 124.656 26.636 122.968C24.9482 121.28 24 118.991 24 116.604L24.018 12.9C24.018 11.7166 24.2514 10.5448 24.7048 9.4517C25.1582 8.35859 25.8228 7.36564 26.6604 6.52968C27.498 5.69372 28.4923 5.03116 29.5863 4.57992C30.6803 4.12869 31.8526 3.89765 33.036 3.90001L74.4 3.92401C76.7869 3.92401 79.0761 4.87222 80.764 6.56005C82.4518 8.24788 83.4 10.5371 83.4 12.924L83.382 116.604C83.384 117.788 83.1521 118.962 82.6998 120.056C82.2474 121.151 81.5835 122.145 80.746 122.983C79.9085 123.82 78.9139 124.484 77.8192 124.937C76.7246 125.389 75.5514 125.621 74.367 125.619Z" fill="#263238"/>
<path id="Vector_46" d="M74.4044 6.92143H66.3685C65.8411 6.93427 65.3401 7.15891 64.9747 7.54634C64.6093 7.93377 64.4093 8.45256 64.4182 8.98956V10.4734C64.4241 10.74 64.3784 11.0052 64.2836 11.2538C64.1888 11.5025 64.0467 11.7296 63.8656 11.9223C63.6844 12.1149 63.4677 12.2693 63.2278 12.3766C62.988 12.484 62.7297 12.542 62.4678 12.5476H46.8078C46.5458 12.5416 46.2874 12.4832 46.0476 12.3755C45.8077 12.2679 45.591 12.1132 45.4099 11.9203C45.2288 11.7274 45.0868 11.5001 44.992 11.2513C44.8972 11.0025 44.8515 10.7371 44.8575 10.4703V8.97732C44.868 8.43898 44.6687 7.91829 44.3032 7.52905C43.9378 7.1398 43.4359 6.91365 42.9071 6.90001H40.0762H33.0471C32.2171 6.898 31.3948 7.0627 30.6274 7.38467C29.86 7.70663 29.1626 8.17955 28.5749 8.77634C27.9873 9.37313 27.5211 10.0821 27.203 10.8625C26.885 11.643 26.7212 12.4797 26.7212 13.3247L26.7002 116.551C26.7002 118.255 27.3651 119.889 28.5486 121.094C29.7321 122.299 31.3373 122.976 33.0111 122.976L74.3683 123C75.197 123 76.0177 122.834 76.7834 122.511C77.549 122.188 78.2447 121.715 78.8307 121.118C79.4168 120.522 79.8816 119.813 80.1988 119.034C80.5159 118.254 80.6792 117.419 80.6792 116.575L80.7002 13.3461C80.7002 11.6448 80.0374 10.013 78.8571 8.80857C77.6768 7.60415 76.0755 6.92548 74.4044 6.92143Z" fill="white"/>
</g>
<g id="freepik--Floor--inject-14">
<path id="Vector_47" d="M142.677 138.927C142.677 138.969 114.333 139.005 79.3772 139.005C44.4212 139.005 16.0771 138.969 16.0771 138.927C16.0771 138.885 44.4151 138.849 79.3772 138.849C114.339 138.849 142.677 138.882 142.677 138.927Z" fill="#263238"/>
</g>
<g id="freepik--Character--inject-14">
<path id="Vector_48" d="M99.8818 98.6341C99.8818 98.6341 96.9508 95.9011 96.4048 95.7361C95.8588 95.5711 91.5508 95.6311 91.2658 95.8531C90.9808 96.0751 86.7028 98.6131 87.4378 98.9551C88.1728 99.2971 91.1368 97.4851 91.1368 97.4851L91.6468 97.5361C91.6468 97.5361 89.0578 99.0361 88.6048 99.5881C88.1518 100.14 88.6228 100.686 89.1088 100.44C89.5948 100.194 91.8088 98.8141 91.9918 98.8591C92.1748 98.9041 89.6338 100.503 89.4028 100.791C89.1028 101.178 89.3278 101.901 89.8168 101.673C90.1168 101.541 92.4418 99.8731 92.4418 99.8731C92.4418 99.8731 90.6868 101.451 90.5668 101.703C90.3688 102.117 90.7858 102.471 91.1938 102.201C91.4728 102.018 92.6608 100.77 93.0358 100.524C93.0358 100.524 93.4588 100.479 94.1008 101.124C94.7428 101.769 99.5548 103.929 99.5548 103.929L99.8818 98.6341Z" fill="#FFBE9D"/>
<path id="Vector_49" d="M98.8531 99.081C98.6731 99.447 98.1901 99.558 97.7911 99.486C97.3921 99.414 97.0231 99.21 96.6271 99.111C95.4451 98.811 94.1641 99.477 93.0001 99.111C92.8351 99.06 92.6521 98.9491 92.6641 98.7781C92.6761 98.6071 92.8531 98.5381 93.0001 98.4781L96.8071 97.1281" fill="#FFBE9D"/>
<path id="Vector_50" d="M96.8071 97.1461C96.66 97.1618 96.5158 97.1971 96.3781 97.2511C96.1111 97.3321 95.7211 97.4551 95.2441 97.6141L93.5731 98.1811L93.0901 98.3491C92.9401 98.4151 92.7181 98.4331 92.5801 98.6761C92.5534 98.7386 92.546 98.8077 92.5589 98.8745C92.5717 98.9413 92.6041 99.0028 92.6521 99.0511C92.7319 99.1287 92.8283 99.1871 92.9341 99.2221C93.1243 99.2809 93.3205 99.3182 93.5191 99.3331C94.3201 99.3871 95.0371 99.1801 95.6881 99.1441C95.9892 99.1189 96.2925 99.1381 96.5881 99.2011C96.8641 99.2671 97.1161 99.3781 97.3591 99.4561C97.5493 99.5384 97.7552 99.5784 97.9624 99.5733C98.1696 99.5681 98.3732 99.5179 98.5591 99.4261C98.8171 99.2641 98.8591 99.0781 98.8411 99.0811C98.7509 99.1889 98.6409 99.2785 98.5171 99.3451C98.3398 99.4153 98.1497 99.4478 97.9592 99.4406C97.7686 99.4333 97.5816 99.3865 97.4101 99.3031C97.1554 99.1897 96.8951 99.0895 96.6301 99.0031C96.3143 98.9257 95.9885 98.8974 95.6641 98.9191C94.9861 98.9461 94.2661 99.1441 93.5281 99.0901C93.3479 99.0789 93.1697 99.0467 92.9971 98.9941C92.8381 98.9431 92.7271 98.8321 92.7751 98.7541C92.8231 98.6761 92.9881 98.6011 93.1501 98.5441L93.6301 98.3701L95.2861 97.7551C95.7571 97.5781 96.1381 97.4311 96.3961 97.3231C96.5401 97.2819 96.6782 97.2224 96.8071 97.1461Z" fill="#EB996E"/>
<path id="Vector_51" d="M87.4502 98.9641C87.7611 98.9962 88.0754 98.9656 88.3742 98.8741C88.703 98.7989 89.0236 98.6913 89.3312 98.5531C89.6672 98.3791 90.0272 98.1811 90.4082 97.9711L91.2152 97.5181L91.1612 97.5331C92.4452 97.5061 93.3722 97.4491 93.3722 97.3981C93.3722 97.3471 92.4452 97.3141 91.1582 97.3141H91.1312L91.1042 97.3291L90.3002 97.7671L89.2442 98.3671C88.9529 98.5068 88.6521 98.6261 88.3442 98.7241C87.7952 98.8801 87.4472 98.9281 87.4502 98.9641Z" fill="#EB996E"/>
<path id="Vector_52" d="M131.76 89.601L112.032 97.809H99.8818V101.727L115.821 104.085L130.119 95.175L131.76 89.601Z" fill="url(#paint0_linear_950_688)"/>
<g id="Group" opacity="0.3">
<path id="Vector_53" d="M131.76 89.601L112.032 97.809H99.8818V101.727L115.821 104.085L130.119 95.175L131.76 89.601Z" fill="black"/>
</g>
<path id="Vector_54" d="M118.161 101.907C118.076 101.884 117.999 101.836 117.942 101.769C117.781 101.593 117.677 101.372 117.642 101.136C117.607 100.795 117.596 100.452 117.612 100.11C117.605 99.6996 117.548 99.2914 117.441 98.8951C117.245 98.1712 116.897 97.4972 116.421 96.9181C116.055 96.4711 115.764 96.255 115.785 96.231C115.862 96.2681 115.934 96.3155 115.998 96.372C116.181 96.5147 116.35 96.6733 116.505 96.8461C117.021 97.4195 117.393 98.1074 117.591 98.8531C117.702 99.2628 117.757 99.6856 117.756 100.11C117.735 100.447 117.735 100.784 117.756 101.121C117.782 101.339 117.866 101.546 117.999 101.721C118.089 101.85 118.167 101.895 118.161 101.907Z" fill="#FAFAFA"/>
<path id="Vector_55" d="M125.403 97.623C125.155 97.5612 124.919 97.4599 124.704 97.323C124.165 97.0163 123.674 96.6334 123.246 96.186C122.817 95.7397 122.453 95.2347 122.166 94.686C122.035 94.4655 121.939 94.2255 121.884 93.975C122.286 94.7341 122.782 95.4396 123.36 96.075C123.974 96.6735 124.66 97.1934 125.403 97.623Z" fill="#FAFAFA"/>
<path id="Vector_56" d="M113.181 103.5C113.334 103.256 113.428 102.98 113.457 102.693C113.476 102.388 113.434 102.082 113.334 101.793C113.203 101.432 113.033 101.086 112.827 100.761C112.619 100.427 112.438 100.077 112.284 99.714C112.163 99.4105 112.098 99.087 112.095 98.76C112.096 98.5391 112.142 98.3207 112.23 98.118C112.296 97.977 112.356 97.914 112.362 97.92C112.255 98.1868 112.202 98.4724 112.206 98.76C112.225 99.0701 112.297 99.3745 112.419 99.66C112.576 100.013 112.758 100.355 112.962 100.683C113.173 101.017 113.344 101.375 113.472 101.748C113.572 102.061 113.604 102.391 113.568 102.717C113.542 102.937 113.466 103.148 113.346 103.335C113.304 103.401 113.248 103.458 113.181 103.5Z" fill="#FAFAFA"/>
<path id="Vector_57" d="M105.864 101.445C105.579 100.89 105.456 100.267 105.507 99.645C105.505 99.0249 105.677 98.4166 106.005 97.89C105.597 99.0289 105.548 100.265 105.864 101.433V101.445Z" fill="#FAFAFA"/>
<path id="Vector_58" d="M93.3599 124.227L88.4309 130.719C88.4309 130.719 80.1749 127.89 79.1489 129L91.3919 139.011L99.4919 129.21L93.3599 124.227Z" fill="#455A64"/>
<path id="Vector_59" d="M92.6488 133.284C92.7379 133.416 92.7749 133.576 92.7527 133.733C92.7305 133.891 92.6508 134.034 92.5288 134.136C92.4003 134.229 92.2411 134.27 92.0838 134.249C91.9264 134.228 91.783 134.148 91.6828 134.025C91.59 133.885 91.5522 133.716 91.5765 133.55C91.6009 133.384 91.6858 133.232 91.8148 133.125C91.9589 133.042 92.1296 133.018 92.2912 133.057C92.4527 133.097 92.5927 133.198 92.6818 133.338" fill="#E0E0E0"/>
<path id="Vector_60" d="M91.3919 139.011L92.1959 138.036L80.1389 128.775C80.1389 128.775 79.4009 128.568 79.1489 129L91.3919 139.011Z" fill="#E0E0E0"/>
<path id="Vector_61" d="M88.2808 130.5C88.2358 130.563 88.5118 130.833 88.6498 131.268C88.7878 131.703 88.7368 132.078 88.8118 132.099C88.8868 132.12 89.0788 131.703 88.9048 131.181C88.7308 130.659 88.3048 130.428 88.2808 130.5Z" fill="#263238"/>
<path id="Vector_62" d="M86.5648 129.975C86.5018 130.023 86.6788 130.335 86.6758 130.755C86.6728 131.175 86.5108 131.49 86.5738 131.535C86.6368 131.58 86.9488 131.274 86.9428 130.755C86.9368 130.236 86.6128 129.921 86.5648 129.975Z" fill="#263238"/>
<path id="Vector_63" d="M84.5792 130.917C84.6212 130.974 84.9482 130.743 85.0622 130.29C85.1762 129.837 85.0052 129.48 84.9392 129.507C84.8732 129.534 84.9032 129.855 84.8042 130.224C84.7052 130.593 84.5252 130.863 84.5792 130.917Z" fill="#263238"/>
<path id="Vector_64" d="M89.5712 129.141C89.5502 129.216 89.8922 129.357 90.2102 129.657C90.5282 129.957 90.7082 130.278 90.7802 130.257C90.8522 130.236 90.7802 129.81 90.3932 129.465C90.0062 129.12 89.5802 129.069 89.5712 129.141Z" fill="#263238"/>
<path id="Vector_65" d="M90.5879 127.848C90.5669 127.872 90.7739 128.103 91.2029 128.346C91.4563 128.488 91.7263 128.598 92.0069 128.673C92.1723 128.719 92.3407 128.753 92.5109 128.775C92.6103 128.79 92.7115 128.79 92.8109 128.775C92.888 128.768 92.9601 128.734 93.0148 128.679C93.0696 128.624 93.1036 128.552 93.1109 128.475C93.1154 128.409 93.1041 128.343 93.0781 128.282C93.052 128.221 93.0118 128.167 92.9609 128.124C92.8846 128.059 92.7985 128.006 92.7059 127.968C92.5444 127.897 92.3767 127.84 92.2049 127.8C91.9218 127.722 91.628 127.691 91.3349 127.707C91.0639 127.694 90.7955 127.765 90.5669 127.911C90.5669 127.953 90.8669 127.878 91.3379 127.911C91.6087 127.922 91.877 127.969 92.1359 128.049C92.2877 128.097 92.4352 128.157 92.5769 128.229C92.7329 128.301 92.8439 128.388 92.8319 128.475C92.8319 128.505 92.8319 128.517 92.7629 128.532C92.6892 128.542 92.6145 128.542 92.5409 128.532C92.3803 128.515 92.221 128.488 92.0639 128.451C91.7971 128.391 91.5369 128.304 91.2869 128.193C91.0618 128.063 90.8283 127.947 90.5879 127.848Z" fill="#263238"/>
<path id="Vector_66" d="M90.5972 127.998C90.5972 128.025 90.8972 127.908 91.2422 127.539C91.4373 127.32 91.5945 127.069 91.7072 126.798C91.7735 126.637 91.8228 126.469 91.8542 126.297C91.8874 126.19 91.8921 126.075 91.8679 125.965C91.8437 125.855 91.7914 125.754 91.7162 125.67C91.661 125.626 91.5942 125.599 91.524 125.592C91.4537 125.585 91.3829 125.599 91.3202 125.631C91.2298 125.676 91.1469 125.735 91.0742 125.805C90.9415 125.924 90.8282 126.062 90.7382 126.216C90.5834 126.473 90.4948 126.765 90.4802 127.065C90.4622 127.578 90.6512 127.851 90.6722 127.836C90.6582 127.585 90.6582 127.334 90.6722 127.083C90.7099 126.82 90.8052 126.569 90.9512 126.348C91.0335 126.219 91.1346 126.102 91.2512 126.003C91.3772 125.889 91.5122 125.823 91.5512 125.877C91.587 125.932 91.6102 125.994 91.619 126.059C91.6278 126.124 91.6221 126.19 91.6022 126.252C91.5761 126.407 91.5359 126.56 91.4822 126.708C91.3901 126.961 91.2618 127.2 91.1012 127.416C90.8192 127.8 90.5702 127.962 90.5972 127.998Z" fill="#263238"/>
<path id="Vector_67" d="M85.44 123.531L80.1 130.131C80.1 130.131 71.607 126.921 70.5 128.031L82.914 138.831L91.653 128.901L85.44 123.531Z" fill="#455A64"/>
<path id="Vector_68" d="M84.4052 132.927C84.497 133.069 84.5323 133.24 84.5039 133.407C84.4756 133.573 84.3858 133.723 84.2522 133.827C84.1155 133.92 83.9485 133.957 83.7855 133.93C83.6225 133.903 83.476 133.815 83.3762 133.683C83.2834 133.534 83.2489 133.356 83.2794 133.183C83.3098 133.011 83.4031 132.855 83.5412 132.747C83.6946 132.664 83.8743 132.644 84.0422 132.691C84.2102 132.738 84.3532 132.848 84.4412 132.999" fill="#E0E0E0"/>
<path id="Vector_69" d="M82.905 138.843L83.775 137.856L71.541 127.83C71.541 127.83 70.779 127.59 70.5 128.034L82.905 138.843Z" fill="#E0E0E0"/>
<path id="Vector_70" d="M79.9559 129.9C79.9049 129.963 80.1839 130.254 80.3129 130.707C80.4419 131.16 80.3789 131.556 80.4539 131.58C80.5289 131.604 80.7539 131.175 80.5799 130.629C80.4059 130.083 79.9919 129.819 79.9559 129.9Z" fill="#263238"/>
<path id="Vector_71" d="M78.1832 129.3C78.1202 129.348 78.2912 129.681 78.2762 130.116C78.2612 130.551 78.0812 130.875 78.1442 130.923C78.2072 130.971 78.5432 130.665 78.5552 130.122C78.5672 129.579 78.2372 129.234 78.1832 129.3Z" fill="#263238"/>
<path id="Vector_72" d="M76.0888 130.2C76.1308 130.263 76.4788 130.032 76.6138 129.564C76.7488 129.096 76.5778 128.718 76.5088 128.745C76.4398 128.772 76.4608 129.105 76.3438 129.486C76.2268 129.867 76.0318 130.146 76.0888 130.2Z" fill="#263238"/>
<path id="Vector_73" d="M81.3391 128.517C81.3151 128.595 81.6661 128.754 81.9901 129.075C82.3141 129.396 82.4851 129.738 82.5601 129.714C82.6351 129.69 82.5601 129.249 82.1851 128.874C81.8101 128.499 81.3511 128.445 81.3391 128.517Z" fill="#263238"/>
<path id="Vector_74" d="M82.4398 127.2C82.4188 127.224 82.6258 127.47 83.0638 127.74C83.3233 127.894 83.6003 128.017 83.8888 128.106C84.0594 128.16 84.2339 128.2 84.4108 128.226C84.5092 128.248 84.6105 128.254 84.7108 128.244C84.7869 128.234 84.8576 128.199 84.9118 128.145C84.9661 128.091 85.0009 128.02 85.0108 127.944C85.017 127.875 85.0073 127.806 84.9823 127.741C84.9573 127.677 84.9178 127.619 84.8668 127.572C84.7871 127.505 84.6994 127.447 84.6058 127.401C84.4436 127.32 84.2751 127.251 84.1018 127.197C83.8098 127.111 83.5063 127.069 83.2018 127.074C82.6828 127.092 82.3858 127.233 82.3978 127.263C82.4098 127.293 82.7128 127.239 83.1958 127.263C83.4779 127.285 83.7561 127.343 84.0238 127.434C84.1796 127.49 84.331 127.557 84.4768 127.635C84.6388 127.716 84.7498 127.812 84.7318 127.899C84.7318 127.932 84.7318 127.944 84.6598 127.959C84.5831 127.969 84.5055 127.969 84.4288 127.959C84.2628 127.937 84.0985 127.904 83.9368 127.86C83.66 127.786 83.3908 127.685 83.1328 127.56C82.9105 127.424 82.6789 127.304 82.4398 127.2Z" fill="#263238"/>
<path id="Vector_75" d="M82.4428 127.362C82.4428 127.389 82.7668 127.278 83.1298 126.906C83.3411 126.685 83.5126 126.429 83.6368 126.15C83.713 125.985 83.7704 125.812 83.8078 125.634C83.8467 125.523 83.8559 125.404 83.8343 125.289C83.8127 125.174 83.7611 125.066 83.6848 124.977C83.6288 124.929 83.5602 124.899 83.4873 124.889C83.4144 124.88 83.3402 124.891 83.2738 124.923C83.1798 124.968 83.092 125.026 83.0128 125.094C82.8702 125.215 82.7468 125.356 82.6468 125.514C82.4778 125.777 82.3748 126.076 82.3468 126.387C82.3108 126.921 82.4998 127.212 82.5238 127.197C82.5143 126.935 82.5213 126.672 82.5448 126.411C82.588 126.141 82.6904 125.884 82.8448 125.658C82.9357 125.526 83.0448 125.408 83.1688 125.307C83.3038 125.193 83.4448 125.13 83.4838 125.184C83.5179 125.244 83.539 125.31 83.5457 125.378C83.5524 125.446 83.5446 125.515 83.5228 125.58C83.4908 125.741 83.4436 125.899 83.3818 126.051C83.2772 126.311 83.1357 126.554 82.9618 126.774C82.6798 127.155 82.4188 127.326 82.4428 127.362Z" fill="#263238"/>
<path id="Vector_76" d="M119.379 68.5561C120.579 67.6561 122.424 68.3911 123.723 67.6321C124.509 67.1701 124.923 66.2731 125.523 65.5921C125.999 65.064 126.59 64.6536 127.252 64.3933C127.913 64.133 128.625 64.0299 129.333 64.0921C130.683 64.2751 131.64 64.638 132.243 65.862C133.08 64.899 135.282 65.6041 136.317 66.6661C137.352 67.7281 137.664 69.0931 137.799 70.5661C138.036 73.1182 137.769 75.692 137.013 78.1411C136.947 78.3571 136.812 78.618 136.587 78.597C136.431 78.579 136.329 78.429 136.254 78.297C135.621 77.124 135.336 75.7981 135.006 74.5051C134.676 73.2121 134.277 71.901 133.461 70.845C132.645 69.789 131.334 69.0211 130.011 69.2101C129.036 69.3481 128.19 69.9751 127.539 70.7101C126.888 71.4451 126.387 72.306 125.793 73.095C125.199 73.884 124.488 74.6221 123.573 74.9881C122.658 75.3541 121.506 75.2611 120.816 74.5591C120.126 73.8571 120.153 72.504 120.996 71.994C120.561 72.1016 120.101 72.0547 119.696 71.8613C119.292 71.6679 118.966 71.3401 118.776 70.9337C118.586 70.5273 118.543 70.0675 118.654 69.6329C118.765 69.1982 119.024 68.8155 119.385 68.5501L119.379 68.5561Z" fill="#263238"/>
<path id="Vector_77" d="M131.166 88.902L130.359 86.166C130.359 86.166 126.576 86.724 125.412 83.127C124.851 81.39 123.984 77.727 123.237 74.391C122.851 72.6622 123.13 70.8512 124.02 69.3194C124.909 67.7875 126.344 66.6472 128.037 66.126L128.385 66.018C132.207 65.073 135.147 67.794 135.987 71.64L140.145 86.31C140.482 87.4955 140.335 88.766 139.738 89.844C139.142 90.9221 138.142 91.7202 136.959 92.064C135.771 92.4118 134.494 92.2741 133.408 91.6813C132.322 91.0884 131.516 90.0889 131.166 88.902Z" fill="#FFBE9D"/>
<path id="Vector_78" d="M130.356 86.1661C132.032 85.6798 133.526 84.7054 134.646 83.3671C134.646 83.3671 134.346 86.3101 130.635 87.1021L130.356 86.1661Z" fill="#EB996E"/>
<path id="Vector_79" d="M124.8 76.899C124.84 77.0335 124.932 77.1469 125.054 77.2152C125.177 77.2835 125.321 77.3014 125.457 77.265C125.524 77.2495 125.587 77.2209 125.643 77.1807C125.699 77.1405 125.746 77.0896 125.782 77.031C125.818 76.9724 125.842 76.9072 125.853 76.8392C125.863 76.7712 125.86 76.7018 125.844 76.635C125.804 76.5002 125.713 76.3863 125.59 76.3178C125.467 76.2494 125.323 76.2319 125.187 76.269C125.12 76.2842 125.056 76.3126 125 76.3527C124.944 76.3928 124.897 76.4437 124.861 76.5024C124.824 76.5611 124.8 76.6265 124.79 76.6946C124.78 76.7627 124.783 76.8322 124.8 76.899Z" fill="#263238"/>
<path id="Vector_80" d="M124.56 75.9151C124.647 75.9631 124.947 75.5521 125.502 75.3811C126.057 75.2101 126.549 75.3631 126.588 75.2761C126.609 75.2371 126.507 75.1351 126.288 75.0631C125.995 74.9692 125.68 74.9692 125.388 75.0631C125.098 75.1511 124.845 75.3299 124.665 75.5731C124.539 75.7561 124.521 75.9001 124.56 75.9151Z" fill="#263238"/>
<path id="Vector_81" d="M130.161 75.3331C130.201 75.4679 130.292 75.5818 130.415 75.6503C130.538 75.7187 130.682 75.7362 130.818 75.6991C130.885 75.6843 130.949 75.6562 131.005 75.6164C131.061 75.5766 131.108 75.526 131.144 75.4675C131.18 75.409 131.204 75.3439 131.215 75.2759C131.225 75.208 131.222 75.1387 131.205 75.0721C131.165 74.9371 131.074 74.8229 130.952 74.754C130.829 74.6851 130.684 74.6668 130.548 74.7031C130.481 74.7186 130.418 74.7472 130.362 74.7874C130.306 74.8276 130.259 74.8785 130.223 74.9371C130.187 74.9957 130.163 75.0609 130.152 75.1289C130.142 75.1969 130.145 75.2663 130.161 75.3331Z" fill="#263238"/>
<path id="Vector_82" d="M130.047 74.328C130.131 74.376 130.431 73.965 130.986 73.794C131.541 73.623 132.036 73.776 132.075 73.689C132.093 73.65 131.991 73.548 131.775 73.476C131.482 73.3839 131.168 73.3839 130.875 73.476C130.586 73.5641 130.332 73.7429 130.152 73.986C130.026 74.169 130.005 74.307 130.047 74.328Z" fill="#263238"/>
<path id="Vector_83" d="M129.309 79.065C128.988 79.0655 128.669 79.1048 128.358 79.182C128.211 79.212 128.058 79.227 128.013 79.137C127.958 78.9936 127.945 78.8374 127.977 78.687C128.004 78.303 128.034 77.901 128.064 77.487C128.169 75.771 128.199 74.379 128.13 74.376C128.061 74.373 127.917 75.759 127.812 77.475C127.791 77.898 127.767 78.3 127.749 78.675C127.71 78.8733 127.744 79.0788 127.845 79.254C127.882 79.2974 127.928 79.332 127.98 79.3553C128.031 79.3786 128.088 79.3902 128.145 79.389C128.229 79.3861 128.313 79.372 128.394 79.347C128.71 79.2924 129.017 79.1976 129.309 79.065Z" fill="#263238"/>
<path id="Vector_84" d="M131.061 78.945C130.968 78.966 131.154 79.569 130.761 80.145C130.368 80.721 129.717 80.865 129.738 80.949C129.759 81.033 129.918 81.021 130.191 80.949C130.545 80.8435 130.85 80.6174 131.055 80.3101C131.251 80.0145 131.325 79.6538 131.259 79.3051C131.205 79.0561 131.1 78.927 131.061 78.945Z" fill="#263238"/>
<path id="Vector_85" d="M129.105 71.5021C129.207 71.6371 129.741 71.3941 130.416 71.2711C131.091 71.1481 131.67 71.1601 131.715 70.9981C131.733 70.9231 131.598 70.8091 131.34 70.7281C131.002 70.6333 130.646 70.621 130.302 70.6921C129.958 70.7556 129.633 70.8995 129.354 71.1121C129.147 71.2831 129.063 71.4391 129.105 71.5021Z" fill="#263238"/>
<path id="Vector_86" d="M124.266 74.2471C124.404 74.3431 124.746 74.0941 125.202 73.9471C125.658 73.8001 126.078 73.7701 126.126 73.6111C126.147 73.5331 126.045 73.4251 125.826 73.3591C125.554 73.2846 125.265 73.2951 124.998 73.3891C124.73 73.4782 124.497 73.6479 124.329 73.8751C124.218 74.0521 124.206 74.1991 124.266 74.2471Z" fill="#263238"/>
<path id="Vector_87" d="M136.509 74.4C136.56 74.352 138.762 72.9 139.446 75.39C140.13 77.88 137.49 78.057 137.466 77.985C137.442 77.913 136.509 74.4 136.509 74.4Z" fill="#FFBE9D"/>
<path id="Vector_88" d="M137.967 76.839C137.967 76.839 138.018 76.857 138.102 76.869C138.218 76.8864 138.335 76.8573 138.429 76.788C138.663 76.617 138.771 76.14 138.66 75.687C138.607 75.467 138.504 75.2618 138.36 75.087C138.316 75.0154 138.255 74.9558 138.182 74.9134C138.109 74.8711 138.027 74.8472 137.943 74.844C137.889 74.844 137.837 74.8629 137.796 74.8975C137.755 74.932 137.727 74.9801 137.718 75.033C137.718 75.111 137.718 75.156 137.718 75.165C137.718 75.174 137.655 75.138 137.646 75.03C137.644 74.9648 137.663 74.9005 137.7 74.847C137.755 74.7769 137.834 74.7298 137.922 74.715C138.031 74.7069 138.139 74.727 138.237 74.7733C138.336 74.8195 138.42 74.8904 138.483 74.979C138.649 75.1648 138.766 75.3883 138.825 75.63C138.948 76.137 138.825 76.677 138.489 76.881C138.427 76.9192 138.358 76.943 138.286 76.9508C138.214 76.9586 138.141 76.9502 138.072 76.926C137.988 76.896 137.958 76.845 137.967 76.839Z" fill="#EB996E"/>
<path id="Vector_89" d="M122.241 73.872C123.103 73.8295 123.943 73.5833 124.692 73.1536C125.441 72.7239 126.077 72.123 126.549 71.4C127.194 70.383 127.542 69.102 128.535 68.421C128.879 68.2052 129.263 68.0599 129.665 67.9935C130.066 67.927 130.476 67.9408 130.872 68.034C131.664 68.2243 132.407 68.5767 133.056 69.069C132.93 71.118 134.031 73.023 135.096 74.769C135.193 74.9762 135.357 75.145 135.561 75.249C135.924 75.384 136.305 75.072 136.476 74.727C136.707 74.1565 136.766 73.5309 136.647 72.927C136.496 71.5243 136.067 70.1657 135.384 68.931C134.695 67.6929 133.659 66.6841 132.402 66.03C130.795 65.269 128.956 65.1614 127.272 65.73C125.597 66.3063 124.146 67.396 123.126 68.844C122.622 69.4906 122.287 70.2525 122.151 71.061" fill="#263238"/>
<path id="Vector_90" d="M118.605 69.747C118.62 69.8212 118.649 69.8916 118.692 69.954C118.813 70.1384 118.989 70.2793 119.196 70.356C119.524 70.4726 119.88 70.481 120.213 70.38C120.421 70.3269 120.622 70.2504 120.813 70.152C121.033 70.0408 121.219 69.8731 121.353 69.666C121.428 69.5492 121.475 69.4169 121.491 69.2792C121.507 69.1415 121.492 69.002 121.446 68.871C121.383 68.7329 121.282 68.6156 121.154 68.5332C121.026 68.4508 120.878 68.4067 120.726 68.406C120.568 68.3958 120.409 68.4235 120.264 68.487C120.114 68.5565 119.986 68.668 119.898 68.808C119.812 68.9539 119.759 69.1165 119.742 69.2847C119.725 69.453 119.744 69.623 119.799 69.783C119.911 70.1222 120.151 70.4042 120.468 70.569C120.793 70.7373 121.156 70.817 121.521 70.8C122.28 70.7419 122.997 70.4302 123.558 69.915C124.12 69.4195 124.624 68.8608 125.058 68.25C125.457 67.6919 125.9 67.1672 126.384 66.681C126.825 66.2474 127.363 65.9254 127.953 65.742C128.472 65.5997 129.016 65.5731 129.546 65.664C130.319 65.805 131.042 66.1429 131.646 66.645C131.862 66.819 132.018 66.969 132.123 67.071C132.172 67.1266 132.225 67.1788 132.282 67.227C132.282 67.227 132.282 67.209 132.249 67.182C132.216 67.155 132.189 67.107 132.141 67.053C131.996 66.8942 131.84 66.7449 131.676 66.606C131.074 66.0817 130.345 65.7257 129.561 65.574C129.017 65.4744 128.457 65.4969 127.923 65.64C127.314 65.8234 126.759 66.1506 126.303 66.594C125.812 67.0829 125.362 67.6117 124.959 68.175C124.533 68.7764 124.041 69.3278 123.492 69.819C122.951 70.3141 122.261 70.6149 121.53 70.674C121.188 70.6915 120.847 70.618 120.543 70.461C120.252 70.3133 120.031 70.0568 119.928 69.747C119.877 69.6034 119.858 69.4504 119.872 69.2987C119.886 69.1469 119.933 69 120.009 68.868C120.086 68.7476 120.194 68.6506 120.322 68.5876C120.45 68.5246 120.593 68.4981 120.735 68.511C120.867 68.5111 120.997 68.5486 121.109 68.6192C121.221 68.6898 121.311 68.7906 121.368 68.91C121.409 69.0263 121.424 69.1504 121.41 69.273C121.397 69.3956 121.356 69.5136 121.29 69.618C121.167 69.814 120.994 69.9735 120.789 70.08C120.606 70.1787 120.411 70.2552 120.21 70.308C119.891 70.4106 119.548 70.4106 119.229 70.308C119.03 70.2371 118.857 70.1087 118.731 69.939C118.685 69.8777 118.643 69.8136 118.605 69.747Z" fill="#455A64"/>
<path id="Vector_91" d="M137.409 68.661C137.194 68.8286 136.962 68.9725 136.716 69.09C136.446 69.2042 136.156 69.2623 135.864 69.261C135.503 69.2598 135.144 69.2063 134.799 69.102C134.172 68.9049 133.626 68.5089 133.245 67.974C133.095 67.7454 132.961 67.5068 132.843 67.26C132.85 67.3353 132.868 67.4091 132.897 67.479C132.967 67.6709 133.058 67.8541 133.17 68.025C133.545 68.5979 134.109 69.0222 134.763 69.225C135.12 69.3348 135.493 69.3874 135.867 69.381C136.178 69.3769 136.485 69.3063 136.767 69.174C136.952 69.085 137.123 68.9688 137.274 68.829C137.367 68.73 137.415 68.667 137.409 68.661Z" fill="#455A64"/>
<path id="Vector_92" d="M137.856 70.4821C137.856 70.4611 137.577 70.6141 137.103 70.7311C136.487 70.8891 135.84 70.8786 135.23 70.7007C134.62 70.5229 134.069 70.1841 133.635 69.7201C133.299 69.3661 133.155 69.0931 133.134 69.1051C133.153 69.1756 133.183 69.2425 133.224 69.3031C133.322 69.474 133.436 69.6347 133.566 69.7831C134.001 70.2758 134.565 70.6365 135.195 70.8241C135.826 71.0079 136.496 71.0079 137.127 70.8241C137.316 70.7691 137.5 70.6958 137.676 70.6051C137.742 70.5735 137.802 70.532 137.856 70.4821Z" fill="#455A64"/>
<path id="Vector_93" d="M132.621 76.1161C132.639 76.1124 132.654 76.1024 132.665 76.088C132.675 76.0736 132.68 76.0558 132.678 76.0381C132.677 76.0203 132.668 76.0038 132.655 75.992C132.641 75.9803 132.624 75.9742 132.606 75.9751C132.589 75.9787 132.573 75.9887 132.563 76.0031C132.552 76.0175 132.547 76.0353 132.549 76.0531C132.55 76.062 132.552 76.0708 132.556 76.0788C132.56 76.0869 132.565 76.0941 132.572 76.1C132.578 76.1059 132.586 76.1104 132.595 76.1131C132.603 76.1159 132.612 76.1169 132.621 76.1161Z" fill="#EB996E"/>
<path id="Vector_94" d="M131.487 76.2C131.506 76.1949 131.522 76.1833 131.533 76.1673C131.543 76.1513 131.548 76.132 131.546 76.1129C131.544 76.0937 131.535 76.0759 131.521 76.0628C131.507 76.0496 131.488 76.0419 131.469 76.041C131.46 76.0432 131.451 76.0471 131.443 76.0526C131.436 76.0582 131.429 76.0652 131.424 76.0733C131.419 76.0814 131.416 76.0904 131.414 76.0998C131.412 76.1092 131.413 76.1188 131.415 76.128C131.415 76.1375 131.417 76.1469 131.421 76.1556C131.424 76.1643 131.429 76.1723 131.436 76.179C131.443 76.1856 131.451 76.1909 131.46 76.1946C131.468 76.1982 131.478 76.2 131.487 76.2Z" fill="#EB996E"/>
<path id="Vector_95" d="M130.767 76.4071C130.8 76.4071 130.821 76.3501 130.812 76.2931C130.803 76.2361 130.764 76.1941 130.731 76.2001C130.698 76.2061 130.674 76.2571 130.686 76.3141C130.698 76.3711 130.731 76.4131 130.767 76.4071Z" fill="#EB996E"/>
<path id="Vector_96" d="M132.306 76.941C132.339 76.941 132.36 76.905 132.354 76.884C132.348 76.863 132.315 76.854 132.282 76.863C132.249 76.872 132.225 76.899 132.231 76.923C132.239 76.9344 132.251 76.9424 132.265 76.9457C132.279 76.949 132.293 76.9473 132.306 76.941Z" fill="#EB996E"/>
<path id="Vector_97" d="M131.262 77.0191C131.279 77.0135 131.294 77.0014 131.303 76.9852C131.312 76.969 131.315 76.9499 131.31 76.932C131.307 76.9142 131.297 76.8983 131.282 76.8876C131.268 76.877 131.25 76.8724 131.232 76.875C131.215 76.8806 131.2 76.8923 131.192 76.9078C131.183 76.9233 131.18 76.9416 131.184 76.959C131.187 76.9771 131.196 76.9933 131.211 77.0045C131.225 77.0156 131.244 77.0208 131.262 77.0191Z" fill="#EB996E"/>
<path id="Vector_98" d="M126.018 77.982C126.036 77.9791 126.052 77.9693 126.063 77.9547C126.073 77.9401 126.078 77.9219 126.075 77.904C126.074 77.886 126.065 77.8692 126.052 77.857C126.039 77.8447 126.021 77.838 126.003 77.838C125.984 77.838 125.966 77.8456 125.952 77.8591C125.939 77.8726 125.931 77.891 125.931 77.91C125.931 77.9291 125.939 77.9475 125.952 77.961C125.966 77.9745 125.984 77.982 126.003 77.982H126.018Z" fill="#EB996E"/>
<path id="Vector_99" d="M125.274 78.141C125.291 78.1419 125.309 78.1372 125.323 78.1277C125.338 78.1182 125.35 78.1043 125.356 78.0879C125.362 78.0716 125.364 78.0537 125.359 78.0366C125.355 78.0196 125.346 78.0044 125.332 77.993C125.319 77.9817 125.302 77.9748 125.285 77.9734C125.267 77.972 125.25 77.9761 125.235 77.9852C125.219 77.9942 125.208 78.0078 125.201 78.0239C125.194 78.04 125.192 78.0579 125.196 78.075C125.198 78.0939 125.207 78.1111 125.222 78.1234C125.236 78.1356 125.255 78.1419 125.274 78.141Z" fill="#EB996E"/>
<path id="Vector_100" d="M126.66 77.802C126.668 77.802 126.676 77.8004 126.684 77.7972C126.691 77.794 126.698 77.7893 126.703 77.7834C126.709 77.7775 126.713 77.7705 126.716 77.7629C126.719 77.7553 126.72 77.7472 126.72 77.739C126.717 77.7236 126.708 77.7099 126.695 77.7009C126.682 77.692 126.666 77.6884 126.651 77.691C126.643 77.691 126.635 77.6927 126.627 77.6959C126.62 77.6991 126.613 77.7038 126.607 77.7097C126.602 77.7155 126.597 77.7225 126.595 77.7302C126.592 77.7378 126.59 77.7459 126.591 77.754C126.594 77.7695 126.603 77.7832 126.616 77.7921C126.628 77.8011 126.644 77.8047 126.66 77.802Z" fill="#EB996E"/>
<path id="Vector_101" d="M126.351 78.69C126.36 78.6905 126.369 78.6891 126.378 78.686C126.386 78.6829 126.394 78.6781 126.401 78.672C126.408 78.6659 126.413 78.6585 126.417 78.6502C126.421 78.642 126.423 78.6331 126.423 78.624C126.426 78.6148 126.427 78.6051 126.425 78.5955C126.424 78.5859 126.421 78.5768 126.415 78.5687C126.41 78.5606 126.403 78.5538 126.395 78.5487C126.387 78.5436 126.377 78.5404 126.368 78.5393C126.358 78.5381 126.348 78.5391 126.339 78.5422C126.33 78.5453 126.322 78.5503 126.315 78.557C126.308 78.5636 126.302 78.5717 126.299 78.5807C126.295 78.5897 126.294 78.5994 126.294 78.6091C126.292 78.6181 126.293 78.6275 126.295 78.6365C126.296 78.6455 126.3 78.6541 126.306 78.6616C126.311 78.6692 126.318 78.6756 126.325 78.6805C126.333 78.6853 126.342 78.6886 126.351 78.69Z" fill="#EB996E"/>
<path id="Vector_102" d="M125.694 78.759C125.708 78.7514 125.718 78.7388 125.723 78.7238C125.728 78.7088 125.728 78.6925 125.721 78.678C125.71 78.6671 125.695 78.6609 125.679 78.6609C125.663 78.6609 125.648 78.6671 125.637 78.678C125.63 78.6812 125.624 78.6858 125.619 78.6916C125.613 78.6973 125.61 78.7042 125.607 78.7116C125.605 78.719 125.604 78.7268 125.605 78.7344C125.606 78.7421 125.609 78.7495 125.613 78.756C125.618 78.7616 125.624 78.7661 125.631 78.7692C125.638 78.7724 125.646 78.7742 125.653 78.7745C125.661 78.7747 125.668 78.7735 125.675 78.7709C125.682 78.7682 125.689 78.7642 125.694 78.759Z" fill="#EB996E"/>
<path id="Vector_103" d="M84.7768 96.3991L90.4378 99.7531L92.7688 100.485L90.1678 97.4041L85.6048 94.9291C85.4098 94.8232 85.1811 94.7982 84.9679 94.8594C84.7547 94.9205 84.574 95.063 84.4648 95.2561C84.3568 95.4495 84.3289 95.6776 84.3873 95.8913C84.4456 96.105 84.5855 96.2873 84.7768 96.3991Z" fill="#263238"/>
<path id="Vector_104" d="M106.356 101.043C106.122 101.07 98.6941 101.433 98.4931 101.061C98.2921 100.689 98.2471 99.609 96.7921 99.381C95.3371 99.153 93.8251 98.8261 93.8251 98.8261L89.9251 96.843C89.9251 96.843 88.9561 97.29 89.9911 98.265C90.5747 98.7947 91.1986 99.2782 91.8571 99.711C92.2201 99.96 91.7611 100.275 91.7611 100.275L86.2441 97.275C86.4577 98.1776 86.9094 99.0064 87.5521 99.675L88.3651 100.536C88.2796 100.906 88.309 101.292 88.4495 101.645C88.59 101.997 88.8348 102.298 89.1511 102.507C90.2791 103.332 92.1811 105.561 93.9151 105.438C95.6491 105.315 96.8701 105.3 96.8701 105.3L105.942 106.434L106.356 101.043Z" fill="#FFBE9D"/>
<path id="Vector_105" d="M106.356 101.043C106.359 101.072 106.359 101.101 106.356 101.13L106.341 101.394C106.326 101.64 106.302 101.994 106.272 102.441C106.209 103.368 106.116 104.715 105.999 106.419V106.467H105.951L96.8762 105.354L94.3592 105.477C94.1402 105.477 93.9272 105.504 93.6962 105.498C93.4686 105.487 93.2436 105.446 93.0272 105.375C92.5912 105.228 92.1782 105.02 91.8002 104.757C91.0377 104.209 90.3112 103.613 89.6252 102.972C89.4452 102.816 89.2592 102.672 89.0672 102.522C88.8651 102.372 88.6913 102.187 88.5542 101.976C88.4147 101.76 88.3206 101.517 88.2778 101.264C88.235 101.01 88.2443 100.75 88.3052 100.5L88.3232 100.575L87.7052 99.918C87.4921 99.6966 87.2918 99.4632 87.1052 99.2191C86.7229 98.7086 86.4335 98.1348 86.2502 97.524C86.2292 97.443 86.2082 97.368 86.1902 97.284L86.1602 97.122L86.3072 97.2L91.8212 100.2H91.7432C91.8173 100.148 91.8788 100.081 91.9232 100.002C91.9413 99.9703 91.9479 99.9332 91.9418 99.8972C91.9358 99.8611 91.9176 99.8282 91.8902 99.804C91.7522 99.693 91.5602 99.57 91.3982 99.456C91.0622 99.219 90.7352 98.976 90.4262 98.718C90.1015 98.4733 89.8188 98.1775 89.5892 97.8421C89.5315 97.7512 89.4937 97.6491 89.4782 97.5426C89.4627 97.4362 89.4698 97.3276 89.4992 97.224C89.5752 97.0229 89.7256 96.8586 89.9192 96.765H89.9492L89.9822 96.783L93.8822 98.7691H93.8642L96.7052 99.3C97.1682 99.3439 97.6043 99.5377 97.9472 99.852C98.1019 100.011 98.226 100.197 98.3131 100.401C98.4031 100.599 98.4542 100.809 98.5322 101.001C98.5562 101.058 98.5592 101.049 98.6102 101.07C98.6552 101.085 98.7014 101.096 98.7482 101.103C98.8472 101.103 98.9432 101.13 99.0482 101.139C99.2462 101.157 99.4382 101.166 99.6302 101.172C100.011 101.187 100.383 101.19 100.737 101.19C101.445 101.19 102.096 101.19 102.684 101.166C103.86 101.139 104.784 101.106 105.411 101.085L106.128 101.058H106.311H106.374H106.314L106.131 101.076L105.414 101.121C104.787 101.154 103.863 101.202 102.687 101.238C102.099 101.258 101.449 101.272 100.737 101.28C100.38 101.28 100.011 101.28 99.6272 101.28C99.4352 101.28 99.2402 101.265 99.0272 101.247C98.9282 101.247 98.8262 101.229 98.7272 101.214C98.6762 101.199 98.6252 101.196 98.5712 101.175C98.5399 101.166 98.511 101.151 98.4866 101.13C98.4622 101.108 98.4429 101.082 98.4302 101.052C98.3462 100.854 98.2952 100.656 98.2082 100.452C98.126 100.26 98.009 100.085 97.8631 99.936C97.5358 99.6405 97.1206 99.4604 96.6812 99.423L93.8192 98.8921H93.8042L89.9042 96.9121H89.9672C89.8087 96.9872 89.6852 97.1204 89.6222 97.284C89.5994 97.369 89.5948 97.4578 89.6088 97.5447C89.6227 97.6316 89.6549 97.7145 89.7032 97.788C89.925 98.1063 90.1964 98.3869 90.5072 98.6191C90.8072 98.8741 91.1372 99.114 91.4702 99.345C91.6412 99.471 91.8002 99.564 91.9832 99.711C92.0313 99.7581 92.0638 99.8189 92.0762 99.8851C92.0865 99.9526 92.076 100.022 92.0462 100.083C91.9896 100.186 91.9094 100.275 91.8122 100.341L91.7762 100.368L91.7342 100.344L86.2172 97.3441L86.3312 97.2601C86.3452 97.3359 86.3633 97.411 86.3852 97.4851C86.563 98.0787 86.8443 98.6363 87.2162 99.132C87.4023 99.3718 87.6027 99.6002 87.8162 99.816L88.4342 100.47L88.4642 100.5V100.545C88.411 100.774 88.4046 101.011 88.4453 101.243C88.486 101.474 88.573 101.695 88.7012 101.892C88.8295 102.088 88.9909 102.261 89.1782 102.402C89.3672 102.549 89.5622 102.702 89.7422 102.858C90.4232 103.496 91.1447 104.089 91.9022 104.634C92.2668 104.889 92.6657 105.091 93.0872 105.234C93.292 105.301 93.5049 105.34 93.7202 105.351C93.9272 105.351 94.1522 105.351 94.3682 105.333L96.8912 105.216L105.963 106.374L105.912 106.416C106.05 104.727 106.161 103.389 106.236 102.468L106.326 101.415L106.35 101.142C106.35 101.076 106.356 101.046 106.356 101.043Z" fill="#EB996E"/>
<path id="Vector_106" d="M88.0951 100.2C88.0681 100.245 88.6951 100.665 89.4691 101.136C90.2431 101.607 90.9151 101.955 90.9421 101.91C90.9691 101.865 90.3421 101.445 89.5681 100.974C88.7941 100.503 88.1221 100.143 88.0951 100.2Z" fill="#EB996E"/>
<path id="Vector_107" d="M89.5199 124.647C89.2529 124.203 99.1709 131.061 99.1709 131.061L108.519 120.681L125.985 138.3L127.437 130.842L130.086 114.546L115.191 99.7231C115.191 99.7231 112.716 97.3021 108.96 99.4231C105.879 101.154 89.5199 124.647 89.5199 124.647Z" fill="#263238"/>
<path id="Vector_108" d="M80.9551 126.336L98.7181 103.47C98.7181 103.47 103.446 99 108.405 100.365C111.357 101.175 128.148 117.564 128.148 117.564L133.371 119.682L141.342 133.356C141.342 133.356 131.31 142.479 124.005 137.199C117.159 132.246 105.105 116.565 105.105 116.565L90.1291 132.969L80.9551 126.336Z" fill="#263238"/>
<path id="Vector_109" d="M116.643 130.269C116.643 130.269 116.619 130.251 116.577 130.209L116.391 130.017C116.229 129.849 115.998 129.591 115.701 129.258C115.101 128.592 114.261 127.614 113.22 126.39C111.135 123.936 108.264 120.501 105.054 116.613H105.171L103.746 118.221C100.062 122.364 96.6902 126.075 94.2122 128.721C92.9762 130.05 91.9592 131.121 91.2542 131.841L90.4322 132.672L90.2162 132.888L90.1382 132.957C90.1382 132.957 90.1592 132.927 90.2042 132.876L90.4112 132.651L91.2092 131.799L94.1312 128.646C96.5882 125.973 99.9482 122.25 103.629 118.11L105.057 116.502L105.117 116.433L105.174 116.502C108.378 120.402 111.237 123.84 113.298 126.309C114.33 127.533 115.164 128.52 115.743 129.21C116.043 129.54 116.253 129.81 116.412 129.984L116.586 130.185C116.607 130.212 116.626 130.24 116.643 130.269Z" fill="#455A64"/>
<path id="Vector_110" d="M133.101 130.542C132.966 130.509 132.836 130.459 132.714 130.392C132.372 130.228 132.049 130.027 131.751 129.792C130.745 129.012 130.04 127.909 129.753 126.669C129.466 125.429 129.615 124.128 130.176 122.985C130.339 122.641 130.54 122.317 130.776 122.019C130.86 121.91 130.954 121.809 131.058 121.719C130.76 122.136 130.499 122.577 130.278 123.039C129.758 124.165 129.627 125.433 129.906 126.642C130.185 127.851 130.858 128.933 131.82 129.717C132.222 130.03 132.65 130.306 133.101 130.542Z" fill="#455A64"/>
<path id="Vector_111" d="M118.437 108.3C118.467 108.267 120.594 110.358 123.189 112.965C125.784 115.572 127.863 117.711 127.833 117.741C127.803 117.771 125.673 115.683 123.078 113.073C120.483 110.463 118.404 108.336 118.437 108.3Z" fill="#455A64"/>
<path id="Vector_112" d="M147.789 95.178C145.41 89.364 139.716 84.147 139.716 84.147C139.716 84.147 129.324 90.378 128.97 90.6C128.616 90.822 116.892 99.165 116.892 99.165C116.892 99.165 102.723 99.639 98.9338 99.549L97.2598 106.932C97.2598 106.932 115.107 109.134 117.444 108.549C118.644 108.249 130.299 104.811 130.299 104.811C130.299 104.811 129.999 108.774 129.822 110.511C129.522 113.34 127.788 117.411 127.788 117.411C127.788 117.411 134.688 124.689 135.753 128.475C136.818 132.261 141.477 134.025 143.679 133.935C145.881 133.845 144.207 132.351 144.207 132.351C144.207 132.351 147.558 126.438 148.707 119.481C149.856 112.524 150.168 100.989 147.789 95.178Z" fill="url(#paint1_linear_950_688)"/>
<path id="Vector_113" d="M138.897 102.075C138.828 102.112 138.756 102.142 138.681 102.165L138.051 102.387C137.502 102.579 136.707 102.846 135.723 103.17C133.752 103.818 131.022 104.67 127.992 105.591C124.962 106.512 122.205 107.292 120.192 107.844C119.193 108.12 118.392 108.336 117.819 108.48L117.171 108.639C117.097 108.662 117.02 108.677 116.943 108.684C117.013 108.652 117.087 108.627 117.162 108.609L117.804 108.423L120.162 107.736C122.154 107.16 124.902 106.353 127.932 105.444C130.962 104.535 133.695 103.686 135.675 103.065L138.018 102.33L138.654 102.135C138.733 102.108 138.814 102.088 138.897 102.075Z" fill="#263238"/>
<path id="Vector_114" d="M142.005 99.057C142.032 98.8956 142.07 98.7362 142.119 98.5801C142.224 98.1507 142.301 97.7147 142.347 97.275C142.509 95.8228 142.304 94.3532 141.751 93.0008C141.197 91.6485 140.313 90.4568 139.179 89.5351C138.839 89.2525 138.479 88.9948 138.102 88.7641C137.957 88.6884 137.819 88.6011 137.688 88.5031C137.729 88.5143 137.768 88.5304 137.805 88.5511C137.88 88.5871 137.994 88.6321 138.132 88.7101C138.524 88.9249 138.897 89.1717 139.248 89.448C140.419 90.363 141.331 91.5676 141.894 92.9429C142.457 94.3182 142.651 95.8166 142.458 97.29C142.401 97.7333 142.307 98.1709 142.176 98.598C142.134 98.748 142.086 98.862 142.059 98.94C142.047 98.9817 142.029 99.0212 142.005 99.057Z" fill="#263238"/>
<path id="Vector_115" d="M138.705 129.702C138.676 129.654 138.651 129.604 138.63 129.552L138.438 129.111C138.279 128.727 138.036 128.175 137.721 127.497C137.406 126.819 137.013 126.03 136.545 125.163C136.077 124.296 135.528 123.363 134.913 122.409C134.298 121.455 133.662 120.576 133.068 119.793C132.474 119.01 131.907 118.323 131.418 117.762C130.929 117.201 130.518 116.751 130.239 116.448C130.11 116.304 130.002 116.187 129.915 116.094C129.874 116.055 129.839 116.011 129.81 115.962C129.856 115.995 129.9 116.032 129.939 116.073L130.305 116.4C130.605 116.7 131.022 117.129 131.505 117.684C131.988 118.239 132.579 118.92 133.188 119.697C133.797 120.474 134.427 121.362 135.048 122.319C135.669 123.276 136.209 124.218 136.677 125.088C137.145 125.958 137.529 126.762 137.826 127.446C138.123 128.13 138.357 128.691 138.501 129.081L138.663 129.534C138.685 129.588 138.699 129.644 138.705 129.702Z" fill="#263238"/>
<g id="Group_2" opacity="0.3">
<path id="Vector_116" d="M140.913 127.2C140.553 126.3 139.737 125.685 138.981 125.082C135.942 122.661 133.359 119.73 130.791 116.817L137.427 126.447C137.637 127.101 137.856 128.133 138.234 128.703C138.612 129.273 139.293 129.714 139.965 129.567C140.91 129.36 141.27 128.1 140.913 127.2Z" fill="black"/>
</g>
<g id="Group_3" opacity="0.3">
<path id="Vector_117" d="M130.185 105.177C132.054 105.99 134.175 106.377 136.149 105.87C138.123 105.363 139.905 103.8 140.307 101.817L130.173 104.649" fill="black"/>
</g>
<path id="Vector_118" d="M104.937 107.658C104.945 107.546 104.945 107.434 104.937 107.322C104.87 107.022 104.713 106.75 104.487 106.542C104.121 106.246 103.794 105.904 103.515 105.525C103.237 105.01 103.097 104.431 103.11 103.845C103.11 103.245 103.164 102.645 103.143 102.138C103.14 101.681 103.038 101.229 102.843 100.815C102.709 100.537 102.515 100.293 102.276 100.098C102.105 99.9661 101.991 99.9151 101.997 99.9001C102.111 99.9282 102.218 99.9792 102.312 100.05C102.576 100.233 102.791 100.478 102.939 100.764C103.156 101.188 103.275 101.656 103.287 102.132C103.317 102.663 103.26 103.245 103.266 103.842C103.254 104.402 103.382 104.955 103.638 105.453C103.893 105.894 104.298 106.164 104.568 106.467C104.8 106.694 104.951 106.991 104.997 107.313C105.004 107.401 104.997 107.489 104.976 107.574C104.955 107.631 104.94 107.661 104.937 107.658Z" fill="#FAFAFA"/>
<path id="Vector_119" d="M113.166 99.1501C113.166 99.1501 113.205 99.1711 113.241 99.2431C113.263 99.2972 113.275 99.3554 113.275 99.4141C113.275 99.4728 113.263 99.5309 113.241 99.5851C113.169 99.7579 113.032 99.8957 112.86 99.9691C112.668 100.062 112.446 100.134 112.212 100.242C111.669 100.499 111.184 100.862 110.784 101.31C110.29 101.854 109.933 102.508 109.743 103.218C109.533 103.974 109.611 104.718 109.623 105.417C109.631 105.747 109.606 106.076 109.548 106.401C109.492 106.686 109.384 106.959 109.23 107.205C109.015 107.573 108.669 107.845 108.261 107.967C108.15 107.994 108.036 108.004 107.922 107.997C107.847 107.997 107.805 107.979 107.808 107.973C107.955 107.965 108.102 107.944 108.246 107.91C108.628 107.773 108.947 107.502 109.146 107.148C109.293 106.912 109.395 106.651 109.446 106.377C109.494 106.061 109.514 105.74 109.503 105.42C109.485 104.745 109.398 103.965 109.617 103.179C109.811 102.445 110.184 101.77 110.703 101.214C111.123 100.756 111.634 100.391 112.203 100.14C112.446 100.035 112.674 99.9691 112.857 99.8911C113.015 99.8318 113.146 99.7151 113.223 99.5641C113.268 99.4706 113.277 99.364 113.25 99.2641C113.205 99.1861 113.16 99.1531 113.166 99.1501Z" fill="#FAFAFA"/>
<path id="Vector_120" d="M121.161 107.598C121.161 107.598 121.248 107.478 121.365 107.247C121.522 106.914 121.591 106.546 121.566 106.179C121.53 105.636 121.336 105.114 121.008 104.679C120.598 104.148 120.107 103.684 119.553 103.305C118.974 102.882 118.395 102.498 117.927 102.075C117.498 101.709 117.146 101.261 116.892 100.758C116.721 100.419 116.624 100.046 116.61 99.6661C116.607 99.5657 116.613 99.4653 116.628 99.3661C116.628 99.2971 116.646 99.2611 116.652 99.2641C116.658 99.2671 116.652 99.4111 116.67 99.6721C116.707 100.038 116.816 100.393 116.991 100.716C117.251 101.198 117.602 101.626 118.023 101.976C118.488 102.384 119.061 102.762 119.646 103.176C120.212 103.565 120.712 104.043 121.125 104.592C121.462 105.052 121.654 105.603 121.674 106.173C121.693 106.556 121.605 106.936 121.419 107.271C121.369 107.362 121.309 107.446 121.239 107.523C121.191 107.577 121.164 107.601 121.161 107.598Z" fill="#FAFAFA"/>
<path id="Vector_121" d="M132.657 103.236C132.657 103.236 132.75 103.05 132.831 102.699C132.934 102.198 132.895 101.679 132.72 101.199C132.466 100.483 131.991 99.8651 131.364 99.435C130.589 98.9161 129.732 98.5317 128.829 98.298C128.064 98.073 127.314 97.887 126.63 97.647C125.99 97.4352 125.384 97.1321 124.83 96.747C124.398 96.4443 124.025 96.065 123.729 95.628C123.537 95.3464 123.395 95.0338 123.309 94.704L123.339 94.719C123.213 94.7638 123.084 94.7969 122.952 94.818C123.072 94.7606 123.197 94.7124 123.324 94.674H123.348V94.698C123.45 95.0192 123.601 95.3228 123.795 95.598C124.096 96.0145 124.468 96.375 124.893 96.663C125.439 97.0284 126.034 97.3152 126.66 97.515C127.335 97.746 128.082 97.929 128.853 98.157C129.773 98.3955 130.644 98.7924 131.427 99.33C132.073 99.7794 132.556 100.426 132.804 101.172C132.977 101.673 133 102.213 132.87 102.726C132.834 102.864 132.782 102.997 132.714 103.122C132.705 103.2 132.663 103.239 132.657 103.236Z" fill="#FAFAFA"/>
<path id="Vector_122" d="M133.53 88.026C133.588 88.019 133.646 88.019 133.704 88.026H133.914L134.214 88.056C134.824 88.1397 135.41 88.3513 135.933 88.677C136.717 89.1561 137.343 89.8551 137.733 90.687C138.158 91.7334 138.255 92.8842 138.012 93.987C137.817 95.154 137.463 96.222 137.262 97.212C137.069 98.0866 137.029 98.988 137.145 99.876C137.225 100.474 137.441 101.045 137.775 101.547C138.024 101.895 138.213 102.048 138.198 102.06C138.019 101.924 137.861 101.763 137.727 101.583C137.364 101.084 137.128 100.504 137.037 99.894C136.904 98.9962 136.932 98.0819 137.121 97.194C137.319 96.189 137.664 95.121 137.859 93.969C138.093 92.8991 138.003 91.7838 137.601 90.765C137.227 89.9519 136.624 89.265 135.867 88.788C135.36 88.461 134.793 88.2386 134.199 88.134L133.92 88.089L133.71 88.074C133.648 88.0636 133.588 88.0476 133.53 88.026Z" fill="#FAFAFA"/>
<path id="Vector_123" d="M149.235 106.314C149.04 106.129 148.817 105.976 148.575 105.861C147.893 105.584 147.135 105.56 146.436 105.792C145.536 106.035 144.636 106.74 143.676 107.496C143.165 107.903 142.612 108.253 142.026 108.54C141.089 108.973 140.069 109.2 139.037 109.205C138.004 109.21 136.982 108.992 136.041 108.567C134.904 108.066 133.941 107.514 133.041 107.256C132.343 107.027 131.601 106.964 130.875 107.073C130.61 107.126 130.351 107.203 130.101 107.304C130.334 107.156 130.592 107.054 130.863 107.004C131.599 106.865 132.358 106.912 133.071 107.139C133.989 107.385 134.973 107.934 136.101 108.423C137.024 108.835 138.025 109.045 139.036 109.04C140.047 109.034 141.045 108.812 141.963 108.39C142.542 108.109 143.088 107.766 143.592 107.367C144.567 106.623 145.473 105.912 146.409 105.672C147.131 105.445 147.912 105.488 148.605 105.792C148.709 105.847 148.809 105.908 148.905 105.975C148.983 106.041 149.052 106.092 149.1 106.143C149.15 106.196 149.196 106.253 149.235 106.314Z" fill="#FAFAFA"/>
<path id="Vector_124" d="M148.626 100.389C148.631 100.421 148.631 100.453 148.626 100.485C148.609 100.575 148.579 100.662 148.536 100.743C148.382 101.05 148.139 101.304 147.837 101.469C147.393 101.718 146.887 101.834 146.379 101.805C145.773 101.758 145.171 101.664 144.579 101.523C143.506 101.319 142.404 101.319 141.33 101.523C140.508 101.685 140.022 101.886 140.013 101.859C140.118 101.794 140.231 101.742 140.349 101.706C140.661 101.583 140.982 101.482 141.309 101.406C142.394 101.164 143.517 101.146 144.609 101.352C145.195 101.492 145.789 101.592 146.388 101.652C146.873 101.682 147.357 101.578 147.786 101.352C148.076 101.203 148.319 100.975 148.485 100.695C148.584 100.515 148.605 100.383 148.626 100.389Z" fill="#FAFAFA"/>
<path id="Vector_125" d="M146.805 93.6C146.805 93.627 146.52 93.6 146.067 93.648C144.886 93.7434 143.764 94.2072 142.86 94.974C142.515 95.274 142.329 95.478 142.308 95.463C142.433 95.2449 142.595 95.0508 142.788 94.89C143.231 94.477 143.744 94.1468 144.303 93.915C144.861 93.684 145.457 93.5559 146.061 93.537C146.311 93.5157 146.562 93.537 146.805 93.6Z" fill="#FAFAFA"/>
<path id="Vector_126" d="M142.362 87.0601C142.329 87.2523 142.26 87.4366 142.158 87.6031C141.943 88.0228 141.665 88.4073 141.333 88.7431C141.001 89.078 140.621 89.362 140.205 89.5861C140.039 89.6893 139.855 89.7605 139.662 89.7961C140.223 89.4659 140.746 89.0756 141.222 88.6321C141.659 88.1515 142.041 87.6244 142.362 87.0601Z" fill="#FAFAFA"/>
<path id="Vector_127" d="M148.254 119.268C148.234 119.197 148.218 119.125 148.206 119.052C148.206 118.977 148.176 118.89 148.158 118.791C148.14 118.692 148.098 118.569 148.062 118.44C147.843 117.702 147.473 117.018 146.976 116.43C146.246 115.55 145.277 114.901 144.186 114.561C143.544 114.368 142.87 114.304 142.203 114.372C141.484 114.456 140.772 114.598 140.076 114.798C139.375 115.003 138.66 115.159 137.937 115.266C137.257 115.354 136.569 115.36 135.888 115.284C134.737 115.151 133.622 114.799 132.603 114.246C131.918 113.875 131.287 113.412 130.728 112.869C130.575 112.722 130.43 112.568 130.293 112.407C130.242 112.354 130.197 112.296 130.158 112.233C130.214 112.281 130.267 112.332 130.317 112.386C130.419 112.488 130.563 112.644 130.77 112.824C131.338 113.345 131.971 113.79 132.654 114.147C133.667 114.678 134.77 115.015 135.906 115.143C136.575 115.21 137.249 115.201 137.916 115.116C138.633 115.005 139.341 114.847 140.037 114.645C140.741 114.444 141.461 114.301 142.188 114.219C142.875 114.153 143.568 114.222 144.228 114.423C145.341 114.778 146.327 115.451 147.063 116.358C147.56 116.963 147.921 117.668 148.122 118.425C148.152 118.56 148.185 118.677 148.203 118.782C148.221 118.887 148.227 118.971 148.236 119.049C148.25 119.121 148.256 119.195 148.254 119.268Z" fill="#FAFAFA"/>
<path id="Vector_128" d="M132 118.779C131.807 118.844 131.603 118.873 131.4 118.863C130.896 118.864 130.396 118.773 129.924 118.596C129.452 118.42 129.017 118.158 128.64 117.825C128.476 117.698 128.338 117.54 128.235 117.36C128.755 117.815 129.344 118.183 129.981 118.452C130.632 118.67 131.314 118.78 132 118.779Z" fill="#FAFAFA"/>
<path id="Vector_129" d="M146.226 127.872C146.18 127.896 146.132 127.915 146.082 127.929C145.941 127.976 145.795 128.008 145.647 128.025C145.096 128.077 144.54 127.984 144.036 127.755C143.29 127.416 142.632 126.911 142.11 126.279C141.51 125.583 140.991 124.719 140.379 123.879C140.086 123.467 139.759 123.079 139.401 122.721C139.063 122.393 138.688 122.107 138.282 121.869C137.593 121.462 136.834 121.186 136.044 121.056C135.312 120.949 134.568 120.949 133.836 121.056C133.884 121.034 133.934 121.019 133.986 121.011C134.13 120.976 134.276 120.949 134.424 120.93C134.967 120.856 135.518 120.856 136.062 120.93C136.87 121.046 137.648 121.316 138.354 121.725C138.772 121.966 139.159 122.257 139.506 122.592C139.874 122.958 140.208 123.355 140.505 123.78C141.123 124.635 141.636 125.496 142.218 126.18C142.723 126.801 143.359 127.302 144.081 127.647C144.568 127.876 145.104 127.979 145.641 127.947C146.019 127.932 146.223 127.854 146.226 127.872Z" fill="#FAFAFA"/>
<path id="Vector_130" d="M141.405 133.74C141.378 133.74 141.375 133.47 141.294 133.044C141.081 131.932 140.495 130.925 139.632 130.191C139.302 129.909 139.068 129.771 139.083 129.747C139.309 129.829 139.518 129.95 139.701 130.104C140.632 130.815 141.243 131.866 141.402 133.026C141.448 133.262 141.449 133.504 141.405 133.74Z" fill="#FAFAFA"/>
</g>
<g id="freepik--Plant--inject-14">
<path id="Vector_131" d="M18.4972 96.918C15.6052 92.49 16.0252 86.169 19.4812 82.167C20.5552 80.925 22.0522 79.845 23.6812 79.986C25.3102 80.127 26.7052 81.564 27.2152 83.166C27.7252 84.768 27.5482 86.502 27.2482 88.155C26.8282 90.471 26.1262 92.838 24.5212 94.56C22.9162 96.282 20.5552 98.046 18.4912 96.918" fill="url(#paint2_linear_950_688)"/>
<path id="Vector_132" d="M20.0963 118.218C19.5799 116.932 19.4802 115.517 19.8112 114.171C20.1422 112.825 20.8873 111.618 21.9413 110.718C22.6073 110.175 23.4773 109.755 24.3053 109.977C25.1333 110.199 25.7213 111.063 25.8383 111.936C25.9553 112.809 25.7063 113.682 25.4033 114.507C24.9773 115.662 24.4013 116.82 23.4173 117.561C22.4333 118.302 21.0593 118.998 20.0963 118.23" fill="url(#paint3_linear_950_688)"/>
<path id="Vector_133" d="M13.1212 116.7C13.9162 112.776 11.8492 108.447 8.29723 106.602C7.19323 106.029 5.83723 105.687 4.72723 106.245C3.61723 106.803 3.04123 108.204 3.13123 109.473C3.22123 110.742 3.83323 111.912 4.50523 112.992C5.45023 114.492 6.60523 115.971 8.21923 116.73C9.83323 117.489 11.9842 118.071 13.1212 116.7Z" fill="url(#paint4_linear_950_688)"/>
<path id="Vector_134" d="M13.6221 106.089C15.0081 101.619 12.6591 96.189 8.74409 93.633C7.52909 92.838 5.99009 92.283 4.63409 92.802C3.27809 93.321 2.44409 94.881 2.40209 96.366C2.36009 97.851 2.93008 99.288 3.58708 100.623C4.50508 102.489 5.68709 104.334 7.46609 105.408C9.24509 106.482 12.1401 107.55 13.6221 106.089Z" fill="url(#paint5_linear_950_688)"/>
<path id="Vector_135" d="M16.403 127.938C16.381 127.868 16.3659 127.795 16.358 127.722C16.334 127.56 16.304 127.353 16.265 127.098C16.247 126.96 16.226 126.81 16.202 126.648C16.172 126.483 16.136 126.306 16.1 126.117C16.028 125.733 15.953 125.298 15.827 124.827C15.771 124.587 15.711 124.338 15.647 124.08L15.413 123.282C15.263 122.727 15.044 122.154 14.837 121.542C14.3416 120.233 13.7654 118.955 13.112 117.717C12.4427 116.487 11.6972 115.299 10.88 114.162C10.484 113.652 10.127 113.151 9.74602 112.722L9.21202 112.086L8.69002 111.522C8.36602 111.159 8.04502 110.853 7.76602 110.583L7.37902 110.205L7.04002 109.905L6.57202 109.482C6.51341 109.437 6.46096 109.385 6.41602 109.326C6.48095 109.362 6.54139 109.405 6.59602 109.455L7.08802 109.851L7.44202 110.151L7.83802 110.52C8.13802 110.787 8.45602 111.084 8.78902 111.447L9.32002 112.002L9.86902 112.635C10.256 113.064 10.619 113.565 11.021 114.075C11.8509 115.208 12.6055 116.395 13.28 117.627C13.9372 118.873 14.5124 120.161 15.002 121.482C15.206 122.1 15.419 122.682 15.563 123.24L15.788 124.044C15.848 124.305 15.905 124.557 15.959 124.797C16.076 125.274 16.142 125.712 16.205 126.099C16.235 126.288 16.265 126.468 16.292 126.633C16.319 126.798 16.325 126.951 16.337 127.089C16.361 127.344 16.382 127.554 16.397 127.719C16.4063 127.792 16.4083 127.865 16.403 127.938Z" fill="#263238"/>
<path id="Vector_136" d="M16.3009 128.742C16.2969 128.712 16.2969 128.682 16.3009 128.652C16.3009 128.583 16.3009 128.496 16.3189 128.394C16.3429 128.151 16.3729 127.818 16.4119 127.401C16.4329 127.182 16.4569 126.945 16.4839 126.684C16.5109 126.423 16.5109 126.135 16.5259 125.826C16.5499 125.226 16.6069 124.515 16.5859 123.741C16.5859 123.354 16.5859 122.949 16.5859 122.526C16.5859 122.103 16.5409 121.668 16.5199 121.212C16.4899 120.312 16.3669 119.34 16.2559 118.323C15.9591 116.125 15.5008 113.952 14.8849 111.822C14.2389 109.7 13.4367 107.628 12.4849 105.624C12.0229 104.724 11.5999 103.824 11.1319 103.059C10.9009 102.666 10.6969 102.276 10.4689 101.919L9.81194 100.899C9.40994 100.239 8.97794 99.684 8.61194 99.183C8.43194 98.934 8.26994 98.697 8.11094 98.49L7.66094 97.926L7.04294 97.143L6.88394 96.936C6.86523 96.9139 6.84913 96.8897 6.83594 96.864C6.83594 96.864 6.85994 96.882 6.89894 96.924L7.06994 97.119L7.71794 97.881L8.18294 98.433C8.34494 98.64 8.51294 98.874 8.69894 99.12C9.06194 99.618 9.49994 100.167 9.89894 100.824L10.5709 101.844C10.7989 102.198 11.0089 102.588 11.2429 102.978C11.7199 103.758 12.1429 104.634 12.6169 105.549C13.5799 107.558 14.3893 109.637 15.0379 111.768C15.6558 113.909 16.1111 116.093 16.3999 118.302C16.5049 119.322 16.6219 120.291 16.6459 121.203C16.6639 121.659 16.7029 122.103 16.7029 122.523C16.7029 122.943 16.7029 123.354 16.7029 123.741C16.7029 124.518 16.6459 125.22 16.6129 125.841C16.5919 126.141 16.5799 126.441 16.5559 126.696L16.4659 127.413C16.4149 127.83 16.3699 128.163 16.3399 128.403C16.3249 128.508 16.3129 128.592 16.3039 128.661C16.3054 128.688 16.3044 128.715 16.3009 128.742Z" fill="#263238"/>
<path id="Vector_137" d="M23.8339 85.329C23.8339 85.329 23.8339 85.359 23.7949 85.413L23.6719 85.644L23.1799 86.526C23.0749 86.718 22.9459 86.928 22.8229 87.165L22.4359 87.942C22.2979 88.224 22.1359 88.521 21.9889 88.842C21.8419 89.163 21.6889 89.508 21.5359 89.868C21.3829 90.228 21.2089 90.6 21.0469 90.996C20.8849 91.392 20.7469 91.812 20.5669 92.244L20.3149 92.901C20.2369 93.126 20.1589 93.357 20.0809 93.588L19.5979 95.025C18.9979 97.008 18.3979 99.225 17.9119 101.562C17.4259 103.899 17.1049 106.17 16.8589 108.234C16.6129 110.298 16.4899 112.164 16.4479 113.733C16.4089 114.519 16.3999 115.233 16.3969 115.851C16.3939 116.469 16.3969 117.015 16.3969 117.453C16.3969 117.891 16.3969 118.218 16.3969 118.464C16.3969 118.572 16.3969 118.659 16.3969 118.728C16.4014 118.758 16.4014 118.788 16.3969 118.818C16.3937 118.788 16.3937 118.758 16.3969 118.728C16.3969 118.658 16.3909 118.571 16.3789 118.467C16.3789 118.221 16.3489 117.882 16.3279 117.456C16.3069 117.03 16.2949 116.478 16.2949 115.851C16.2949 115.224 16.2949 114.516 16.3159 113.73C16.3429 112.155 16.4839 110.286 16.6879 108.213C16.8919 106.14 17.2519 103.878 17.7289 101.523C18.2059 99.168 18.8089 96.957 19.4329 94.971C19.6039 94.479 19.7659 93.999 19.9279 93.534L20.1649 92.844L20.4229 92.187C20.5939 91.758 20.7559 91.341 20.9149 90.942C21.0739 90.543 21.2569 90.171 21.4159 89.811C21.5749 89.451 21.7159 89.109 21.8839 88.791L22.3459 87.891C22.4899 87.615 22.6219 87.357 22.7479 87.12C22.8739 86.883 23.0089 86.676 23.1199 86.487L23.6449 85.62L23.7859 85.398C23.7997 85.3735 23.8158 85.3504 23.8339 85.329Z" fill="#263238"/>
<path id="Vector_138" d="M22.8501 112.482C22.7656 112.671 22.6653 112.853 22.5501 113.025C22.3371 113.361 22.0461 113.862 21.7071 114.486C21.3681 115.11 20.9901 115.875 20.6091 116.736C20.2281 117.597 19.8711 118.569 19.5471 119.607C19.2504 120.584 19.0031 121.575 18.8061 122.577C18.6321 123.504 18.5061 124.344 18.4401 125.055C18.3741 125.766 18.3261 126.339 18.3111 126.738C18.3115 126.945 18.2945 127.152 18.2601 127.356C18.2364 127.15 18.2294 126.942 18.2391 126.735C18.2391 126.336 18.2391 125.754 18.3081 125.04C18.3738 124.204 18.4819 123.372 18.6321 122.547C18.8224 121.535 19.0667 120.533 19.3641 119.547C19.6729 118.567 20.0355 117.604 20.4501 116.664C20.7919 115.897 21.1724 115.148 21.5901 114.42C21.9471 113.799 22.2561 113.307 22.4901 112.98C22.5969 112.805 22.7173 112.638 22.8501 112.482Z" fill="#263238"/>
<path id="Vector_139" d="M10.7212 125.946H23.4292L21.8932 138.927H12.3052L10.7212 125.946Z" fill="#455A64"/>
<path id="Vector_140" d="M11.186 137.526L12.263 138.927H21.893L23.003 137.571L11.186 137.526Z" fill="#263238"/>
<path id="Vector_141" d="M22.9343 129.765C22.9343 129.816 20.2973 129.858 17.0453 129.858C13.7933 129.858 11.1533 129.816 11.1533 129.765C11.1533 129.714 13.7903 129.669 17.0453 129.669C20.3003 129.669 22.9343 129.711 22.9343 129.765Z" fill="#FAFAFA"/>
<path id="Vector_142" d="M22.9343 130.629C22.9343 130.68 20.2973 130.722 17.0453 130.722C13.7933 130.722 11.1533 130.68 11.1533 130.629C11.1533 130.578 13.7903 130.533 17.0453 130.533C20.3003 130.533 22.9343 130.575 22.9343 130.629Z" fill="#FAFAFA"/>
<path id="Vector_143" d="M22.7752 131.466C22.7752 131.517 20.2312 131.559 17.0932 131.559C13.9552 131.559 11.4082 131.517 11.4082 131.466C11.4082 131.415 13.9522 131.37 17.0932 131.37C20.2342 131.37 22.7752 131.4 22.7752 131.466Z" fill="#FAFAFA"/>
</g>
<g id="Group 59">
<path id="Union" fill-rule="evenodd" clip-rule="evenodd" d="M65.4 66.9319H62.6617V70.417H44.7383V66.9319H42V70.417V73.1553V73.1553H44.7383V73.1553H62.6617H65.4V70.417V66.9319Z" fill="url(#paint6_linear_950_688)"/>
<path id="Subtract" fill-rule="evenodd" clip-rule="evenodd" d="M50.0178 51V58.6471H46.2319L53.7028 67.9276L61.1738 58.6471H57.3879V51H50.0178Z" fill="url(#paint7_linear_950_688)"/>
</g>
<circle id="Ellipse 21" cx="54" cy="61.5" r="21.5" stroke="url(#paint8_linear_950_688)" stroke-width="2"/>
</g>
<defs>
<linearGradient id="paint0_linear_950_688" x1="99.8818" y1="96.843" x2="131.76" y2="96.843" gradientUnits="userSpaceOnUse">
<stop stop-color="#00A7AA"/>
<stop offset="1" stop-color="#F2D025"/>
</linearGradient>
<linearGradient id="paint1_linear_950_688" x1="97.2598" y1="109.043" x2="149.581" y2="109.043" gradientUnits="userSpaceOnUse">
<stop stop-color="#00A7AA"/>
<stop offset="1" stop-color="#F2D025"/>
</linearGradient>
<linearGradient id="paint2_linear_950_688" x1="16.5796" y1="88.6237" x2="27.5378" y2="88.6237" gradientUnits="userSpaceOnUse">
<stop stop-color="#00A7AA"/>
<stop offset="1" stop-color="#F2D025"/>
</linearGradient>
<linearGradient id="paint3_linear_950_688" x1="19.6196" y1="114.24" x2="25.8678" y2="114.24" gradientUnits="userSpaceOnUse">
<stop stop-color="#00A7AA"/>
<stop offset="1" stop-color="#F2D025"/>
</linearGradient>
<linearGradient id="paint4_linear_950_688" x1="3.12207" y1="111.744" x2="13.2907" y2="111.744" gradientUnits="userSpaceOnUse">
<stop stop-color="#00A7AA"/>
<stop offset="1" stop-color="#F2D025"/>
</linearGradient>
<linearGradient id="paint5_linear_950_688" x1="2.3999" y1="99.7009" x2="14.0229" y2="99.7009" gradientUnits="userSpaceOnUse">
<stop stop-color="#00A7AA"/>
<stop offset="1" stop-color="#F2D025"/>
</linearGradient>
<linearGradient id="paint6_linear_950_688" x1="42" y1="70.0436" x2="65.4" y2="70.0436" gradientUnits="userSpaceOnUse">
<stop stop-color="#00A7AA"/>
<stop offset="1" stop-color="#F2D025"/>
</linearGradient>
<linearGradient id="paint7_linear_950_688" x1="46.2319" y1="59.4638" x2="61.1738" y2="59.4638" gradientUnits="userSpaceOnUse">
<stop stop-color="#00A7AA"/>
<stop offset="1" stop-color="#F2D025"/>
</linearGradient>
<linearGradient id="paint8_linear_950_688" x1="31.5" y1="61.5" x2="76.5" y2="61.5" gradientUnits="userSpaceOnUse">
<stop stop-color="#00A7AA"/>
<stop offset="1" stop-color="#F2D025"/>
</linearGradient>
</defs>
</svg>
