<svg width="20" height="20" viewBox="0 0 20 20" fill="none" xmlns="http://www.w3.org/2000/svg">
<path d="M13.7141 8.37521C13.7141 9.2703 13.3755 10.1287 12.7727 10.7616C12.1699 11.3946 11.3524 11.7501 10.5 11.7501C9.64757 11.7501 8.83006 11.3946 8.2273 10.7616C7.62454 10.1287 7.28591 9.2703 7.28591 8.37521C7.28591 7.48012 7.62454 6.6217 8.2273 5.98878C8.83006 5.35585 9.64757 5.00028 10.5 5.00028C11.3524 5.00028 12.1699 5.35585 12.7727 5.98878C13.3755 6.6217 13.7141 7.48012 13.7141 8.37521ZM12.6427 8.37521C12.6427 7.77848 12.417 7.2062 12.0151 6.78425C11.6133 6.36231 11.0683 6.12526 10.5 6.12526C9.93171 6.12526 9.3867 6.36231 8.98487 6.78425C8.58303 7.2062 8.35728 7.77848 8.35728 8.37521C8.35728 8.97193 8.58303 9.54422 8.98487 9.96617C9.3867 10.3881 9.93171 10.6252 10.5 10.6252C11.0683 10.6252 11.6133 10.3881 12.0151 9.96617C12.417 9.54422 12.6427 8.97193 12.6427 8.37521ZM15.8032 13.9495C17.2098 12.4717 18 10.4679 18 8.37858C18 6.28926 17.2098 4.28546 15.8032 2.8077C15.107 2.0761 14.2802 1.49574 13.3703 1.09977C12.4603 0.703806 11.485 0.5 10.5 0.5C9.515 0.5 8.53966 0.703806 7.62971 1.09977C6.71975 1.49574 5.89302 2.0761 5.19676 2.8077C3.79016 4.28546 3 6.28926 3 8.37858C3 10.4679 3.79016 12.4717 5.19676 13.9495L6.8263 15.6358L9.01509 17.8689L9.15758 18.0016C9.98789 18.7081 11.2039 18.6631 11.986 17.8689L14.5947 15.2027L15.8032 13.9495ZM5.95207 3.60081C6.54922 2.9735 7.25821 2.47588 8.03856 2.13636C8.81891 1.79685 9.65532 1.6221 10.5 1.6221C11.3447 1.6221 12.1811 1.79685 12.9614 2.13636C13.7418 2.47588 14.4508 2.9735 15.0479 3.60081C16.2208 4.83317 16.8951 6.49348 16.9302 8.23532C16.9654 9.97716 16.3586 11.666 15.2365 12.9494L15.0479 13.1564L13.6327 14.6233L11.2435 17.0634L11.1428 17.1534C10.9575 17.2998 10.7318 17.3789 10.4998 17.3787C10.2679 17.3785 10.0423 17.299 9.85718 17.1523L9.75755 17.0623L6.56489 13.7942L5.95207 13.1564L5.76351 12.9505C4.64141 11.6671 4.03463 9.97829 4.06976 8.23645C4.10489 6.49461 4.77923 4.83317 5.95207 3.60081Z" fill="#797979"/>
</svg>
