<svg width="150" height="150" viewBox="0 0 150 150" fill="none" xmlns="http://www.w3.org/2000/svg">
<g id="Customer Survey-rafiki (1) 1" clip-path="url(#clip0_951_2693)">
<g id="freepik--background-complete--inject-75">
<path id="Vector" d="M165.6 123.651H-15.6001V123.741H165.6V123.651Z" fill="#EBEBEB"/>
<path id="Vector_2" d="M147.444 129.482H135.441V129.572H147.444V129.482Z" fill="#EBEBEB"/>
<path id="Vector_3" d="M104.434 130.467H101.285V130.558H104.434V130.467Z" fill="#EBEBEB"/>
<path id="Vector_4" d="M135.079 126.119H128.124V126.209H135.079V126.119Z" fill="#EBEBEB"/>
<path id="Vector_5" d="M19.0634 126.728H3.41138V126.818H19.0634V126.728Z" fill="#EBEBEB"/>
<path id="Vector_6" d="M24.5865 126.728H22.2925V126.818H24.5865V126.728Z" fill="#EBEBEB"/>
<path id="Vector_7" d="M65.9943 128.257H32.0447V128.347H65.9943V128.257Z" fill="#EBEBEB"/>
<path id="Vector_8" d="M70.2886 107.488H0.312751C-0.235435 107.487 -0.76084 107.268 -1.14813 106.88C-1.53541 106.492 -1.75293 105.967 -1.75293 105.418V7.05211C-1.74816 6.50707 -1.52853 5.98593 -1.14176 5.60187C-0.754991 5.21781 -0.23231 5.00186 0.312751 5.00093H70.2886C70.8374 5.00093 71.3637 5.21895 71.7518 5.60702C72.1399 5.99509 72.3579 6.52142 72.3579 7.07023V105.418C72.3579 105.967 72.1399 106.493 71.7518 106.882C71.3637 107.27 70.8374 107.488 70.2886 107.488ZM0.312751 5.07341C-0.211406 5.07437 -0.713766 5.28326 -1.08406 5.65424C-1.45436 6.02521 -1.66233 6.52796 -1.66233 7.05211V105.418C-1.66233 105.943 -1.45436 106.445 -1.08406 106.816C-0.713766 107.187 -0.211406 107.396 0.312751 107.397H70.2886C70.8131 107.396 71.3158 107.187 71.6867 106.816C72.0575 106.446 72.2663 105.943 72.2673 105.418V7.05211C72.2663 6.52762 72.0575 6.02489 71.6867 5.65402C71.3158 5.28315 70.8131 5.07437 70.2886 5.07341H0.312751Z" fill="#EBEBEB"/>
<path id="Vector_9" d="M148.679 107.488H78.6999C78.1514 107.487 77.6256 107.268 77.2378 106.881C76.8499 106.493 76.6316 105.967 76.6306 105.418V7.05211C76.6363 6.50674 76.8568 5.9856 77.2441 5.60164C77.6315 5.21769 78.1545 5.00185 78.6999 5.00093H148.679C149.224 5.00282 149.746 5.21919 150.132 5.60314C150.518 5.9871 150.737 6.5077 150.741 7.05211V105.418C150.741 105.966 150.524 106.491 150.138 106.879C149.751 107.267 149.227 107.486 148.679 107.488ZM78.6999 5.07341C78.1754 5.07437 77.6727 5.28315 77.3018 5.65402C76.9309 6.02489 76.7222 6.52762 76.7212 7.05211V105.418C76.7222 105.943 76.9309 106.446 77.3018 106.816C77.6727 107.187 78.1754 107.396 78.6999 107.397H148.679C149.204 107.396 149.707 107.187 150.077 106.816C150.448 106.446 150.657 105.943 150.658 105.418V7.05211C150.657 6.52762 150.448 6.02489 150.077 5.65402C149.707 5.28315 149.204 5.07437 148.679 5.07341H78.6999Z" fill="#EBEBEB"/>
<path id="Vector_10" d="M81.4433 123.651H94.1636V76.2741H81.4433V123.651Z" fill="#E6E6E6"/>
<path id="Vector_11" d="M83.5598 123.651H81.4434V119.385H85.7813L83.5598 123.651Z" fill="#F0F0F0"/>
<path id="Vector_12" d="M133.216 123.651H145.936V76.2741H133.216V123.651Z" fill="#E6E6E6"/>
<path id="Vector_13" d="M81.4433 122.013H135.064V76.2741H81.4433V122.013Z" fill="#F0F0F0"/>
<path id="Vector_14" d="M83.0886 90.8427H133.422V78.3H83.0886V90.8427Z" fill="#E6E6E6"/>
<path id="Vector_15" d="M105.876 82.1921H110.631C112.697 82.1921 114.672 80.6447 116.092 77.9122H100.415C101.836 80.6519 103.811 82.1921 105.876 82.1921Z" fill="#F0F0F0"/>
<path id="Vector_16" d="M132.948 123.651H135.064V119.385H130.726L132.948 123.651Z" fill="#F0F0F0"/>
<path id="Vector_17" d="M83.0886 105.415H133.422V92.8721H83.0886V105.415Z" fill="#E6E6E6"/>
<path id="Vector_18" d="M105.876 96.7678H110.631C112.697 96.7678 114.672 95.2204 116.092 92.4879H100.415C101.836 95.2385 103.811 96.7678 105.876 96.7678Z" fill="#F0F0F0"/>
<path id="Vector_19" d="M83.0886 119.987H133.422V107.444H83.0886V119.987Z" fill="#E6E6E6"/>
<path id="Vector_20" d="M105.876 111.34H110.631C112.697 111.34 114.672 109.793 116.092 107.06H100.415C101.836 109.793 103.811 111.34 105.876 111.34Z" fill="#F0F0F0"/>
<path id="Vector_21" d="M12.6634 65.529H61.2395L61.2395 16.3767L12.6634 16.3767L12.6634 65.529Z" fill="#E6E6E6"/>
<path id="Vector_22" d="M9.28957 65.529H60.3445L60.3445 16.3767L9.28957 16.3767L9.28957 65.529Z" fill="#F0F0F0"/>
<path id="Vector_23" d="M56.0718 61.2526V20.653L13.5731 20.653V61.2526H56.0718Z" fill="white"/>
<path id="Vector_24" d="M34.527 26.0202L26.7281 33.8335C24.8435 35.7228 23.7852 38.2825 23.7852 40.9511C23.7852 43.6196 24.8435 46.1793 26.7281 48.0686L34.527 55.8711C34.565 55.9092 34.6102 55.9395 34.6599 55.9601C34.7097 55.9807 34.763 55.9914 34.8169 55.9914C34.8707 55.9914 34.9241 55.9807 34.9738 55.9601C35.0236 55.9395 35.0688 55.9092 35.1068 55.8711L42.9093 48.0686C44.7939 46.1793 45.8522 43.6196 45.8522 40.9511C45.8522 38.2825 44.7939 35.7228 42.9093 33.8335L35.1104 26.0202C35.0325 25.9438 34.9278 25.901 34.8187 25.901C34.7096 25.901 34.6049 25.9438 34.527 26.0202ZM27.308 47.4743C25.5776 45.7392 24.6059 43.3888 24.6059 40.9384C24.6059 38.488 25.5776 36.1375 27.308 34.4025V47.4743ZM42.3294 47.4743V34.417C44.0598 36.152 45.0315 38.5025 45.0315 40.9529C45.0315 43.4033 44.0598 45.7537 42.3294 47.4888V47.4743Z" fill="#F0F0F0"/>
<path id="Vector_25" d="M131.842 59.3609H104.702L103.155 75.3863H130.295L131.842 59.3609Z" fill="#E6E6E6"/>
<path id="Vector_26" d="M130.295 75.3862L130.186 76.2741H103.042L103.155 75.3862H130.295Z" fill="#E6E6E6"/>
<path id="Vector_27" d="M131.009 59.3609H103.869L102.318 75.3863H129.458L131.009 59.3609Z" fill="#F0F0F0"/>
<path id="Vector_28" d="M128.91 74.3425L130.045 60.4481C130.048 60.4019 130.041 60.3556 130.026 60.3119C130.01 60.2683 129.986 60.2283 129.954 60.1944C129.923 60.1605 129.885 60.1333 129.842 60.1146C129.8 60.096 129.754 60.0861 129.708 60.0857H104.757C104.671 60.0854 104.588 60.1173 104.525 60.175C104.462 60.2328 104.423 60.3122 104.416 60.3974L103.267 74.2882C103.264 74.3347 103.271 74.3814 103.286 74.4252C103.302 74.4691 103.327 74.5093 103.359 74.5432C103.391 74.5772 103.429 74.6043 103.472 74.6227C103.515 74.6412 103.561 74.6507 103.608 74.6506H128.559C128.646 74.6546 128.731 74.6248 128.797 74.5674C128.862 74.51 128.903 74.4294 128.91 74.3425Z" fill="white"/>
<path id="Vector_29" d="M122.387 75.3862L122.278 76.2741H92.3914L92.5001 75.3862H122.387Z" fill="#F0F0F0"/>
<path id="Vector_30" d="M85.9046 50.7938L136.869 50.7938V16.913L85.9046 16.913V50.7938Z" fill="#E6E6E6"/>
<path id="Vector_31" d="M84.774 50.7938L135.738 50.7938V16.913L84.774 16.913V50.7938Z" fill="#F5F5F5"/>
<path id="Vector_32" d="M133.705 48.5107V19.1997L86.8069 19.1997V48.5107H133.705Z" fill="white"/>
<path id="Vector_33" d="M87.6584 48.507V19.1961H86.8032V48.507H87.6584Z" fill="#E6E6E6"/>
<path id="Vector_34" d="M85.6147 44.6222L134.897 44.6222V41.5563L85.6147 41.5563V44.6222Z" fill="#F5F5F5"/>
<path id="Vector_35" d="M82.556 13.1368H139.09C139.173 13.1377 139.251 13.1709 139.31 13.2291C139.368 13.2874 139.401 13.3661 139.402 13.4485C139.402 13.5311 139.369 13.6104 139.311 13.6688C139.252 13.7273 139.173 13.7601 139.09 13.7601H82.556C82.5148 13.7606 82.4739 13.7529 82.4356 13.7374C82.3974 13.722 82.3626 13.6991 82.3333 13.6701C82.304 13.6411 82.2807 13.6066 82.2648 13.5686C82.2489 13.5305 82.2407 13.4897 82.2407 13.4485C82.2417 13.3655 82.2753 13.2862 82.3343 13.2279C82.3934 13.1695 82.473 13.1368 82.556 13.1368Z" fill="#E6E6E6"/>
<path id="Vector_36" d="M81.4614 13.4484C81.4614 13.6031 81.5072 13.7543 81.5931 13.883C81.679 14.0116 81.801 14.1119 81.9438 14.1713C82.0866 14.2306 82.2439 14.2464 82.3956 14.2164C82.5474 14.1865 82.6868 14.1123 82.7964 14.0032C82.9061 13.8941 82.9809 13.755 83.0115 13.6034C83.0421 13.4518 83.0271 13.2945 82.9684 13.1514C82.9098 13.0083 82.81 12.8858 82.6817 12.7993C82.5535 12.7129 82.4025 12.6664 82.2478 12.6657C82.1447 12.6652 82.0426 12.6851 81.9472 12.7242C81.8518 12.7633 81.7651 12.8209 81.692 12.8936C81.6189 12.9664 81.5609 13.0528 81.5214 13.148C81.4818 13.2433 81.4614 13.3453 81.4614 13.4484Z" fill="#E6E6E6"/>
<path id="Vector_37" d="M136.445 15.2025C136.556 15.2025 136.663 15.1589 136.742 15.0809C136.821 15.0029 136.867 14.8969 136.869 14.7858V13.8798C136.869 13.7673 136.824 13.6595 136.745 13.5799C136.665 13.5004 136.557 13.4557 136.445 13.4557C136.389 13.4557 136.334 13.4667 136.283 13.4881C136.232 13.5094 136.185 13.5407 136.146 13.5802C136.107 13.6196 136.076 13.6663 136.055 13.7178C136.034 13.7692 136.024 13.8242 136.024 13.8798V14.7858C136.026 14.8963 136.071 15.0018 136.15 15.0796C136.228 15.1575 136.334 15.2016 136.445 15.2025Z" fill="#E6E6E6"/>
<path id="Vector_38" d="M87.2742 15.2025C87.3826 15.198 87.4852 15.1524 87.5613 15.075C87.6373 14.9976 87.6811 14.8942 87.6838 14.7858V13.8798C87.6838 13.7673 87.6391 13.6595 87.5596 13.5799C87.4801 13.5004 87.3722 13.4557 87.2597 13.4557C87.2042 13.4557 87.1493 13.4667 87.098 13.4881C87.0468 13.5094 87.0003 13.5407 86.9612 13.5802C86.9221 13.6196 86.8912 13.6663 86.8703 13.7178C86.8494 13.7692 86.8389 13.8242 86.8394 13.8798V14.7858C86.8403 14.8418 86.8523 14.897 86.8747 14.9483C86.8972 14.9997 86.9295 15.046 86.9699 15.0848C87.0104 15.1235 87.0581 15.1539 87.1103 15.1741C87.1625 15.1943 87.2183 15.204 87.2742 15.2025Z" fill="#E6E6E6"/>
<path id="Vector_39" opacity="0.4" d="M82.6575 46.3652L134.897 46.3652V13.4484L82.6575 13.4484V46.3652Z" fill="#E0E0E0"/>
<path id="Vector_40" d="M130.632 13.4484C130.632 13.6033 130.678 13.7546 130.764 13.8833C130.85 14.0121 130.972 14.1124 131.115 14.1716C131.258 14.2309 131.415 14.2464 131.567 14.2162C131.719 14.186 131.859 14.1114 131.968 14.0019C132.078 13.8925 132.152 13.753 132.182 13.6011C132.213 13.4493 132.197 13.2919 132.138 13.1489C132.079 13.0058 131.978 12.8836 131.85 12.7976C131.721 12.7116 131.569 12.6656 131.415 12.6656C131.207 12.6656 131.008 12.7481 130.861 12.8949C130.714 13.0417 130.632 13.2408 130.632 13.4484Z" fill="#E6E6E6"/>
<path id="Vector_41" d="M56.6988 121.302H60.8882L60.8882 84.9645H56.6988L56.6988 121.302Z" fill="#F0F0F0"/>
<path id="Vector_42" d="M11.2538 123.604H59.2791V121.302H11.2538V123.604Z" fill="#F0F0F0"/>
<path id="Vector_43" d="M56.6988 84.9644H9.64478V121.302H56.6988V84.9644Z" fill="#F5F5F5"/>
<path id="Vector_44" d="M50.8243 89.4365H15.5193C14.0942 89.4365 12.939 90.5918 12.939 92.0168V98.772C12.939 100.197 14.0942 101.352 15.5193 101.352H50.8243C52.2493 101.352 53.4045 100.197 53.4045 98.772V92.0168C53.4045 90.5918 52.2493 89.4365 50.8243 89.4365Z" fill="#F0F0F0"/>
<path id="Vector_45" d="M50.8243 104.911H15.5193C14.0942 104.911 12.939 106.066 12.939 107.491V114.246C12.939 115.671 14.0942 116.827 15.5193 116.827H50.8243C52.2493 116.827 53.4045 115.671 53.4045 114.246V107.491C53.4045 106.066 52.2493 104.911 50.8243 104.911Z" fill="#F0F0F0"/>
<path id="Vector_46" d="M24.4052 96.2133H41.9381C42.1547 96.2133 42.3625 96.1275 42.516 95.9747C42.6695 95.8219 42.7562 95.6145 42.7571 95.3979C42.7562 95.181 42.6696 94.9733 42.5162 94.8199C42.3628 94.6665 42.155 94.5799 41.9381 94.5789H24.4052C24.1883 94.5799 23.9805 94.6665 23.8271 94.8199C23.6737 94.9733 23.5871 95.181 23.5862 95.3979C23.5871 95.6145 23.6739 95.8219 23.8273 95.9747C23.9808 96.1275 24.1886 96.2133 24.4052 96.2133Z" fill="#F5F5F5"/>
<path id="Vector_47" d="M24.4052 111.688H41.9381C42.1547 111.688 42.3625 111.602 42.516 111.449C42.6695 111.296 42.7562 111.089 42.7571 110.872C42.7562 110.656 42.6696 110.448 42.5162 110.294C42.3628 110.141 42.155 110.054 41.9381 110.053H24.4052C24.1883 110.054 23.9805 110.141 23.8271 110.294C23.6737 110.448 23.5871 110.656 23.5862 110.872C23.5871 111.089 23.6739 111.296 23.8273 111.449C23.9808 111.602 24.1886 111.688 24.4052 111.688Z" fill="#F5F5F5"/>
</g>
<g id="freepik--Shadow--inject-75">
<path id="freepik--path--inject-75" d="M75.0001 140.017C113.807 140.017 145.266 138.18 145.266 135.914C145.266 133.649 113.807 131.812 75.0001 131.812C36.1934 131.812 4.73438 133.649 4.73438 135.914C4.73438 138.18 36.1934 140.017 75.0001 140.017Z" fill="#F5F5F5"/>
</g>
<g id="freepik--Screen--inject-63">
<path id="Vector_48" d="M91.9857 10.3859H18.1721V75.0199H91.9857V10.3859Z" fill="white"/>
<path id="Vector_49" d="M91.982 40.041H18.3496V75.0199H91.982V40.041Z" fill="#EBEBEB"/>
<path id="Vector_50" d="M78.298 31.9052C78.298 31.9559 68.1943 31.9994 55.7386 31.9994C43.2829 31.9994 33.1755 31.9559 33.1755 31.9052C33.1755 31.8544 43.2756 31.8109 55.7386 31.8109C68.2015 31.8109 78.298 31.8508 78.298 31.9052Z" fill="#263238"/>
<path id="Vector_51" d="M91.558 17.3802C91.558 17.431 75.2101 17.4744 55.0462 17.4744C34.8822 17.4744 18.5308 17.431 18.5308 17.3802C18.5308 17.3295 34.875 17.286 55.0462 17.286C75.2174 17.286 91.558 17.3259 91.558 17.3802Z" fill="#263238"/>
<path id="Vector_52" d="M22.1657 14.8688C22.7842 14.8688 23.2855 14.3674 23.2855 13.7489C23.2855 13.1305 22.7842 12.6291 22.1657 12.6291C21.5473 12.6291 21.0459 13.1305 21.0459 13.7489C21.0459 14.3674 21.5473 14.8688 22.1657 14.8688Z" fill="#263238"/>
<path id="Vector_53" d="M25.913 14.8688C26.5315 14.8688 27.0328 14.3674 27.0328 13.7489C27.0328 13.1305 26.5315 12.6291 25.913 12.6291C25.2946 12.6291 24.7932 13.1305 24.7932 13.7489C24.7932 14.3674 25.2946 14.8688 25.913 14.8688Z" fill="#263238"/>
<path id="Vector_54" d="M30.7802 13.7489C30.7802 13.9704 30.7145 14.1869 30.5914 14.3711C30.4684 14.5552 30.2935 14.6988 30.0889 14.7835C29.8843 14.8683 29.6591 14.8904 29.4419 14.8472C29.2247 14.804 29.0251 14.6974 28.8685 14.5408C28.7119 14.3842 28.6053 14.1846 28.562 13.9674C28.5188 13.7502 28.541 13.525 28.6258 13.3204C28.7105 13.1158 28.8541 12.9409 29.0382 12.8178C29.2224 12.6948 29.4389 12.6291 29.6603 12.6291C29.8074 12.6291 29.953 12.6581 30.0889 12.7144C30.2247 12.7706 30.3482 12.8531 30.4522 12.9571C30.5562 13.0611 30.6386 13.1845 30.6949 13.3204C30.7512 13.4563 30.7802 13.6019 30.7802 13.7489Z" fill="#263238"/>
<path id="Vector_55" d="M32.1929 33.788C33.3436 32.6374 33.3436 30.7719 32.1929 29.6213C31.0423 28.4707 29.1768 28.4707 28.0262 29.6213C26.8756 30.7719 26.8756 32.6374 28.0262 33.788C29.1768 34.9386 31.0423 34.9386 32.1929 33.788Z" fill="url(#paint0_linear_951_2693)"/>
<path id="Vector_56" d="M30.6062 30.2273V33.0794H29.9467V30.7564H29.3777V30.2273H30.6062Z" fill="white"/>
<path id="Vector_57" d="M59.7793 31.8037C59.7459 31.4535 59.689 31.1061 59.609 30.7636C59.363 29.8382 58.8128 29.0226 58.047 28.4479C57.4846 28.0246 56.8252 27.7489 56.1289 27.6457C55.4326 27.5425 54.7216 27.6152 54.0606 27.8571C53.6797 27.993 53.3216 28.1861 52.9988 28.4297C52.6566 28.6784 52.3567 28.9806 52.1109 29.3249C51.5812 30.0428 51.2953 30.9115 51.2953 31.8037C51.2953 32.6959 51.5812 33.5646 52.1109 34.2825C52.3567 34.6267 52.6566 34.929 52.9988 35.1776C53.3216 35.4212 53.6797 35.6143 54.0606 35.7502C54.6141 35.9516 55.2034 36.0354 55.7911 35.9964C56.3788 35.9573 56.9518 35.7963 57.4738 35.5236C57.9958 35.2508 58.4553 34.8723 58.8229 34.4122C59.1905 33.952 59.4582 33.4203 59.609 32.851C59.6888 32.5097 59.7457 32.1635 59.7793 31.8145C59.7872 31.9062 59.7872 31.9983 59.7793 32.09C59.7802 32.2004 59.7717 32.3107 59.7539 32.4198C59.739 32.5714 59.7123 32.7216 59.6742 32.8691C59.4795 33.6746 59.0578 34.4074 58.4591 34.9804C57.8604 35.5534 57.1099 35.9426 56.2966 36.1017C55.5295 36.2473 54.7374 36.1848 54.0026 35.9205C53.6043 35.7804 53.2293 35.5813 52.8901 35.3298C52.5329 35.0711 52.2196 34.7566 51.9623 34.3985C51.4071 33.6493 51.1074 32.7416 51.1074 31.8091C51.1074 30.8767 51.4071 29.9689 51.9623 29.2198C52.2207 28.8635 52.5338 28.5504 52.8901 28.292C53.2293 28.0406 53.6043 27.8415 54.0026 27.7013C54.7374 27.4371 55.5295 27.3745 56.2966 27.5201C57.1117 27.6783 57.8641 28.0675 58.4642 28.6413C59.0643 29.215 59.4868 29.9492 59.6814 30.7563C59.7192 30.9027 59.7459 31.0517 59.7612 31.2021C59.779 31.3123 59.7875 31.4239 59.7865 31.5355C59.7916 31.6249 59.7892 31.7146 59.7793 31.8037Z" fill="url(#paint1_linear_951_2693)"/>
<path id="Vector_58" d="M84.1833 31.7058C84.1616 31.7058 84.1834 31.4413 84.0565 30.981C83.8797 30.3482 83.4972 29.7923 82.9693 29.401C82.5855 29.1129 82.1356 28.9258 81.6607 28.8568C81.1858 28.7878 80.7012 28.8391 80.2513 29.006C79.7202 29.1977 79.2593 29.545 78.9285 30.0026C78.5686 30.4914 78.3744 31.0825 78.3744 31.6895C78.3744 32.2966 78.5686 32.8877 78.9285 33.3765C79.2602 33.834 79.7207 34.1823 80.2513 34.3767C80.7017 34.5422 81.1862 34.5923 81.661 34.5227C82.1357 34.4531 82.5854 34.2659 82.9693 33.9781C83.4961 33.5874 83.8785 33.0329 84.0565 32.4017C84.1761 31.9523 84.1616 31.6769 84.1833 31.6769C84.193 31.7393 84.193 31.8029 84.1833 31.8653C84.1809 32.0473 84.1578 32.2285 84.1145 32.4053C83.9828 32.9632 83.6928 33.4713 83.2795 33.8686C82.8662 34.2659 82.347 34.5354 81.7843 34.6449C81.2528 34.7484 80.7033 34.7071 80.1933 34.5253C79.6269 34.3239 79.1343 33.9564 78.78 33.4707C78.3943 32.9515 78.186 32.3219 78.186 31.675C78.186 31.0282 78.3943 30.3986 78.78 29.8794C79.1343 29.3937 79.6269 29.0262 80.1933 28.8248C80.7033 28.643 81.2528 28.6016 81.7843 28.7052C82.3476 28.8145 82.8674 29.0845 83.2808 29.4825C83.6943 29.8805 83.9838 30.3896 84.1145 30.9484C84.1579 31.124 84.1811 31.304 84.1833 31.4848C84.1959 31.5579 84.1959 31.6327 84.1833 31.7058Z" fill="#263238"/>
<path id="Vector_59" d="M61.2722 31.579H32.6499V32.0973H61.2722V31.579Z" fill="url(#paint2_linear_951_2693)"/>
<path id="Vector_60" d="M58.3984 32.1752C58.6597 30.5691 57.5695 29.0553 55.9634 28.794C54.3573 28.5327 52.8435 29.6229 52.5822 31.229C52.3209 32.8351 53.4111 34.3489 55.0172 34.6102C56.6233 34.8714 58.1371 33.7813 58.3984 32.1752Z" fill="url(#paint3_linear_951_2693)"/>
<path id="Vector_61" d="M56.6045 32.543V33.0793H54.4482V32.6517L55.5354 31.6116C55.7891 31.3724 55.8326 31.2238 55.8326 31.0861C55.8326 30.8614 55.6804 30.7237 55.376 30.7237C55.2616 30.7198 55.1481 30.7438 55.0451 30.7937C54.9422 30.8436 54.853 30.9178 54.7853 31.01L54.3069 30.702C54.4366 30.5266 54.6078 30.3862 54.8051 30.2932C55.0025 30.2002 55.2198 30.1576 55.4376 30.1693C56.0754 30.1693 56.4994 30.4954 56.4994 31.0137C56.4949 31.1908 56.4494 31.3645 56.3664 31.5211C56.2834 31.6777 56.1652 31.8129 56.021 31.916L55.3651 32.5357L56.6045 32.543Z" fill="white"/>
<path id="Vector_62" d="M82.3568 32.206C82.3568 32.688 81.9944 33.1301 81.1753 33.1301C80.7906 33.1359 80.4126 33.0288 80.0881 32.8221L80.3454 32.3183C80.5835 32.4875 80.8688 32.5776 81.1608 32.5756C81.4906 32.5756 81.6936 32.4415 81.6936 32.2132C81.6936 31.9849 81.5377 31.8508 81.1608 31.8508H80.86V31.4123L81.4471 30.7491H80.2331V30.22H82.2299V30.6658L81.5848 31.3906C81.7935 31.4017 81.9899 31.4925 82.1335 31.6443C82.2771 31.796 82.3571 31.9971 82.3568 32.206Z" fill="#263238"/>
<path id="Vector_63" d="M73.3076 22.4321C73.3076 22.4828 66.1393 22.5263 57.3004 22.5263C48.4614 22.5263 41.2896 22.4828 41.2896 22.4321C41.2896 22.3813 48.4687 22.3306 57.3004 22.3306C66.1321 22.3306 73.3076 22.3777 73.3076 22.4321Z" fill="#263238"/>
<path id="Vector_64" d="M53.5242 40.4651L55.7384 37.4608L57.9491 40.4651H53.5242Z" fill="#EBEBEB"/>
<path id="Vector_65" d="M91.9821 75.0199C91.9821 74.3495 91.9495 49.2895 91.9024 10.3859L91.9821 10.4656H18.1758L18.27 10.3714C18.27 33.8549 18.27 55.9722 18.27 75.0054L18.1866 74.9221L91.9966 75.0054L18.1866 75.0888H18.1033V75.0054C18.1033 55.9722 18.1033 33.8549 18.1033 10.3714V10.2771H18.2011H92.0075H92.0872V10.3714C92.0147 49.275 91.9821 74.3495 91.9821 75.0199Z" fill="#263238"/>
<path id="Vector_66" d="M36.5676 47.5971C36.5676 47.6478 34.3134 47.6913 31.5374 47.6913C28.7615 47.6913 26.5073 47.6478 26.5073 47.5971C26.5073 47.5464 28.7578 47.4992 31.5374 47.4992C34.317 47.4992 36.5676 47.5427 36.5676 47.5971Z" fill="url(#paint4_linear_951_2693)"/>
<path id="Vector_67" d="M46.896 55.7148H27.8845C27.2012 55.7148 26.5458 55.4434 26.0626 54.9601C25.5793 54.4769 25.3079 53.8215 25.3079 53.1382C25.3079 52.7998 25.3745 52.4647 25.504 52.1521C25.6335 51.8395 25.8233 51.5554 26.0626 51.3162C26.3018 51.0769 26.5859 50.8871 26.8985 50.7576C27.2111 50.6281 27.5462 50.5615 27.8845 50.5615H46.896C47.2347 50.561 47.5702 50.6273 47.8832 50.7566C48.1962 50.8859 48.4807 51.0756 48.7204 51.3149C48.96 51.5542 49.1501 51.8384 49.2798 52.1513C49.4095 52.4641 49.4763 52.7995 49.4763 53.1382C49.4763 53.4768 49.4095 53.8122 49.2798 54.125C49.1501 54.4379 48.96 54.7221 48.7204 54.9614C48.4807 55.2007 48.1962 55.3905 47.8832 55.5197C47.5702 55.649 47.2347 55.7153 46.896 55.7148Z" fill="#FAFAFA"/>
<path id="Vector_68" d="M71.7494 47.5971C71.7494 47.6478 69.6148 47.6913 66.9838 47.6913C64.3528 47.6913 62.2183 47.6478 62.2183 47.5971C62.2183 47.5464 64.3492 47.4992 66.9838 47.4992C69.6185 47.4992 71.7494 47.5427 71.7494 47.5971Z" fill="url(#paint5_linear_951_2693)"/>
<path id="Vector_69" d="M36.3031 61.6474C36.3031 61.6981 34.1686 61.7416 31.5375 61.7416C28.9065 61.7416 26.772 61.6981 26.772 61.6474C26.772 61.5966 28.9029 61.5531 31.5375 61.5531C34.1722 61.5531 36.3031 61.593 36.3031 61.6474Z" fill="url(#paint6_linear_951_2693)"/>
<path id="Vector_70" d="M81.4253 55.7148H62.4102C61.7268 55.7148 61.0714 55.4434 60.5882 54.9601C60.105 54.4769 59.8335 53.8215 59.8335 53.1382C59.8335 52.7998 59.9001 52.4647 60.0296 52.1521C60.1591 51.8395 60.3489 51.5554 60.5882 51.3162C60.8275 51.0769 61.1115 50.8871 61.4241 50.7576C61.7367 50.6281 62.0718 50.5615 62.4102 50.5615H81.4253C81.7637 50.5615 82.0987 50.6281 82.4113 50.7576C82.724 50.8871 83.008 51.0769 83.2473 51.3162C83.4865 51.5554 83.6763 51.8395 83.8058 52.1521C83.9353 52.4647 84.002 52.7998 84.002 53.1382C84.002 53.8215 83.7305 54.4769 83.2473 54.9601C82.7641 55.4434 82.1087 55.7148 81.4253 55.7148Z" fill="#FAFAFA"/>
<path id="Vector_71" d="M82.1285 69.979H28.0258C27.6872 69.9794 27.3517 69.9131 27.0387 69.7839C26.7257 69.6546 26.4412 69.4649 26.2015 69.2255C25.9619 68.9862 25.7718 68.702 25.642 68.3892C25.5123 68.0763 25.4456 67.741 25.4456 67.4023C25.4456 67.0636 25.5123 66.7283 25.642 66.4154C25.7718 66.1026 25.9619 65.8183 26.2015 65.579C26.4412 65.3397 26.7257 65.15 27.0387 65.0207C27.3517 64.8914 27.6872 64.8251 28.0258 64.8256H82.1285C82.4672 64.8251 82.8027 64.8914 83.1157 65.0207C83.4287 65.15 83.7132 65.3397 83.9529 65.579C84.1925 65.8183 84.3826 66.1026 84.5123 66.4154C84.6421 66.7283 84.7088 67.0636 84.7088 67.4023C84.7088 67.741 84.6421 68.0763 84.5123 68.3892C84.3826 68.702 84.1925 68.9862 83.9529 69.2255C83.7132 69.4649 83.4287 69.6546 83.1157 69.7839C82.8027 69.9131 82.4672 69.9794 82.1285 69.979Z" fill="#FAFAFA"/>
<path id="Vector_72" d="M95.3458 14.9137C97.4375 12.822 97.4375 9.43055 95.3458 7.3388C93.254 5.24704 89.8626 5.24704 87.7709 7.3388C85.6791 9.43055 85.6791 12.822 87.7709 14.9137C89.8626 17.0055 93.254 17.0055 95.3458 14.9137Z" fill="url(#paint7_linear_951_2693)"/>
<path id="Vector_73" d="M93.7636 9.63712L93.0051 8.8786L89.6021 12.2817L90.3606 13.0402L93.7636 9.63712Z" fill="white"/>
<path id="Vector_74" d="M90.3635 8.87267L89.605 9.63118L93.0081 13.0343L93.7666 12.2757L90.3635 8.87267Z" fill="white"/>
</g>
<g id="freepik--Character--inject-75">
<path id="Vector_75" d="M111.432 134.099C111.149 134.134 110.862 134.063 110.628 133.899C110.597 133.861 110.578 133.814 110.573 133.765C110.569 133.716 110.579 133.667 110.602 133.624C110.62 133.587 110.645 133.554 110.677 133.528C110.709 133.502 110.747 133.484 110.787 133.475C111.215 133.356 112.204 133.885 112.237 133.91C112.249 133.916 112.259 133.925 112.266 133.937C112.272 133.949 112.275 133.962 112.273 133.975C112.272 133.988 112.268 133.999 112.26 134.008C112.252 134.017 112.241 134.024 112.229 134.026C111.966 134.073 111.699 134.097 111.432 134.099ZM110.954 133.584C110.914 133.578 110.874 133.578 110.834 133.584C110.809 133.589 110.786 133.599 110.766 133.614C110.746 133.629 110.729 133.649 110.718 133.671C110.682 133.751 110.718 133.791 110.718 133.812C110.863 133.983 111.537 133.986 112.023 133.917C111.689 133.743 111.327 133.63 110.954 133.584Z" fill="#263238"/>
<path id="Vector_76" d="M112.229 134.026H112.204C111.867 133.881 111.164 133.301 111.178 133.004C111.178 132.932 111.222 132.845 111.396 132.827C111.526 132.816 111.656 132.854 111.758 132.935C112.029 133.219 112.213 133.575 112.287 133.961C112.292 133.97 112.294 133.98 112.294 133.99C112.294 134 112.292 134.01 112.287 134.019C112.279 134.025 112.269 134.029 112.259 134.03C112.249 134.031 112.239 134.03 112.229 134.026ZM111.457 132.939H111.421C111.309 132.939 111.305 132.993 111.305 133.008C111.305 133.189 111.78 133.642 112.132 133.838C112.063 133.528 111.908 133.244 111.686 133.019C111.62 132.969 111.54 132.944 111.457 132.946V132.939Z" fill="#263238"/>
<path id="Vector_77" d="M115.15 133.965H112.487L111.533 127.797H114.197L115.15 133.965Z" fill="#FFBDA7"/>
<path id="Vector_78" d="M112.468 133.657H115.368C115.422 133.658 115.475 133.676 115.519 133.709C115.563 133.741 115.596 133.786 115.614 133.838L116.404 136.204C116.421 136.257 116.425 136.313 116.417 136.368C116.408 136.423 116.387 136.476 116.355 136.521C116.324 136.567 116.282 136.604 116.233 136.631C116.184 136.658 116.13 136.673 116.074 136.675C115.023 136.675 113.501 136.599 112.182 136.599C110.642 136.599 110.78 136.683 108.971 136.683C107.884 136.683 107.453 135.577 107.884 135.476C109.917 135.023 110.153 134.972 111.827 133.863C112.015 133.73 112.239 133.658 112.468 133.657Z" fill="#263238"/>
<path id="Vector_79" opacity="0.2" d="M111.533 127.8L112.026 130.978H114.69L114.197 127.8H111.533Z" fill="#F0997A"/>
<path id="Vector_80" d="M114.846 67.5403L113.034 69.3705L115.81 70.3526C115.81 70.3526 116.897 68.8595 116.132 67.8375L114.846 67.5403Z" fill="#FFBDA7"/>
<path id="Vector_81" d="M112.425 71.929L115.197 72.3349L115.817 70.3526L113.041 69.3705L112.425 71.929Z" fill="#FFBDA7"/>
<path id="Vector_82" d="M103.543 66.2429C103.543 66.2429 103.985 86.6243 105.181 94.7421C106.427 103.186 110.979 130.362 110.979 130.362H115.487C115.487 130.362 113.871 104.498 113.357 96.188C112.795 87.128 112.918 66.2429 112.918 66.2429H103.543Z" fill="#263238"/>
<path id="Vector_83" d="M109.895 128.565C109.874 128.565 110.359 130.438 110.359 130.438H115.846L115.806 128.768L109.895 128.565Z" fill="#263238"/>
<path id="Vector_84" d="M102.527 33.2026C102.541 32.9769 102.432 32.7865 102.284 32.7774C102.136 32.7683 102.005 32.944 101.991 33.1697C101.978 33.3954 102.086 33.5858 102.234 33.5949C102.382 33.604 102.513 33.4284 102.527 33.2026Z" fill="#263238"/>
<path id="Vector_85" d="M102.415 33.5943C102.122 34.2852 101.736 34.9336 101.27 35.5222C101.422 35.6328 101.597 35.7083 101.782 35.7434C101.967 35.7785 102.157 35.7723 102.339 35.7252L102.415 33.5943Z" fill="#F0997A"/>
<path id="Vector_86" d="M103.372 31.9345C103.344 31.9345 103.317 31.927 103.293 31.9127C103.163 31.8107 103.01 31.7416 102.848 31.7113C102.686 31.681 102.519 31.6904 102.361 31.7388C102.345 31.7452 102.328 31.7483 102.31 31.7479C102.293 31.7475 102.276 31.7437 102.26 31.7366C102.244 31.7295 102.23 31.7193 102.218 31.7066C102.206 31.6939 102.197 31.679 102.191 31.6627C102.185 31.646 102.183 31.6284 102.184 31.6108C102.185 31.5933 102.189 31.5761 102.197 31.5603C102.205 31.5444 102.216 31.5303 102.229 31.5186C102.242 31.507 102.258 31.4981 102.274 31.4924C102.473 31.4277 102.684 31.4125 102.89 31.4478C103.096 31.4832 103.29 31.5681 103.456 31.6953C103.483 31.7168 103.501 31.7481 103.506 31.7826C103.51 31.8171 103.502 31.852 103.481 31.8801C103.468 31.8969 103.452 31.9105 103.433 31.9199C103.414 31.9294 103.393 31.9343 103.372 31.9345Z" fill="#263238"/>
<path id="Vector_87" d="M109.577 35.6744C109.127 37.6242 108.62 41.1938 109.939 42.4912C109.939 42.4912 109.337 44.4663 105.717 44.4663C101.731 44.4663 103.887 42.4912 103.887 42.4912C106.061 41.9729 106.079 40.3639 105.753 38.8491L109.577 35.6744Z" fill="#FFBDA7"/>
<path id="Vector_88" d="M111.342 43.4044C111.733 42.6108 112.164 41.6975 111.342 41.4149C110.443 41.0996 105.474 40.7807 103.731 41.3678C103.265 41.4865 102.866 41.7853 102.621 42.1985C102.375 42.6117 102.304 43.1055 102.423 43.5711L111.342 43.4044Z" fill="url(#paint8_linear_951_2693)"/>
<path id="Union" fill-rule="evenodd" clip-rule="evenodd" d="M118.615 52.3376C118.615 52.3376 117.448 44.3141 115.154 43.2559C112.866 42.2037 111.359 43.8278 111.94 47.0088L111.505 47.2205C111.643 47.4947 111.784 47.813 111.925 48.1324C111.965 48.2225 112.005 48.3126 112.045 48.4019C112.226 48.8078 112.4 49.2209 112.566 49.6377C112.604 49.7294 112.642 49.8212 112.679 49.9131C113.061 51.2225 113.5 52.5152 113.994 53.7872L114.043 53.772C114.128 54.0625 114.21 54.3527 114.288 54.6424L114.444 55.2657L114.578 55.8854C114.617 56.0566 114.643 56.2253 114.67 56.3936C114.675 56.4284 114.681 56.4631 114.687 56.4979C114.723 56.686 114.75 56.8759 114.766 57.0669L114.792 57.3061V57.5996V57.8931V58.2121C114.792 58.5855 114.772 58.9786 114.752 59.3691C114.75 59.422 114.747 59.4748 114.744 59.5276C114.702 60.2775 114.632 61.04 114.562 61.8068C114.548 61.9589 114.534 62.1113 114.52 62.2637C114.361 63.9407 114.167 65.6417 113.975 67.323C113.956 67.4874 113.937 67.6517 113.918 67.8157L117.22 68.468C117.727 66.6016 118.147 64.7497 118.532 62.8544C118.716 61.8904 118.883 60.9337 119.028 59.9552C119.038 59.8809 119.048 59.8068 119.057 59.7328C119.113 59.3116 119.169 58.8914 119.209 58.4476L119.249 58.0598L119.271 57.6503V57.2336V56.7625C119.271 56.5196 119.252 56.3268 119.233 56.1377C119.226 56.0672 119.219 55.9972 119.213 55.9253C119.191 55.6608 119.166 55.3926 119.126 55.1353L119.014 54.3597L118.876 53.5987C118.795 53.1773 118.705 52.7578 118.606 52.3404L118.615 52.3376Z" fill="url(#paint9_linear_951_2693)"/>
<path id="Vector_89" d="M86.7563 55.7405L84.6254 53.9068L82.7083 56.6973C82.7083 56.6973 84.4297 58.078 86.3323 57.5127L86.7563 55.7405Z" fill="#FFBDA7"/>
<path id="Vector_90" d="M81.8167 53.0189L81.5232 55.7768L82.7082 56.6973L84.6253 53.9068L81.8167 53.0189Z" fill="#FFBDA7"/>
<path id="Vector_91" d="M110.066 32.7064C109.798 35.4751 109.78 37.1059 108.33 38.5266C107.863 38.989 107.279 39.3159 106.641 39.472C106.002 39.6282 105.334 39.6078 104.706 39.4131C104.078 39.2184 103.515 38.8567 103.077 38.3667C102.64 37.8766 102.343 37.2767 102.22 36.6312C101.713 34.1451 102.22 30.0355 104.985 28.9338C105.574 28.68 106.219 28.5854 106.855 28.6595C107.492 28.7335 108.098 28.9737 108.613 29.3558C109.127 29.7379 109.533 30.2486 109.788 30.8367C110.043 31.4248 110.139 32.0696 110.066 32.7064Z" fill="#FFBDA7"/>
<path id="Vector_92" d="M104.394 33.5943C104.151 31.6808 104.191 30.956 105.213 30.532C104.151 30.3218 103.231 30.2928 102.792 29.6731C102.354 29.0534 102.249 27.4697 104.38 26.7449C104.184 27.1073 104.804 27.8611 106.764 27.1798C108.725 26.4985 111.581 26.426 111.838 28.4192C112.874 28.0568 114.61 31.2568 112.563 33.5943C110.856 35.5513 109.718 36.903 109.381 37.9431C109.365 37.9918 109.339 38.0366 109.305 38.0746C109.27 38.1126 109.228 38.1428 109.181 38.1634C109.134 38.1839 109.084 38.1943 109.033 38.1938C108.981 38.1933 108.931 38.182 108.884 38.1605C108.178 37.8308 106.913 38.1134 106.347 38.2656C106.268 38.2863 106.184 38.2792 106.108 38.2456C106.033 38.2121 105.972 38.1539 105.934 38.0808C105.568 37.327 104.579 35.1744 104.394 33.5943Z" fill="#263238"/>
<path id="Vector_93" d="M111.454 28.662C111.454 28.662 112.295 27.477 113.907 28.3576C113.078 28.319 112.248 28.4219 111.454 28.662Z" fill="#263238"/>
<path id="Vector_94" d="M111.592 28.9157C111.592 28.9157 112.762 28.1909 111.849 26.8246C111.905 27.5319 111.817 28.2431 111.592 28.9157Z" fill="#263238"/>
<path id="Vector_95" d="M105.75 33.674C105.622 34.3592 105.283 34.9869 104.778 35.4679C104.108 36.1021 103.528 35.6527 103.51 34.8373C103.492 34.1125 103.818 32.8876 104.597 32.5615C105.376 32.2353 105.887 32.855 105.75 33.674Z" fill="#F0997A"/>
<path id="Vector_96" opacity="0.3" d="M103.916 77.5679C104.177 83.649 104.586 90.7085 105.181 94.742C105.409 96.2786 105.743 98.4313 106.141 100.928C107.743 92.1871 108.7 80.9237 103.916 77.5679Z" fill="black"/>
<path id="Vector_97" d="M101.919 134.099C101.579 134.099 101.249 134.052 101.144 133.899C101.116 133.859 101.102 133.811 101.102 133.762C101.102 133.713 101.116 133.665 101.144 133.624C101.192 133.551 101.266 133.498 101.35 133.475C101.796 133.356 102.709 133.885 102.749 133.91C102.76 133.916 102.769 133.926 102.774 133.938C102.778 133.95 102.779 133.963 102.774 133.975C102.772 133.988 102.766 133.999 102.757 134.008C102.748 134.017 102.736 134.024 102.724 134.026C102.458 134.073 102.189 134.097 101.919 134.099ZM101.517 133.584C101.476 133.578 101.435 133.578 101.394 133.584C101.368 133.589 101.343 133.599 101.321 133.614C101.299 133.629 101.281 133.649 101.267 133.671C101.22 133.751 101.234 133.791 101.249 133.812C101.368 133.983 102.039 133.986 102.539 133.917C102.223 133.74 101.876 133.627 101.517 133.584Z" fill="#263238"/>
<path id="Vector_98" d="M102.727 134.026H102.702C102.387 133.881 101.767 133.301 101.828 133.004C101.828 132.932 101.894 132.845 102.068 132.827C102.132 132.819 102.198 132.824 102.26 132.843C102.323 132.861 102.381 132.893 102.43 132.935C102.76 133.214 102.792 133.932 102.792 133.961C102.792 133.972 102.789 133.983 102.784 133.993C102.779 134.003 102.772 134.012 102.763 134.019C102.752 134.025 102.74 134.027 102.727 134.026ZM102.115 132.939H102.079C101.963 132.939 101.955 132.993 101.952 133.008C101.915 133.189 102.332 133.642 102.655 133.838C102.635 133.538 102.522 133.252 102.332 133.019C102.271 132.97 102.194 132.944 102.115 132.946V132.939Z" fill="#263238"/>
<path id="Vector_99" d="M105.655 133.965H102.995L102.945 127.797H105.608L105.655 133.965Z" fill="#FFBDA7"/>
<path id="Vector_100" d="M103.021 133.657H105.92C105.972 133.656 106.022 133.674 106.062 133.707C106.102 133.74 106.129 133.787 106.137 133.838L106.583 136.204C106.593 136.263 106.59 136.322 106.575 136.379C106.559 136.436 106.531 136.489 106.493 136.534C106.454 136.579 106.406 136.615 106.352 136.64C106.299 136.664 106.24 136.676 106.181 136.675C105.133 136.675 103.619 136.599 102.303 136.599C100.759 136.599 99.4257 136.683 97.6173 136.683C96.5301 136.683 96.2619 135.577 96.7222 135.476C98.8205 135.023 100.524 134.972 102.361 133.863C102.558 133.736 102.786 133.664 103.021 133.657Z" fill="#263238"/>
<path id="Vector_101" opacity="0.2" d="M102.948 127.8L102.97 130.978H105.634L105.612 127.8H102.948Z" fill="#F0997A"/>
<path id="Vector_102" d="M98.7916 66.2429C98.7916 66.2429 97.7044 86.1496 97.7262 94.2673C97.7262 102.711 102.002 130.362 102.002 130.362H106.511C106.511 130.362 105.337 103.204 105.844 94.9196C106.384 85.8596 109 66.2502 109 66.2502L98.7916 66.2429Z" fill="#263238"/>
<path id="Vector_103" d="M101.198 128.565C101.176 128.565 101.383 130.438 101.383 130.438H106.869L107.08 128.768L101.198 128.565Z" fill="#263238"/>
<path id="Vector_104" d="M99.7628 43.2305C99.7628 43.2305 95.2256 54.6933 97.2006 74.5057H113.77C113.944 72.3313 112.211 53.3922 114.683 43.0928C113.115 42.7893 111.529 42.5884 109.935 42.4913C107.92 42.3752 105.899 42.3752 103.883 42.4913C102.493 42.6312 101.115 42.8783 99.7628 43.2305Z" fill="url(#paint10_linear_951_2693)"/>
<path id="Vector_105" opacity="0.2" d="M97.418 53.606C97.1715 55.418 96.9686 57.4873 96.8381 59.7668C100.056 56.8096 101.158 49.442 101.158 49.442L97.418 53.606Z" fill="black"/>
<path id="Union_2" fill-rule="evenodd" clip-rule="evenodd" d="M98.496 55.7303C99.8003 53.5822 103.988 46.4395 103.271 44.4337C102.463 42.1687 97.8492 42.6652 96.6678 46.2131C95.6968 49.1347 94.9158 51.6551 94.6534 52.5096C94.1186 53.864 93.5671 55.2172 92.9785 56.5306L92.7176 57.0996L92.6771 57.1885C92.6117 57.184 92.5465 57.1749 92.482 57.1612C92.147 57.1116 91.8163 57.0365 91.4927 56.9365C89.9681 56.44 88.4938 55.8005 87.0895 55.0267L85.1326 58.0274C85.2964 58.1414 85.4502 58.257 85.6001 58.3698C85.8314 58.5437 86.0533 58.7107 86.2886 58.8536C86.4246 58.9362 86.561 59.021 86.6985 59.1065C86.9531 59.2648 87.2114 59.4255 87.4773 59.5784C88.3106 60.0758 89.179 60.5118 90.0757 60.8831C90.5752 61.0864 91.0888 61.2536 91.6123 61.3832C92.2744 61.5534 92.9609 61.6086 93.6417 61.5463C94.137 61.4955 94.618 61.3503 95.0587 61.1186C95.5916 60.8312 96.0421 60.4119 96.367 59.901C96.4974 59.6827 96.5341 59.612 96.5672 59.5483C96.5819 59.52 96.5958 59.4931 96.617 59.4552L96.7837 59.1508L97.1135 58.5456C97.6014 57.6076 98.0578 56.6708 98.496 55.7303ZM92.9369 57.1819C92.9788 57.1769 93.0205 57.17 93.0619 57.1612C93.081 57.1612 93.0303 57.1445 92.9369 57.1819Z" fill="url(#paint11_linear_951_2693)"/>
</g>
</g>
<defs>
<linearGradient id="paint0_linear_951_2693" x1="28.0262" y1="33.788" x2="32.1929" y2="29.6213" gradientUnits="userSpaceOnUse">
<stop stop-color="#00A7AA"/>
<stop offset="1" stop-color="#F2D025"/>
</linearGradient>
<linearGradient id="paint1_linear_951_2693" x1="51.1074" y1="31.8109" x2="59.7891" y2="31.8109" gradientUnits="userSpaceOnUse">
<stop stop-color="#00A7AA"/>
<stop offset="1" stop-color="#F2D025"/>
</linearGradient>
<linearGradient id="paint2_linear_951_2693" x1="32.6499" y1="31.8381" x2="61.2722" y2="31.8382" gradientUnits="userSpaceOnUse">
<stop stop-color="#00A7AA"/>
<stop offset="1" stop-color="#F2D025"/>
</linearGradient>
<linearGradient id="paint3_linear_951_2693" x1="55.0172" y1="34.6102" x2="55.9634" y2="28.794" gradientUnits="userSpaceOnUse">
<stop stop-color="#00A7AA"/>
<stop offset="1" stop-color="#F2D025"/>
</linearGradient>
<linearGradient id="paint4_linear_951_2693" x1="26.5073" y1="47.5953" x2="36.5676" y2="47.5953" gradientUnits="userSpaceOnUse">
<stop stop-color="#00A7AA"/>
<stop offset="1" stop-color="#F2D025"/>
</linearGradient>
<linearGradient id="paint5_linear_951_2693" x1="62.2183" y1="47.5953" x2="71.7494" y2="47.5953" gradientUnits="userSpaceOnUse">
<stop stop-color="#00A7AA"/>
<stop offset="1" stop-color="#F2D025"/>
</linearGradient>
<linearGradient id="paint6_linear_951_2693" x1="26.772" y1="61.6474" x2="36.3031" y2="61.6474" gradientUnits="userSpaceOnUse">
<stop stop-color="#00A7AA"/>
<stop offset="1" stop-color="#F2D025"/>
</linearGradient>
<linearGradient id="paint7_linear_951_2693" x1="87.7709" y1="14.9137" x2="95.3458" y2="7.3388" gradientUnits="userSpaceOnUse">
<stop stop-color="#00A7AA"/>
<stop offset="1" stop-color="#F2D025"/>
</linearGradient>
<linearGradient id="paint8_linear_951_2693" x1="102.367" y1="42.3055" x2="111.81" y2="42.3055" gradientUnits="userSpaceOnUse">
<stop stop-color="#00A7AA"/>
<stop offset="1" stop-color="#F2D025"/>
</linearGradient>
<linearGradient id="paint9_linear_951_2693" x1="111.505" y1="55.7023" x2="119.271" y2="55.7023" gradientUnits="userSpaceOnUse">
<stop stop-color="#00A7AA"/>
<stop offset="1" stop-color="#F2D025"/>
</linearGradient>
<linearGradient id="paint10_linear_951_2693" x1="96.7026" y1="58.4549" x2="114.683" y2="58.4549" gradientUnits="userSpaceOnUse">
<stop stop-color="#00A7AA"/>
<stop offset="1" stop-color="#F2D025"/>
</linearGradient>
<linearGradient id="paint11_linear_951_2693" x1="85.1326" y1="52.3154" x2="103.353" y2="52.3154" gradientUnits="userSpaceOnUse">
<stop stop-color="#00A7AA"/>
<stop offset="1" stop-color="#F2D025"/>
</linearGradient>
<clipPath id="clip0_951_2693">
<rect width="150" height="150" fill="white"/>
</clipPath>
</defs>
</svg>
