<svg width="16" height="17" viewBox="0 0 16 17" fill="none" xmlns="http://www.w3.org/2000/svg">
<path d="M7 14.9231C7 14.9231 6 14.9231 6 13.9231C6 12.9231 7 9.9231 11 9.9231C15 9.9231 16 12.9231 16 13.9231C16 14.9231 15 14.9231 15 14.9231H7ZM11 8.9231C11.7956 8.9231 12.5587 8.60703 13.1213 8.04442C13.6839 7.48181 14 6.71875 14 5.9231C14 5.12745 13.6839 4.36438 13.1213 3.80178C12.5587 3.23917 11.7956 2.9231 11 2.9231C10.2044 2.9231 9.44129 3.23917 8.87868 3.80178C8.31607 4.36438 8 5.12745 8 5.9231C8 6.71875 8.31607 7.48181 8.87868 8.04442C9.44129 8.60703 10.2044 8.9231 11 8.9231ZM5.216 14.9231C5.06782 14.6109 4.9939 14.2686 5 13.9231C5 12.5681 5.68 11.1731 6.936 10.2031C6.30918 10.0095 5.65598 9.91506 5 9.9231C1 9.9231 0 12.9231 0 13.9231C0 14.9231 1 14.9231 1 14.9231H5.216ZM4.5 8.9231C5.16304 8.9231 5.79893 8.6597 6.26777 8.19086C6.73661 7.72202 7 7.08614 7 6.4231C7 5.76005 6.73661 5.12417 6.26777 4.65533C5.79893 4.18649 5.16304 3.9231 4.5 3.9231C3.83696 3.9231 3.20107 4.18649 2.73223 4.65533C2.26339 5.12417 2 5.76005 2 6.4231C2 7.08614 2.26339 7.72202 2.73223 8.19086C3.20107 8.6597 3.83696 8.9231 4.5 8.9231Z" fill="#636363"/>
</svg>
