<svg width="18" height="19" viewBox="0 0 18 19" fill="none" xmlns="http://www.w3.org/2000/svg">
<g clip-path="url(#clip0_63_25315)">
<path d="M9.07701 2.41028C13.1839 2.41028 16.5129 5.73933 16.5129 9.84618C16.5129 13.953 13.1839 17.2821 9.07701 17.2821C4.97016 17.2821 1.64111 13.953 1.64111 9.84618C1.64111 5.73933 4.97016 2.41028 9.07701 2.41028ZM9.07701 5.38464C8.8798 5.38464 8.69066 5.46298 8.55121 5.60243C8.41176 5.74188 8.33342 5.93101 8.33342 6.12823V9.84618C8.33346 10.0434 8.41183 10.2325 8.55129 10.3719L10.7821 12.6027C10.9223 12.7381 11.1101 12.8131 11.3051 12.8114C11.5001 12.8097 11.6866 12.7315 11.8244 12.5936C11.9623 12.4557 12.0405 12.2692 12.0422 12.0743C12.0439 11.8793 11.9689 11.6915 11.8335 11.5512L9.8206 9.53833V6.12823C9.8206 5.93101 9.74226 5.74188 9.60281 5.60243C9.46336 5.46298 9.27422 5.38464 9.07701 5.38464Z" fill="#636363"/>
</g>
<defs>
<clipPath id="clip0_63_25315">
<rect width="17.8462" height="17.8462" fill="white" transform="translate(0.153809 0.923096)"/>
</clipPath>
</defs>
</svg>
