<svg width="36" height="35" viewBox="0 0 36 35" fill="none" xmlns="http://www.w3.org/2000/svg">
<g id="material-symbols:cloud-upload">
<path id="Vector" d="M16.5418 29.1668H9.97933C7.76752 29.1668 5.87801 28.4012 4.31079 26.8699C2.74357 25.3387 1.95947 23.4672 1.9585 21.2554C1.9585 19.3595 2.52968 17.6703 3.67204 16.1877C4.8144 14.705 6.30919 13.7571 8.15641 13.3439C8.76405 11.1078 9.97933 9.29704 11.8022 7.91162C13.6252 6.5262 15.6911 5.8335 18.0002 5.8335C20.8439 5.8335 23.2565 6.82419 25.2379 8.80558C27.2193 10.787 28.2095 13.199 28.2085 16.0418C29.8856 16.2363 31.2773 16.9596 32.3837 18.2118C33.4901 19.464 34.0428 20.9282 34.0418 22.6043C34.0418 24.4272 33.404 25.977 32.1285 27.2535C30.8529 28.53 29.3032 29.1678 27.4793 29.1668H19.4585V18.7397L21.7918 21.0002L23.8335 18.9585L18.0002 13.1252L12.1668 18.9585L14.2085 21.0002L16.5418 18.7397V29.1668Z" fill="#00A7AA"/>
</g>
</svg>
