<svg width="70" height="70" viewBox="0 0 70 70" fill="none" xmlns="http://www.w3.org/2000/svg">
<g filter="url(#filter0_d_241_3036)">
<rect x="10" y="8" width="50" height="50" rx="25" fill="url(#paint0_linear_241_3036)" shape-rendering="crispEdges"/>
<path d="M42.4397 25.5556C41.4722 24.5832 40.3198 23.8122 39.0498 23.2876C37.7797 22.763 36.4174 22.4953 35.0422 22.5001C29.2804 22.5001 24.5844 27.1725 24.5844 32.9055C24.5844 34.743 25.0698 36.528 25.9774 38.103L24.5 43.5L30.0402 42.051C31.5704 42.8805 33.2905 43.3215 35.0422 43.3215C40.804 43.3215 45.5 38.649 45.5 32.916C45.5 30.1335 44.4131 27.519 42.4397 25.5556ZM35.0422 41.5575C33.4804 41.5575 31.9503 41.1375 30.61 40.35L30.2935 40.161L27.001 41.022L27.8769 37.83L27.6658 37.5045C26.7981 36.1258 26.3374 34.5322 26.3362 32.9055C26.3362 28.1385 30.2407 24.2536 35.0317 24.2536C37.3533 24.2536 39.5377 25.1566 41.1734 26.7945C41.9833 27.5967 42.6251 28.5508 43.0617 29.6016C43.4982 30.6524 43.7208 31.779 43.7166 32.916C43.7377 37.683 39.8332 41.5575 35.0422 41.5575ZM39.8121 35.0895C39.5482 34.9635 38.2608 34.3335 38.0286 34.239C37.7859 34.155 37.6171 34.113 37.4377 34.365C37.2583 34.6275 36.7623 35.2155 36.6146 35.3835C36.4668 35.562 36.3085 35.583 36.0447 35.4465C35.7809 35.3205 34.9367 35.037 33.9447 34.155C33.1638 33.462 32.6467 32.6115 32.4884 32.349C32.3407 32.0865 32.4673 31.95 32.6045 31.8135C32.7206 31.698 32.8683 31.509 32.995 31.362C33.1216 31.215 33.1744 31.0995 33.2588 30.9315C33.3432 30.753 33.301 30.606 33.2377 30.48C33.1744 30.354 32.6467 29.073 32.4357 28.548C32.2246 28.044 32.003 28.107 31.8447 28.0965H31.3382C31.1588 28.0965 30.8844 28.1595 30.6417 28.422C30.4095 28.6845 29.7342 29.3145 29.7342 30.5955C29.7342 31.8765 30.6734 33.1155 30.8 33.2835C30.9266 33.462 32.6467 36.087 35.2638 37.2105C35.8864 37.4835 36.3719 37.641 36.7518 37.7565C37.3744 37.956 37.9442 37.9245 38.398 37.8615C38.9045 37.788 39.9492 37.2315 40.1603 36.6225C40.3819 36.0135 40.3819 35.499 40.308 35.3835C40.2342 35.268 40.0759 35.2155 39.8121 35.0895Z" fill="white"/>
</g>
<defs>
<filter id="filter0_d_241_3036" x="0" y="0" width="70" height="70" filterUnits="userSpaceOnUse" color-interpolation-filters="sRGB">
<feFlood flood-opacity="0" result="BackgroundImageFix"/>
<feColorMatrix in="SourceAlpha" type="matrix" values="0 0 0 0 0 0 0 0 0 0 0 0 0 0 0 0 0 0 127 0" result="hardAlpha"/>
<feOffset dy="2"/>
<feGaussianBlur stdDeviation="5"/>
<feComposite in2="hardAlpha" operator="out"/>
<feColorMatrix type="matrix" values="0 0 0 0 0 0 0 0 0 0 0 0 0 0 0 0 0 0 0.05 0"/>
<feBlend mode="normal" in2="BackgroundImageFix" result="effect1_dropShadow_241_3036"/>
<feBlend mode="normal" in="SourceGraphic" in2="effect1_dropShadow_241_3036" result="shape"/>
</filter>
<linearGradient id="paint0_linear_241_3036" x1="10" y1="33" x2="60" y2="33" gradientUnits="userSpaceOnUse">
<stop stop-color="#00A7AA"/>
<stop offset="1" stop-color="#F2D025"/>
</linearGradient>
</defs>
</svg>
