<svg width="20" height="20" viewBox="0 0 20 20" fill="none" xmlns="http://www.w3.org/2000/svg">
<g id="vuesax/linear/call-calling">
<g id="call-calling">
<g id="call-calling_2">
<path id="Vector" d="M17.8926 15.0111C17.8926 15.2961 17.8293 15.589 17.6947 15.874C17.5601 16.159 17.3859 16.4282 17.1563 16.6815C16.7684 17.109 16.3409 17.4177 15.858 17.6157C15.383 17.8136 14.8684 17.9165 14.3143 17.9165C13.5068 17.9165 12.6438 17.7265 11.7334 17.3386C10.823 16.9507 9.91259 16.4282 9.01009 15.7711C8.09967 15.1061 7.23676 14.3698 6.41342 13.5544C5.59801 12.7311 4.86176 11.8682 4.20467 10.9657C3.55551 10.0632 3.03301 9.16065 2.65301 8.26607C2.27301 7.36357 2.08301 6.50065 2.08301 5.67732C2.08301 5.13898 2.17801 4.6244 2.36801 4.1494C2.55801 3.66648 2.85884 3.22315 3.27842 2.82732C3.78509 2.32857 4.33926 2.08315 4.92509 2.08315C5.14676 2.08315 5.36842 2.13065 5.56634 2.22565C5.77217 2.32065 5.95426 2.46315 6.09676 2.66898L7.93342 5.25773C8.07592 5.45565 8.17884 5.63773 8.25009 5.8119C8.32134 5.97815 8.36092 6.1444 8.36092 6.29482C8.36092 6.48482 8.30551 6.67482 8.19467 6.8569C8.09176 7.03898 7.94134 7.22898 7.75134 7.41898L7.14967 8.0444C7.06259 8.13148 7.02301 8.2344 7.02301 8.36107C7.02301 8.4244 7.03092 8.47982 7.04676 8.54315C7.07051 8.60648 7.09426 8.65398 7.11009 8.70148C7.25259 8.96273 7.49801 9.30315 7.84634 9.71482C8.20259 10.1265 8.58259 10.5461 8.99426 10.9657C9.42176 11.3852 9.83342 11.7732 10.253 12.1294C10.6647 12.4777 11.0051 12.7152 11.2743 12.8577C11.3138 12.8736 11.3613 12.8973 11.4168 12.9211C11.4801 12.9448 11.5434 12.9527 11.6147 12.9527C11.7493 12.9527 11.8522 12.9052 11.9393 12.8182L12.5409 12.2244C12.7388 12.0265 12.9288 11.8761 13.1109 11.7811C13.293 11.6702 13.4751 11.6148 13.673 11.6148C13.8234 11.6148 13.9818 11.6465 14.1559 11.7177C14.3301 11.789 14.5122 11.8919 14.7101 12.0265L17.3305 13.8869C17.5363 14.0294 17.6788 14.1957 17.7659 14.3936C17.8451 14.5915 17.8926 14.7894 17.8926 15.0111Z" stroke="white" stroke-width="1.5" stroke-miterlimit="10"/>
<path id="Vector_2" d="M15.1458 7.62533C15.1458 7.15033 14.7737 6.42199 14.2196 5.82824C13.7129 5.28199 13.04 4.85449 12.375 4.85449" stroke="white" stroke-width="1.5" stroke-linecap="round" stroke-linejoin="round"/>
<path id="Vector_3" d="M17.9167 7.62496C17.9167 4.56121 15.4387 2.08329 12.375 2.08329" stroke="white" stroke-width="1.5" stroke-linecap="round" stroke-linejoin="round"/>
</g>
</g>
</g>
</svg>
