<svg width="26" height="26" viewBox="0 0 26 26" fill="none" xmlns="http://www.w3.org/2000/svg">
<g id="ic:baseline-telegram">
<path id="Vector" d="M13.0003 2.16666C7.02033 2.16666 2.16699 7.02 2.16699 13C2.16699 18.98 7.02033 23.8333 13.0003 23.8333C18.9803 23.8333 23.8337 18.98 23.8337 13C23.8337 7.02 18.9803 2.16666 13.0003 2.16666ZM18.027 9.53333C17.8645 11.245 17.1603 15.405 16.8028 17.3225C16.6512 18.135 16.3478 18.4058 16.0662 18.4383C15.4378 18.4925 14.9612 18.0267 14.3545 17.6258C13.4012 16.9975 12.8595 16.6075 11.9387 16.0008C10.8662 15.2967 11.5595 14.9067 12.177 14.2783C12.3395 14.1158 15.1128 11.5917 15.167 11.3642C15.1745 11.3297 15.1735 11.2939 15.1641 11.26C15.1546 11.226 15.137 11.1948 15.1128 11.1692C15.0478 11.115 14.9612 11.1367 14.8853 11.1475C14.7878 11.1692 13.2712 12.1767 10.3137 14.17C9.88033 14.4625 9.49033 14.6142 9.14366 14.6033C8.75366 14.5925 8.01699 14.3867 7.46449 14.2025C6.78199 13.9858 6.25116 13.8667 6.29449 13.4875C6.31616 13.2925 6.58699 13.0975 7.09616 12.8917C10.2595 11.5158 12.3612 10.6058 13.412 10.1725C16.4237 8.91583 17.0412 8.69916 17.4528 8.69916C17.5395 8.69916 17.7453 8.72083 17.8753 8.82916C17.9837 8.91583 18.0162 9.035 18.027 9.12166C18.0162 9.18666 18.0378 9.38166 18.027 9.53333Z" fill="white"/>
</g>
</svg>
