<svg width="24" height="24" viewBox="0 0 24 24" fill="none" xmlns="http://www.w3.org/2000/svg">
<g id="ic:outline-whatsapp">
<path id="Vector" d="M19.4397 4.55555C18.4722 3.58318 17.3198 2.81221 16.0498 2.28761C14.7797 1.76302 13.4174 1.4953 12.0422 1.50006C6.2804 1.50006 1.58442 6.17255 1.58442 11.9055C1.58442 13.743 2.06985 15.528 2.97739 17.103L1.5 22.5L7.0402 21.051C8.57035 21.8805 10.2905 22.3215 12.0422 22.3215C17.804 22.3215 22.5 17.649 22.5 11.916C22.5 9.13354 21.4131 6.51905 19.4397 4.55555ZM12.0422 20.5575C10.4804 20.5575 8.95025 20.1375 7.61005 19.35L7.29347 19.161L4.001 20.022L4.87688 16.83L4.66583 16.5045C3.79812 15.1258 3.33738 13.5322 3.33618 11.9055C3.33618 7.13855 7.2407 3.25356 12.0317 3.25356C14.3533 3.25356 16.5377 4.15655 18.1734 5.79455C18.9833 6.59671 19.6251 7.55084 20.0617 8.60164C20.4982 9.65244 20.7208 10.779 20.7166 11.916C20.7377 16.683 16.8332 20.5575 12.0422 20.5575ZM16.8121 14.0895C16.5482 13.9635 15.2608 13.3335 15.0286 13.239C14.7859 13.155 14.6171 13.113 14.4377 13.365C14.2583 13.6275 13.7623 14.2155 13.6146 14.3835C13.4668 14.562 13.3085 14.583 13.0447 14.4465C12.7809 14.3205 11.9367 14.037 10.9447 13.155C10.1638 12.462 9.64673 11.6115 9.48844 11.349C9.3407 11.0865 9.46734 10.95 9.60452 10.8135C9.7206 10.698 9.86834 10.509 9.99497 10.362C10.1216 10.215 10.1744 10.0995 10.2588 9.93154C10.3432 9.75304 10.301 9.60604 10.2377 9.48004C10.1744 9.35404 9.64673 8.07304 9.43568 7.54804C9.22462 7.04405 9.00301 7.10705 8.84472 7.09655H8.33819C8.15879 7.09655 7.88442 7.15955 7.64171 7.42204C7.40955 7.68454 6.73417 8.31454 6.73417 9.59554C6.73417 10.8765 7.67337 12.1155 7.8 12.2835C7.92663 12.462 9.64673 15.087 12.2638 16.2105C12.8864 16.4835 13.3719 16.641 13.7518 16.7565C14.3744 16.956 14.9442 16.9245 15.398 16.8615C15.9045 16.788 16.9492 16.2315 17.1603 15.6225C17.3819 15.0135 17.3819 14.499 17.308 14.3835C17.2342 14.268 17.0759 14.2155 16.8121 14.0895Z" fill="white"/>
</g>
</svg>
